<?xml version="1.0" encoding="utf-8"?>
<!-- Generator: Adobe Illustrator 21.0.0, SVG Export Plug-In . SVG Version: 6.00 Build 0)  -->
<svg version="1.1" id="Слой_1" xmlns="http://www.w3.org/2000/svg" xmlns:xlink="http://www.w3.org/1999/xlink" x="0px" y="0px"
	 viewBox="0 0 17.1 16.9" style="enable-background:new 0 0 17.1 16.9;" xml:space="preserve">
<g>
	<path id="XMLID_482_" d="M6.1,15.6c0.2,0.2,0.2,0.3,0,0.5l-0.8,0.7c-0.2,0.2-0.4,0.2-0.5,0L0.2,12c-0.2-0.2-0.2-0.4,0-0.5L1,10.8
		c0.2-0.2,0.3-0.2,0.5,0L6.1,15.6z"/>
	<path id="XMLID_477_" d="M11.9,6.4c0.2,0.2,0.2,0.3,0,0.5L7,11.5c-0.2,0.2-0.4,0.2-0.5,0l-1.2-1.3c-0.2-0.1-0.2-0.3,0-0.5l4.9-4.6
		c0.2-0.2,0.4-0.2,0.5,0L11.9,6.4z"/>
	<path id="XMLID_474_" d="M7.8,14.1c0.2,0.2,0.2,0.3,0,0.5l-0.8,0.7c-0.2,0.2-0.4,0.2-0.5,0l-4.5-4.9c-0.2-0.2-0.2-0.3,0-0.5
		l0.8-0.7C2.8,9,3,9,3.1,9.2L7.8,14.1z"/>
	<g id="XMLID_467_">
		<path id="XMLID_471_" d="M15.3,6.6c0.2,0.2,0.2,0.3,0,0.5l-0.8,0.7c-0.2,0.2-0.3,0.2-0.5,0L9.4,2.9c-0.2-0.2-0.2-0.3,0-0.5
			l0.8-0.7c0.2-0.2,0.4-0.2,0.5,0L15.3,6.6z"/>
		<path id="XMLID_468_" d="M16.9,5c0.2,0.2,0.2,0.4,0,0.5l-0.8,0.7c-0.2,0.2-0.3,0.2-0.5,0l-4.6-4.8c-0.2-0.2-0.2-0.4,0-0.5l0.8-0.7
			C12.1,0,12.3,0,12.4,0.1L16.9,5z"/>
	</g>
</g>
</svg>
