<?xml version="1.0" encoding="utf-8"?>
<!-- Generator: Adobe Illustrator 21.0.0, SVG Export Plug-In . SVG Version: 6.00 Build 0)  -->
<svg version="1.1" id="Слой_1" xmlns="http://www.w3.org/2000/svg" xmlns:xlink="http://www.w3.org/1999/xlink" x="0px" y="0px"
	 viewBox="0 0 17 16.1" style="enable-background:new 0 0 17 16.1;" xml:space="preserve">
<g>
	<rect id="XMLID_86_" x="1.1" y="4.7" width="1.9" height="9.4"/>
	<rect id="XMLID_85_" x="5.4" y="4.7" width="1.9" height="9.4"/>
	<rect id="XMLID_84_" x="9.7" y="4.7" width="1.9" height="9.4"/>
	<rect id="XMLID_83_" x="14" y="4.7" width="1.9" height="9.4"/>
	<path id="XMLID_94_" d="M16.6,3.2h-0.2l0,0c0-0.1-0.1-0.3-0.2-0.3L8.6,0C8.5,0,8.4,0,8.4,0L0.8,2.8C0.7,2.8,0.6,3,0.6,3.1l0,0H0.4
		C0.2,3.2,0,3.3,0,3.5v1.1c0,0.2,0.2,0.3,0.3,0.3h16.3c0.2,0,0.3-0.2,0.3-0.3V3.5C17,3.3,16.8,3.2,16.6,3.2L16.6,3.2z"/>
	<path id="XMLID_89_" d="M16.6,14H0.4c-0.2,0-0.3,0.2-0.3,0.3v1.5c0,0.2,0.2,0.3,0.3,0.3h16.3c0.2,0,0.3-0.2,0.3-0.3v-1.5
		C17,14.1,16.8,14,16.6,14L16.6,14z"/>
</g>
</svg>
