<?xml version="1.0" encoding="utf-8"?>
<!-- Generator: Adobe Illustrator 21.0.2, SVG Export Plug-In . SVG Version: 6.00 Build 0)  -->
<svg version="1.1" xmlns="http://www.w3.org/2000/svg" xmlns:xlink="http://www.w3.org/1999/xlink" x="0px" y="0px"
	 viewBox="0 0 20 20" style="enable-background:new 0 0 20 20;" xml:space="preserve">
<style type="text/css">
	.st0{fill:#FFFFFF;}
	.st1{clip-path:url(#SVGID_2_);}
	.st2{clip-path:url(#SVGID_4_);}
	.st3{clip-path:url(#SVGID_6_);}
	.st4{clip-path:url(#SVGID_8_);fill-rule:evenodd;clip-rule:evenodd;fill:#121111;}
	.st5{clip-path:url(#SVGID_10_);fill-rule:evenodd;clip-rule:evenodd;}
</style>
<g id="Слой_1">
	<path d="M8.6,12C8.6,12,8.6,12,8.6,12c0,0,0,0.1,0,0.1c0,0.1,0.1,0.1,0.1,0.2c0.1,0.1,0.1,0.2,0.2,0.3c0,0.2-0.1,0.3,0,0.5
		C9,13.3,9,13.4,9,13.5c0,0.3-0.3,0.5-0.4,0.7c-0.1,0.2-0.1,0.3-0.1,0.5c0,0.1,0,0.1,0,0.2c0,0,0,0.2,0,0.1c0,0,0,0.3,0,0.3
		c0,0.2,0.2,0.3,0.3,0.5c0.1,0.2,0.3,0.5,0.4,0.7c0.1,0.2,0.1,0.5,0.1,0.7c0.1,0.2,0.1,0.5,0.2,0.7c0.1,0.2,0.3,0.4,0.4,0.6
		c0.1,0.2,0.3,0.5,0.3,0.7c0,0.1,0.1,0.3-0.1,0.3c0,0,0.1,0.4,0.1,0.4c0,0,0-0.1,0.1,0c0.1,0,0.2,0.1,0.3,0.1c0.3,0,0.4-0.2,0.7-0.2
		c0.2,0,0.5,0.1,0.7,0c0.1,0,0.1,0,0.1-0.1c0.1,0,0.1,0,0.2,0c0.4-0.1,0.8-0.5,1.1-0.8c0.1-0.1,0.1-0.2,0.2-0.3
		c0.1-0.1,0.2-0.1,0.3-0.2c0.2-0.2,0.2-0.4,0.2-0.7c0,0.1-0.1,0-0.1,0c0.1,0,0.2-0.2,0.2-0.2c0.1,0,0.2,0,0.3-0.1
		c0,0,0.4-0.2,0.3-0.3c0,0,0,0-0.1,0.1c0-0.2,0.1-0.3,0.1-0.5c0-0.2-0.1-0.3-0.1-0.5c0-0.3,0.3-0.3,0.4-0.5c0,0.1,0.1-0.1,0.1-0.1
		c0.1-0.1,0.3-0.2,0.4-0.3c0.3-0.1,0.6-0.3,0.7-0.6c0.1-0.2,0-0.4,0-0.6c0-0.2,0.1-0.4,0.1-0.6c0-0.1-0.1-0.2-0.1-0.3
		c-0.1-0.2-0.1-0.4-0.1-0.6c0-0.2,0-0.3-0.1-0.4c-0.1-0.2,0-0.3,0-0.4c0.2-0.4,0.4-0.6,0.6-0.9c0.3-0.3,0.5-0.6,0.7-0.8
		c0.3-0.2,0.6-0.4,0.8-0.7c0.1-0.2,0.3-0.4,0.4-0.6c0.1-0.2,0.2-0.4,0.2-0.5C19,8,19.1,7.8,19.2,7.6c0-0.1,0-0.3,0.1-0.3
		c-0.1-0.1,0-0.5-0.2-0.4C19,6.8,18.9,7,18.8,7c-0.1,0-0.3,0.1-0.3,0.2c0-0.2-0.2-0.1-0.3-0.1c-0.2,0.1-0.3,0.1-0.5,0.1
		c-0.2,0-0.3,0.1-0.5,0C17.2,7.1,17.1,7,17,7c0-0.1,0.1-0.1,0.2-0.2c0-0.1-0.1-0.2-0.2-0.3c-0.1-0.1-0.2-0.3-0.4-0.4
		c-0.1-0.1-0.3-0.1-0.4-0.3c0,0,0,0.1,0,0.1c-0.1-0.1-0.1-0.2-0.2-0.4c0-0.1-0.1-0.3-0.2-0.4C15.6,5,15.4,5,15.3,4.7
		c-0.1-0.2-0.1-0.5-0.3-0.7c-0.1-0.1-0.2-0.1-0.3-0.2c0,0-0.1-0.1,0-0.2c0-0.1,0,0,0.1-0.1c0,0-0.3-0.3-0.3-0.3
		c-0.2-0.3-0.3-0.6-0.5-0.8c-0.1-0.1-0.2-0.2-0.2-0.4c0-0.1,0-0.3-0.1-0.4c-0.1-0.1-0.4-0.3-0.5-0.1c0.1-0.1-0.1,0-0.1,0
		c-0.2,0.1-0.3,0.1-0.5,0.1c-0.4-0.1-0.8-0.2-1.2-0.3c-0.2-0.1-0.6-0.3-0.8,0c-0.1,0.2,0,0.6-0.4,0.5C10.1,1.8,10,1.7,9.8,1.7
		c-0.2,0-0.3-0.1-0.4-0.2C9.2,1.2,9,1.3,8.6,1.2C8.4,1.1,8,1,8.3,0.7c0.1-0.1,0.1-0.1,0.1-0.3c0-0.1,0.1-0.2,0-0.3C8.3,0,8.1,0,8,0
		C7.8,0,7.6,0.1,7.4,0.1c-0.4,0-0.8,0-1.2,0.1c-0.3,0.1-0.7,0.3-1,0.3c-0.1,0-0.3,0-0.4,0c-0.1,0-0.2-0.2-0.4-0.2
		c-0.1,0-0.2,0.2-0.3,0.3C4.1,0.7,4,0.8,3.9,0.9C3.6,1.1,3.3,1.2,3.2,1.5C3.1,1.8,3,2.1,2.7,2.2C2.6,2.3,2.4,2.3,2.3,2.4
		C2.1,2.5,2,2.6,1.9,2.8C1.6,3.1,1.4,3.5,1.1,3.8C1,4,0.9,4.1,1,4.3c0.1,0.2,0.1,0.3,0.1,0.5C1.1,5,1,5.2,1,5.4
		C0.9,5.6,0.8,5.8,0.7,6c0,0.1,0,0.3,0.1,0.4c0,0,0.3,0.1,0.3,0c-0.1,0-0.1,0-0.2,0c0,0-0.2,0-0.1,0c-0.1,0-0.1,0.1-0.1,0.2
		c0,0.1,0.1,0.2,0.2,0.2c0.1,0,0.2-0.1,0.3,0C1.1,6.8,0.9,7.1,1.1,7.1c0,0,0,0,0,0.1c0,0,0.1,0,0.1,0C1.1,7.4,1.4,7.5,1.5,7.7
		C1.6,7.8,1.6,7.9,1.7,8C1.7,8.2,1.9,8.3,2,8.4c0.2,0.2,0.4,0.4,0.7,0.6C3,9.1,3.2,9,3.6,8.9c0.3-0.1,0.6,0,0.9,0
		c0.2,0,0.3,0,0.4-0.1c0.1,0,0.3-0.1,0.4-0.2c0.3-0.1,0.5-0.2,0.9-0.2c0.1,0,0.2,0,0.3,0.1c0,0,0.1,0.2,0.2,0.2C6.6,8.9,6.7,9,6.7,9
		c0.1,0.1,0.2,0.1,0.3,0c0.1,0,0.2,0,0.3,0c0.1,0,0.1-0.1,0.2,0C7.8,9.3,8,9.4,7.9,9.7c0,0-0.2,0.4,0,0.4c-0.1,0.1-0.1,0.3,0.1,0.3
		c-0.1,0-0.1,0-0.2,0c0,0-0.1,0.2-0.1,0.3c-0.1,0.2,0.1,0.4,0.2,0.5c0.1,0.2,0.3,0.3,0.5,0.5c0.1,0.1,0.1,0.2,0.2,0.3
		C8.6,11.9,8.6,12,8.6,12"/>
</g>
<g id="Слой_2">
</g>
<g id="Слой_3">
</g>
</svg>
