<?xml version="1.0" encoding="utf-8"?>
<!-- Generator: Adobe Illustrator 21.0.0, SVG Export Plug-In . SVG Version: 6.00 Build 0)  -->
<svg version="1.1" id="Слой_1" xmlns="http://www.w3.org/2000/svg" xmlns:xlink="http://www.w3.org/1999/xlink" x="0px" y="0px"
	 viewBox="0 0 46.8551521 46.8549805" style="enable-background:new 0 0 46.8551521 46.8549805;" xml:space="preserve">
<g>
	<path d="M43.7731514,9.460968c1.9259949-2.5749817,3.0750122-5.25,3.0820007-7.1609802
		c-0.0029907-0.6170044-0.1279907-1.1009827-0.3629761-1.4609985C46.4691658,0.79599,46.3981514,0.6789856,46.2811775,0.565979
		C46.1601753,0.4490051,46.0551643,0.3859863,46.031147,0.375C45.6521492,0.1210022,45.1681404,0,44.5471687,0
		c-1.9020081,0.0039978-4.5780029,1.1519775-7.1520081,3.0779724c-2.0830078,1.5580139-4.164978,3.7540283-7.0430012,6.7890015
		c-0.4930115,0.5150146-1.0039978,1.0580444-1.5509949,1.625l-5.5780029-1.6719971l0.0149841-0.0159912
		c0.2310181-0.2339783,0.3640137-0.5579834,0.3600159-0.875c0.0039978-0.3320007-0.1329956-0.6560059-0.3640137-0.8860168
		l-1.0069885-1.0119934c-0.2350159-0.2349854-0.5549927-0.3670044-0.8870239-0.3670044
		c-0.3359985,0-0.6519775,0.1289978-0.8869934,0.3670044l-1.5079956,1.5079956L18.14818,8.3000183
		c0.1719971-0.2180481,0.2659607-0.4920349,0.2659607-0.7610168c0-0.3360291-0.1289673-0.6530151-0.3670044-0.8869934
		l-1.0119934-1.0160217c-0.2299805-0.2299805-0.5509949-0.3630066-0.8869934-0.3630066
		c-0.3359976,0-0.6479788,0.1289978-0.8779898,0.3670044l-1.3829956,1.3829956L8.2111692,5.3240051
		c-0.1289978-0.0390015-0.2619934-0.059021-0.4060059-0.059021C7.4021482,5.2689819,7.0271482,5.42099,6.7541685,5.6910095
		L4.7581358,7.6869812C4.531146,7.9140015,4.406146,8.2179871,4.406146,8.5069885
		C4.4021482,8.9369812,4.6371641,9.3320007,5.0161619,9.5349731l11.9369802,6.6679993
		c0.0550232,0.0310059,0.2270203,0.1560059,0.289032,0.2180176l3.4029846,3.4029846
		C17.4611683,23.1749878,14.6251707,26.4249878,12.41817,29.25c-0.2070007,0.2609863-0.4020081,0.5189819-0.5939941,0.7729797
		l-9.2340393-0.8399963C2.5471675,29.1749878,2.4961727,29.17099,2.4301631,29.17099
		c-0.4219971,0.0119934-0.8359985,0.1759949-1.1450195,0.4729919L0.355151,30.5739746
		c-0.2299805,0.2260132-0.3590088,0.5310059-0.3549805,0.8240051c-0.0079956,0.4490051,0.2659607,0.8630066,0.6719971,1.0429993
		L7.16817,35.5270081c0.0549927,0.0269775,0.1989746,0.1329651,0.2460022,0.1799927l0.5389709,0.5349731
		c-0.1679993,0.4720154-0.2539673,0.8869934-0.2579956,1.2460022c0,0.4840088,0.1570129,0.8980103,0.4530029,1.1990051
		l0.0240173,0.0200195l0.0079956,0.0039673c0.3039856,0.2960205,0.7029724,0.4490051,1.190979,0.4490051
		c0.3560181-0.0079956,0.7620239-0.0899963,1.2380371-0.2579651l0.5469666,0.5469971
		c0.0429993,0.0429688,0.1450195,0.1869812,0.1719971,0.2419739l3.0780334,6.480011
		c0.1879883,0.414978,0.5939941,0.6839905,1.0350037,0.6839905h0.0079956c0.3049622,0,0.597991-0.125,0.8209829-0.3479919
		l0.9530029-0.9570007c0.2810059-0.29599,0.4489746-0.7070007,0.4530029-1.1400146c0-0.0509949,0-0.0939636-0.0040283-0.1139832
		L16.83214,35.0269775c0.2540283-0.1879883,0.5080261-0.3869629,0.7730103-0.5899963
		c2.8289795-2.210968,6.0750122-5.0509949,9.4220276-8.2259827l3.4069824,3.4060059
		c0.0539856,0.0539856,0.1829834,0.2219849,0.2179871,0.2929993l6.6569843,11.9139709
		c0.2030334,0.3829956,0.5930481,0.6210022,1.0270081,0.6210022c0.309021,0,0.605011-0.1210022,0.8280334-0.3519897
		l2.0119934-2.0069885c0.2619934-0.2740173,0.4059753-0.6410217,0.4100037-1.0469971
		c0-0.1369934-0.0200195-0.2700195-0.0550232-0.3910217l-1.6989746-5.6799927l1.3829651-1.382019
		c0.2340088-0.230957,0.3670044-0.5549927,0.3670044-0.8829651c0-0.3320313-0.1289978-0.644989-0.3629761-0.8829956
		l-1.0160217-1.0160217c-0.2339783-0.2299805-0.5549927-0.3630066-0.8829651-0.3630066
		c-0.2810364,0-0.5540161,0.0940247-0.7690125,0.2620239l-0.2349854-0.7969971l1.5079956-1.5079956
		c0.2309875-0.2340393,0.3639832-0.5550232,0.3639832-0.8870239s-0.1289978-0.6440125-0.3639832-0.8789978l-1.0079956-1.0110168
		c-0.2340393-0.2349854-0.5580139-0.3670044-0.8900146-0.3670044c-0.3320313,0-0.6560059,0.132019-0.8829956,0.3670044
		l-0.0120239,0.0079956l-1.6719971-5.578949c0.57901-0.5500488,1.125-1.0740356,1.6489868-1.5700378
		C40.0351753,13.6089783,42.2231636,11.5350037,43.7731514,9.460968L43.7731514,9.460968z M43.7731514,9.460968"/>
</g>
</svg>
