<?xml version="1.0" encoding="utf-8"?>
<!-- Generator: Adobe Illustrator 21.0.2, SVG Export Plug-In . SVG Version: 6.00 Build 0)  -->
<svg version="1.1" id="Слой_1" xmlns="http://www.w3.org/2000/svg" xmlns:xlink="http://www.w3.org/1999/xlink" x="0px" y="0px"
	 viewBox="0 0 17 17" style="enable-background:new 0 0 17 17;" xml:space="preserve">
<style type="text/css">
	.st0{fill:#FFFFFF;}
	.st1{clip-path:url(#XMLID_95_);}
	.st2{fill:#12100B;}
	.st3{clip-path:url(#XMLID_96_);}
	.st4{fill:#211915;}
	.st5{fill:#231F20;}
	.st6{fill:#1E120D;}
	.st7{fill:none;}
</style>
<g id="XMLID_294_">
	<path id="XMLID_304_" class="st5" d="M17,10.6l-1.9-3V2.2l-0.8-0.8H2.7L1.9,2.2v5.4l-1.9,3H17z M13.6,2.9v3.8
		c-1-0.3-2.7-0.6-5.1-0.6c-2.4,0-4.1,0.3-5.1,0.6V2.9H13.6z M13.6,2.9"/>
	<path id="XMLID_301_" class="st5" d="M0,12v1.5h1.8v2.1h1.5v-2.1h10.4v2.1h1.5v-2.1H17V12H0z M0,12"/>
	<path id="XMLID_298_" class="st5" d="M7.9,5.4V4.5c0-0.5-0.8-1-1.7-1S4.5,4,4.5,4.5v1.3c0,0,1-0.3,1.7-0.3C6.8,5.5,7.9,5.4,7.9,5.4
		L7.9,5.4z M7.9,5.4"/>
	<path id="XMLID_295_" class="st5" d="M12.5,5.8V4.5c0-0.5-0.8-1-1.7-1S9.1,4,9.1,4.5v0.9c0,0,1.1,0.1,1.7,0.1
		C11.5,5.6,12.5,5.8,12.5,5.8L12.5,5.8z M12.5,5.8"/>
</g>
</svg>
