<?xml version="1.0" encoding="utf-8"?>
<!-- Generator: Adobe Illustrator 21.0.2, SVG Export Plug-In . SVG Version: 6.00 Build 0)  -->
<svg version="1.1" xmlns="http://www.w3.org/2000/svg" xmlns:xlink="http://www.w3.org/1999/xlink" x="0px" y="0px"
	 viewBox="0 0 20 20" style="enable-background:new 0 0 20 20;" xml:space="preserve">
<style type="text/css">
	.st0{fill:#FFFFFF;}
	.st1{clip-path:url(#SVGID_2_);}
	.st2{clip-path:url(#SVGID_4_);}
	.st3{clip-path:url(#SVGID_6_);}
	.st4{clip-path:url(#SVGID_8_);fill-rule:evenodd;clip-rule:evenodd;fill:#121111;}
	.st5{clip-path:url(#SVGID_10_);fill-rule:evenodd;clip-rule:evenodd;}
</style>
<g id="Слой_1">
	<g>
		<path d="M0.4,8.4C0.1,8.6,0.1,8,0.1,7.9c0,0,0,0,0.1,0C0.1,7.6,0,7.4,0,7.1c0.1,0,0.2,0,0.2,0c0-0.2,0-0.3,0.1-0.4
			C0.2,6.3,0.4,6.2,0.5,6C0.7,5.8,0.9,5.5,1,5.2c0.1-0.4,0-1.7,0.3-1.8c0,0,0,0.1,0,0.1c0.4-0.1,0.5,0.2,0.3,0.5
			C1.9,4,2,3.7,1.9,3.4c0.5,0,1.2,0.3,1.7,0.5c0.7,0.2,1.4,0.3,2.1,0.5c0.4,0.1,0.7,0.3,1.1,0.3c0.4,0.1,0.9,0,1.4,0.1
			C8.7,4.9,9.1,5,9.6,5c0.3,0,0.8,0.2,1-0.1C10.7,5,10.7,5,10.7,5.2c0.6,0.1,1.1,0.3,1.7,0.4c-0.3,0.3-0.6,0.3-0.7,0.7
			c0.1-0.1,0.3-0.2,0.4-0.2c0,0,0,0.1,0,0.1c0.4,0.1,0.7-0.3,0.9-0.3C13,6,13,6.1,13,6.2c0.3,0.1,0.5-0.1,0.7-0.1
			c0.3,0,0.5,0.2,0.8,0.2c-0.2,0.2-0.3,0.1-0.5,0.1c-0.2,0.1-0.3,0.2-0.4,0.3c0,0-0.1-0.1-0.1-0.1C13.2,6.8,13.1,7,13,7.2
			c0-0.1,0.1-0.1,0.2-0.2c0,0.4-0.2,0.9-0.1,1.3c0,0.2,0.2,0.4,0.4,0.3c0.1-0.1,0.1-0.5,0.1-0.7c-0.3-0.1-0.1-0.8-0.1-1
			c0,0,0.1,0.1,0.1,0.1c0.1-0.2,0.3-0.4,0.6-0.3c0.4,0.2,0.1,0.5,0.1,0.8c0,0,0.1-0.1,0.1-0.1c0,0,0.1,0,0.2,0c0,0.2,0.1,0.4,0,0.6
			c0,0.2-0.2,0.3-0.1,0.5c0.3-0.1,1.5-0.3,1.3-0.9c0.4-0.3,0.9-0.2,1.3-0.5C17.1,7.2,17,7.1,17,7c0.4-0.4,0.9-0.8,1.5-1
			c0,0.1,0,0.2,0,0.3c0.4-0.1,0.4-0.4,0.5-0.8c0,0,0-0.4,0-0.5c0.1-0.2,0.3,0,0.5-0.1c0,0.2,0.1,0.3,0.1,0.5c0.1,0,0.2,0,0.3-0.1
			c-0.1,0.1-0.1,0.2-0.1,0.3C20.1,5.7,20,6,19.9,6.2c-0.2,0.2-0.5,0.1-0.5,0.5c-0.4,0-0.4,0.8-0.2,0.9c0.5-0.1,0,0.3-0.1,0.3
			c-0.2,0.1-0.4,0.2-0.6,0.4c-0.3,0.2-0.2,0.3-0.3,0.6c0,0.2-0.1,0.6-0.4,0.4c0.1,0.2,0.2,0.3,0.3,0.5c0,0.2,0,0.5-0.2,0.7
			c-0.2-0.1-0.1-0.4-0.2-0.5c-0.1-0.2-0.2-0.3-0.3-0.4c-0.2,0.2,0.2,0.7,0.2,0.9c0,0,0.1,0,0.1,0c0,0.1,0,0.2,0,0.2c0,0,0.1,0,0.1,0
			c0,0.1-0.1,0.2-0.2,0.2c0,0,0,0.1,0,0.1c0.1,0,0.3,0,0.4-0.1c-0.1,0.2-0.2,0.5-0.4,0.3c-0.1,0.1-0.1,0.2,0.1,0.3
			c-0.3,0.2-0.5,0.4-0.6,0.6c-0.1,0.2-0.5,0.7-0.8,0.6c0,0.1,0,0.1,0,0.1c0,0-0.1,0-0.1,0c0,0.2-0.2,0.2-0.2,0.3c0,0.1,0,0.4,0,0.5
			c0,0.3,0.1,0.4,0.1,0.6c0,0.1,0.2,0.1,0,0.3c0,0,0.1,0,0.1,0c0.1,0.2,0.3,0.4,0.3,0.7c0,0,0.1,0,0.1,0c0.1,0.2,0.1,0.9-0.1,1
			c-0.3,0.2-0.7-0.4-0.6-0.6c-0.4-0.1-0.5-0.6-0.3-0.9c0,0-0.1,0-0.1,0c0-0.1-0.2-0.4-0.4-0.4c-0.3-0.2-0.3,0-0.6,0.1
			c-0.2-0.2-0.8-0.3-0.7-0.5c-0.1,0.1-0.3,0.2-0.4,0.2c0-0.1,0-0.1,0-0.2c-0.1,0.1-0.1,0-0.2,0.1c-0.1,0.1-0.8,0.2-0.8,0.1
			c0.1,0,0.3,0.1,0.4,0.1c-0.1,0.1,0,0.1-0.1,0.2c0.1,0,0.1,0.1,0.2,0.2c-0.1,0-0.2,0-0.3,0c0,0,0-0.1,0-0.1
			c-0.1,0.1-0.3,0.1-0.5,0.1c-0.1-0.1-0.1-0.1-0.2-0.2c-0.4-0.1-0.9-0.2-1.3,0c0-0.1,0-0.1,0-0.2c-0.1,0.1-0.2,0.2-0.1,0.4
			c-0.2,0.2-0.6,0.2-0.7,0.5c-0.4,0-0.4,0.8-0.2,1c-0.2,0-0.9-0.2-1-0.4c-0.1-0.1,0-0.4-0.1-0.5c-0.1-0.2-0.2-0.2-0.5-0.3
			c0.1-0.3,0-0.6-0.3-0.8c-0.2-0.2-0.6-0.3-0.7,0.1c-0.1,0-0.2-0.1-0.3-0.1c0-0.2-0.2-0.3-0.3-0.5c-0.1-0.2-0.1-0.3-0.2-0.5
			c-0.3-0.4-0.7-0.3-1.1-0.5c-0.1,0.1-0.8,0-1-0.1c-0.4-0.1-0.6-0.4-0.9-0.5c-0.2-0.1-0.4-0.3-0.7-0.4c-0.3-0.1-0.7,0-1-0.1
			c0.3-0.5-0.1-0.7-0.5-1c0.1-0.1,0.1-0.2,0.1-0.4c-0.1,0-0.2,0-0.3,0c0,0,0-0.1,0-0.1C0.4,10.3,0.3,9.3,0.4,9
			C0.3,9,0.2,8.9,0.3,8.7c0,0,0.1,0,0.1,0C0.4,8.6,0.4,8.5,0.4,8.4c0,0.1,0,0.1,0,0.2"/>
	</g>
</g>
<g id="Слой_2">
</g>
<g id="Слой_3">
</g>
</svg>
