<?xml version="1.0" encoding="utf-8"?>
<!-- Generator: Adobe Illustrator 21.0.0, SVG Export Plug-In . SVG Version: 6.00 Build 0)  -->
<svg version="1.1" id="Слой_1" xmlns="http://www.w3.org/2000/svg" xmlns:xlink="http://www.w3.org/1999/xlink" x="0px" y="0px"
	 viewBox="0 0 19.2 18.7" style="enable-background:new 0 0 19.2 18.7;" xml:space="preserve">
<path d="M17.8,8h-13l5.6-5.6c0.5-0.5,0.5-1.4,0-2c-0.5-0.5-1.4-0.5-2,0l-8,8c-0.5,0.5-0.5,1.4,0,2l8,8c0.3,0.3,0.6,0.4,1,0.4
	c0.4,0,0.7-0.1,1-0.4c0.5-0.5,0.5-1.4,0-2l-5.6-5.6h13c0.8,0,1.4-0.6,1.4-1.4C19.2,8.6,18.6,8,17.8,8z"/>
</svg>
