<?xml version="1.0" encoding="utf-8"?>
<!-- Generator: Adobe Illustrator 21.0.0, SVG Export Plug-In . SVG Version: 6.00 Build 0)  -->
<svg version="1.1" id="Слой_1" xmlns="http://www.w3.org/2000/svg" xmlns:xlink="http://www.w3.org/1999/xlink" x="0px" y="0px"
	 viewBox="0 0 16.9 16.9" style="enable-background:new 0 0 16.9 16.9;" xml:space="preserve">
<style type="text/css">
	.st0{fill:#020400;}
</style>
<g>
	<path id="XMLID_206_" class="st0" d="M2.4,12.8c0-0.4,0-0.8,0-1.1c0-0.4-0.1-0.7-0.4-1c-0.6-0.6-1.2-1.3-1.8-1.9
		c-0.2-0.2-0.2-0.4,0-0.6c0.7-0.6,1.3-1.3,2-1.9c0.2-0.2,0.2-0.4,0.2-0.7c0-0.9,0-1.8,0-2.6c0-0.5,0-0.5,0.5-0.5
		c0.7,0,1.5-0.1,2.2,0s1.1-0.2,1.5-0.7c0.5-0.5,1-1,1.5-1.6c0.2-0.2,0.4-0.2,0.6,0c0.6,0.7,1.3,1.3,1.9,2c0.2,0.2,0.3,0.3,0.6,0.3
		c1,0,1.9,0,2.9,0c0.3,0,0.4,0.1,0.4,0.4c0,0.9,0,1.9,0,2.8c0,0.3,0.1,0.4,0.3,0.6c0.7,0.6,1.3,1.3,2,1.9c0.2,0.2,0.2,0.4,0,0.6
		c-0.7,0.7-1.3,1.3-2,2c-0.2,0.2-0.2,0.3-0.2,0.5c0,1,0,1.9,0,2.9c0,0.3-0.1,0.4-0.4,0.4c-0.9,0-1.9,0-2.8,0c-0.2,0-0.4,0.1-0.6,0.2
		c-0.7,0.7-1.3,1.3-2,2c-0.2,0.2-0.3,0.2-0.5,0c-0.7-0.7-1.3-1.3-2-2c-0.2-0.2-0.3-0.2-0.6-0.2c-0.9,0-1.9,0-2.8,0
		c-0.3,0-0.4-0.1-0.4-0.4C2.4,13.7,2.4,13.3,2.4,12.8L2.4,12.8z M12.6,5.8c0-0.5,0-0.8,0-1.2c0-0.2-0.1-0.3-0.3-0.3
		c-0.6,0-1.2,0-1.7,0c-0.3,0-0.6-0.1-0.8-0.3C9.3,3.5,8.9,3.1,8.6,2.8c-0.1-0.1-0.2-0.1-0.3,0C7.8,3.1,7.4,3.5,7,4
		C6.8,4.2,6.6,4.4,6.3,4.4c-0.6,0-1.1,0-1.7,0c-0.3,0-0.3,0.1-0.3,0.3c0,0.6,0,1.2,0,1.9c0,0.2,0,0.3-0.2,0.4
		C3.7,7.4,3.2,7.9,2.8,8.3c-0.1,0.1-0.2,0.2,0,0.4C3.2,9.2,3.5,9.6,4,10.1c0.2,0.1,0.2,0.3,0.2,0.5c0,0.6,0,1.2,0,1.8
		c0,0.3,0.1,0.3,0.4,0.3c0.6,0,1.2,0,1.9,0c0.2,0,0.3,0.1,0.4,0.2c0.5,0.5,0.9,0.9,1.4,1.4c0.1,0.1,0.2,0.1,0.3,0
		c0.4-0.5,0.9-0.9,1.4-1.4c0.1-0.1,0.3-0.2,0.5-0.2c0.6,0,1.2,0,1.8,0c0.3,0,0.3-0.1,0.3-0.4c0-0.6,0-1.2,0-1.8
		c0-0.2,0.1-0.4,0.2-0.5c0.5-0.4,0.9-0.9,1.3-1.3c0.2-0.2,0.1-0.3,0-0.4c-0.2-0.2-0.4-0.4-0.6-0.6C12.8,7.2,12.3,6.6,12.6,5.8
		L12.6,5.8z"/>
	<path id="XMLID_199_" class="st0" d="M8.3,13.4c-0.4-0.4-0.8-0.9-1.2-1.3C7,12.1,6.8,12,6.7,12c-0.5,0-1,0-1.4,0
		C5,12,5,11.9,5,11.7c0-0.5,0-0.9,0-1.4c0-0.2-0.1-0.4-0.3-0.6C4.4,9.4,4,9,3.7,8.7c-0.2-0.1-0.1-0.2,0-0.4c0.3-0.3,0.7-0.7,1-1
		c0.1-0.1,0.2-0.2,0.2-0.5c0-0.5,0-0.9,0-1.4C4.8,5.1,5,5.1,5.3,5.1c0.5,0,1,0,1.4,0c0.2,0,0.3,0,0.4-0.2c0.3-0.4,0.7-0.7,1-1
		c0.2-0.2,0.3-0.2,0.5,0c0.3,0.3,0.7,0.7,1,1C9.8,5,9.9,5.1,10.1,5.1c0.5,0,1,0,1.5,0c0.2,0,0.3,0.1,0.3,0.3c0,0.5,0,1,0,1.5
		c0,0.2,0.1,0.3,0.2,0.5c0.4,0.3,0.7,0.7,1.1,1c0.2,0.2,0.2,0.3,0,0.4c-0.4,0.3-0.7,0.7-1,1c-0.1,0.1-0.2,0.3-0.2,0.5
		c0,0.5,0,1,0,1.4c0,0.2-0.1,0.3-0.3,0.3c-0.4,0-0.8,0-1.1,0c-0.5-0.1-0.8,0.1-1.1,0.4C9.1,12.8,8.8,13.1,8.3,13.4L8.3,13.4z
		 M6.8,7.9c-0.2,0-0.3,0-0.3,0C5.9,7.8,5.6,8.1,5.3,8.4c-0.1,0.1-0.2,0.2,0,0.3c0.3,0.3,0.6,0.6,1.1,0.5c0.1,0,0.2,0,0.3,0.1
		C6.6,9.4,6.5,9.4,6.3,9.7C6.2,9.9,6,10.6,6.2,10.8l0.1,0.1c0.3-0.1,0.7,0.1,1-0.2c0.2-0.1,0.3-0.4,0.5-0.4c0,0.1,0,0.2,0,0.3
		c-0.1,0.5,0.2,0.9,0.5,1.2c0.1,0.1,0.1,0.1,0.2,0c0.3-0.3,0.6-0.6,0.5-1.2c0-0.1,0-0.2,0.1-0.2s0.2,0.1,0.2,0.2
		c0.3,0.5,0.7,0.4,1.2,0.4c0.2,0,0.2-0.1,0.2-0.2c0-0.4,0-0.9-0.5-1.2C10,9.6,10,9.5,10,9.3c0.5,0.1,1,0,1.3-0.4
		c0.1-0.2,0.2-0.2,0-0.4C11,8.2,10.7,7.9,10.2,8C10.1,8,10,8.1,9.9,7.9c0.4-0.3,0.7-0.7,0.6-1.3c0-0.2,0-0.2-0.2-0.2
		c-0.5,0-0.9,0-1.2,0.5C9.1,7,9,7.1,8.9,7c0-0.2,0-0.3,0-0.5c0.1-0.5-0.3-0.7-0.6-1c-0.1-0.1-0.1,0-0.2,0C7.8,5.8,7.5,6,7.6,6.5
		c0,0.1,0.1,0.3,0,0.5C7.5,6.9,7.5,6.7,7.4,6.6C7.1,6.4,6.5,6.2,6.3,6.3c-0.1,0-0.1,0.1-0.1,0.2c0,0.4-0.1,0.8,0.3,1
		C6.6,7.6,6.6,7.7,6.8,7.9L6.8,7.9z"/>
	<path id="XMLID_194_" class="st0" d="M8.6,9.9c-0.9,0-1.6-0.6-1.6-1.2c0-0.4-0.2-0.8,0.2-1.1c0.3-0.2,0.5-0.7,1-0.6
		c0.4,0,0.8-0.2,1,0.1c0.3,0.4,0.8,0.5,0.7,1.1c0,0.4,0.1,0.9-0.3,1.2C9.3,9.8,8.9,10.2,8.6,9.9L8.6,9.9z"/>
</g>
</svg>
