<?xml version="1.0" encoding="utf-8"?>
<!-- Generator: Adobe Illustrator 21.0.0, SVG Export Plug-In . SVG Version: 6.00 Build 0)  -->
<svg version="1.1" id="Слой_1" xmlns="http://www.w3.org/2000/svg" xmlns:xlink="http://www.w3.org/1999/xlink" x="0px" y="0px"
	 viewBox="0 0 20 20" style="enable-background:new 0 0 20 20;" xml:space="preserve">
<path d="M1.9,12c0,0.1,0.2,0.2,0.3,0.2c1.5,0.6,2.9,1.6,4.6,0.6c0.3-0.2,1.7-0.2,1.1,1.1c-0.3,0.6,0.4,0.8,0.6,1.2
	C8.7,15.4,9,15.3,9.4,15c0.9-0.6,1.6-0.1,2.1,1c0,0.1,0.2,0.2,0.3,0.2c0.2,0,0.4-0.1,0.4-0.2c0-1,0.9-1,1.6-1.2
	c1.5-0.5,2.6-2.5,1.9-3.6c-0.5-0.8-0.5-1.3,0.5-1.7c-0.3-0.1-0.5-0.2-0.6-0.3c-0.3-0.1-0.8,0.2-0.7-0.3c0-0.2,0.4-0.9,0.8-0.1
	c0,0,0.2,0,0.3,0c1.7-0.8,3.4-1.6,4.1-3.7c-1.4,0.2-2.1-0.4-2.7-1.4C17,2.9,15.8,2.5,15.3,3c-0.4,0.5-0.3,1.2-1.1,1.5
	c-1.1,0.4-0.5,0.8,0,1.2c-0.1,0.1-0.1,0.1-0.2,0.2c-1,0.5-1.9,1.3-3,1.6C9.8,7.9,8.3,7.7,6.9,6.8c-0.5-0.3-1-0.6-1.4-1.3
	c-0.5-0.8-3,0-3.2,1.2S1.4,8.1,0.6,8.3c-0.5,0.1-0.7,0.4-0.4,1C0.7,10.2,2,10.7,1.9,12L1.9,12z"/>
</svg>
