<?xml version="1.0" encoding="utf-8"?>
<!-- Generator: Adobe Illustrator 21.0.0, SVG Export Plug-In . SVG Version: 6.00 Build 0)  -->
<svg version="1.1" id="Слой_1" xmlns="http://www.w3.org/2000/svg" xmlns:xlink="http://www.w3.org/1999/xlink" x="0px" y="0px"
	 viewBox="0 0 28.8 25.6" style="enable-background:new 0 0 28.8 25.6;" xml:space="preserve">
<style type="text/css">
	.st0{fill-rule:evenodd;clip-rule:evenodd;}
</style>
<g>
	<g>
		<path class="st0" d="M28.5,22l-12-20.8C16.1,0.5,15.3,0,14.4,0c-0.9,0-1.7,0.5-2.1,1.2L0.3,22C0.1,22.4,0,22.8,0,23.2
			c0,1.3,1.1,2.4,2.4,2.4h24c1.3,0,2.4-1.1,2.4-2.4C28.8,22.8,28.7,22.4,28.5,22L28.5,22z M2.4,23.2l12-20.8l0,0l12,20.8L2.4,23.2z
			 M14.4,17.6c-0.9,0-1.6,0.7-1.6,1.6c0,0.9,0.7,1.6,1.6,1.6c0.9,0,1.6-0.7,1.6-1.6C16,18.3,15.3,17.6,14.4,17.6L14.4,17.6z
			 M12.8,10.4c0,0.1,0,0.2,0,0.3l0.8,4.7c0.1,0.4,0.4,0.7,0.8,0.7c0.4,0,0.7-0.3,0.8-0.7l0.8-4.7c0-0.1,0-0.2,0-0.3
			c0-0.9-0.7-1.6-1.6-1.6C13.5,8.8,12.8,9.5,12.8,10.4L12.8,10.4z M12.8,10.4"/>
	</g>
</g>
</svg>
