<?xml version="1.0" encoding="utf-8"?>
<!-- Generator: Adobe Illustrator 21.0.2, SVG Export Plug-In . SVG Version: 6.00 Build 0)  -->
<svg version="1.1" xmlns="http://www.w3.org/2000/svg" xmlns:xlink="http://www.w3.org/1999/xlink" x="0px" y="0px"
	 viewBox="0 0 20 20" style="enable-background:new 0 0 20 20;" xml:space="preserve">
<style type="text/css">
	.st0{fill:none;}
</style>
<g id="Слой_1">
	<g id="XMLID_371_">
		<path id="XMLID_397_" d="M10,4.9c-2.8,0-5,2.3-5,5c0,2.8,2.3,5,5,5c2.8,0,5-2.3,5-5C15,7.2,12.8,4.9,10,4.9L10,4.9z M10,4.9"/>
		<path id="XMLID_394_" d="M10,3.5c-0.5,0-1-0.4-1-1V0.9c0-0.5,0.4-1,1-1c0.5,0,1,0.4,1,1v1.6C11,3,10.6,3.5,10,3.5L10,3.5z M10,3.5
			"/>
		<path id="XMLID_391_" d="M10,16.4c-0.5,0-1,0.4-1,1V19c0,0.5,0.4,1,1,1c0.5,0,1-0.4,1-1v-1.6C11,16.9,10.6,16.4,10,16.4L10,16.4z
			 M10,16.4"/>
		<path id="XMLID_388_" d="M14.6,5.4c-0.4-0.4-0.4-1,0-1.4l1.1-1.1c0.4-0.4,1-0.4,1.4,0c0.4,0.4,0.4,1,0,1.4L16,5.4
			C15.6,5.7,15,5.7,14.6,5.4L14.6,5.4z M14.6,5.4"/>
		<path id="XMLID_385_" d="M5.4,14.5c-0.4-0.4-1-0.4-1.4,0l-1.1,1.1c-0.4,0.4-0.4,1,0,1.4c0.4,0.4,1,0.4,1.4,0l1.1-1.1
			C5.8,15.6,5.8,14.9,5.4,14.5L5.4,14.5z M5.4,14.5"/>
		<path id="XMLID_382_" d="M16.5,10c0-0.5,0.4-1,1-1h1.6c0.5,0,1,0.4,1,1c0,0.5-0.4,1-1,1h-1.6C16.9,10.9,16.5,10.5,16.5,10L16.5,10
			z M16.5,10"/>
		<path id="XMLID_378_" d="M3.5,10c0-0.5-0.4-1-1-1H1c-0.5,0-1,0.4-1,1c0,0.5,0.4,1,1,1h1.6C3.1,10.9,3.5,10.5,3.5,10L3.5,10z
			 M3.5,10"/>
		<path id="XMLID_375_" d="M14.6,14.5c0.4-0.4,1-0.4,1.4,0l1.1,1.1c0.4,0.4,0.4,1,0,1.4c-0.4,0.4-1,0.4-1.4,0l-1.1-1.1
			C14.2,15.6,14.2,14.9,14.6,14.5L14.6,14.5z M14.6,14.5"/>
		<path id="XMLID_372_" d="M5.4,5.4c0.4-0.4,0.4-1,0-1.4L4.3,2.9c-0.4-0.4-1-0.4-1.4,0c-0.4,0.4-0.4,1,0,1.4L4,5.4
			C4.4,5.7,5,5.7,5.4,5.4L5.4,5.4z M5.4,5.4"/>
	</g>
</g>
<g id="Слой_2">
</g>
<g id="Слой_3">
</g>
</svg>
