<?xml version="1.0" encoding="utf-8"?>
<!-- Generator: Adobe Illustrator 21.0.2, SVG Export Plug-In . SVG Version: 6.00 Build 0)  -->
<svg version="1.1" xmlns="http://www.w3.org/2000/svg" xmlns:xlink="http://www.w3.org/1999/xlink" x="0px" y="0px"
	 viewBox="0 0 20 20" style="enable-background:new 0 0 20 20;" xml:space="preserve">
<style type="text/css">
	.st0{fill:none;}
</style>
<g id="Слой_1">
	<g id="XMLID_247_">
		<g id="XMLID_153_">
			<path id="XMLID_196_" d="M7.4,5.8V0.7C7.4,0.3,7.1,0,6.7,0H4C3.7,0,3.4,0.3,3.4,0.7v5.1C2.3,6.4,1.6,7.7,1.6,9v10.3
				c0,0.4,0.3,0.7,0.7,0.7h6.2c0.4,0,0.7-0.3,0.7-0.7V9C9.2,7.7,8.5,6.4,7.4,5.8L7.4,5.8z M6,1.4v1.9H4.7V1.4H6z M4.3,6.8
				c0.2-0.1,0.4-0.3,0.4-0.6V4.6H6v1.5c0,0.3,0.1,0.5,0.4,0.6C7.3,7.2,7.8,8,7.8,9v1.3H2.9V9C2.9,8,3.5,7.2,4.3,6.8L4.3,6.8z
				 M7.8,14.7H2.9v-3.2h4.9V14.7z M2.9,18.6v-2.5h4.9v2.5H2.9z M2.9,18.6"/>
		</g>
		<g id="XMLID_48_">
			<g id="XMLID_54_">
				<path id="XMLID_74_" d="M18.3,12.8c-0.1-0.1-0.2-0.1-0.3-0.1h-6.8c-0.1,0-0.2,0-0.3,0.1c-0.1,0.1-0.1,0.2-0.1,0.3l1.1,6.6
					c0,0.2,0.2,0.3,0.4,0.3h4.6c0.2,0,0.3-0.1,0.4-0.3l1.1-6.6C18.4,13,18.4,12.9,18.3,12.8L18.3,12.8z M13.2,18.6L13,18l3.2,0
					l-0.1,0.6L13.2,18.6z M16.4,16.7h-3.6l-0.4-2.6l4.5,0L16.4,16.7z M16.4,16.7"/>
			</g>
		</g>
	</g>
</g>
<g id="Слой_2">
</g>
<g id="Слой_3">
</g>
</svg>
