<?xml version="1.0" encoding="utf-8"?>
<!-- Generator: Adobe Illustrator 21.0.2, SVG Export Plug-In . SVG Version: 6.00 Build 0)  -->
<svg version="1.1" xmlns="http://www.w3.org/2000/svg" xmlns:xlink="http://www.w3.org/1999/xlink" x="0px" y="0px"
	 viewBox="0 0 20 20" style="enable-background:new 0 0 20 20;" xml:space="preserve">
<g id="Слой_1">
	<g id="XMLID_438_">
		<path id="XMLID_446_" d="M5,8.1L4.6,8.3C4.5,8.4,4.4,8.6,4.5,8.8l0,0C4.6,8.9,4.8,9,5,8.9l0.4-0.3c0.1-0.1,0.2-0.3,0.1-0.4l0,0
			C5.4,8,5.2,8,5,8.1z"/>
		<path id="XMLID_445_" d="M6.2,7.2L5.8,7.5C5.7,7.6,5.6,7.8,5.7,7.9l0,0C5.8,8.1,6,8.1,6.2,8l0.4-0.3c0.1-0.1,0.2-0.3,0.1-0.4l0,0
			C6.6,7.1,6.4,7.1,6.2,7.2z"/>
		<path id="XMLID_444_" d="M7.4,6.4L7,6.6C6.9,6.7,6.8,6.9,6.9,7.1l0,0C7,7.2,7.2,7.3,7.4,7.2l0.4-0.3C7.9,6.8,8,6.6,7.9,6.4l0,0
			C7.7,6.3,7.6,6.3,7.4,6.4z"/>
		<path id="XMLID_443_" d="M8.6,5.5L8.2,5.8C8,5.9,8,6.1,8.1,6.2l0,0c0.1,0.1,0.3,0.2,0.4,0.1L9,6C9.1,5.9,9.1,5.7,9,5.6l0,0
			C8.9,5.5,8.7,5.4,8.6,5.5z"/>
		<path id="XMLID_442_" d="M9.8,4.7L9.4,5C9.2,5.1,9.2,5.3,9.3,5.4l0,0c0.1,0.1,0.3,0.2,0.4,0.1l0.4-0.3c0.1-0.1,0.2-0.3,0.1-0.4
			l0,0C10.1,4.6,9.9,4.6,9.8,4.7z"/>
		<path id="XMLID_441_" d="M11,3.8l-0.4,0.3c-0.1,0.1-0.2,0.3-0.1,0.4l0,0c0.1,0.1,0.3,0.2,0.4,0.1l0.4-0.3c0.1-0.1,0.2-0.3,0.1-0.4
			l0,0C11.3,3.8,11.1,3.7,11,3.8z"/>
		<path id="XMLID_440_" d="M12.2,3l-0.4,0.3c-0.1,0.1-0.2,0.3-0.1,0.4l0,0c0.1,0.1,0.3,0.2,0.4,0.1l0.4-0.3c0.1-0.1,0.2-0.3,0.1-0.4
			l0,0C12.5,2.9,12.3,2.9,12.2,3z"/>
		<path id="XMLID_439_" d="M13.4,2.1l-0.4,0.3c-0.1,0.1-0.2,0.3-0.1,0.4l0,0C13,3,13.2,3,13.3,3l0.4-0.3c0.1-0.1,0.2-0.3,0.1-0.4
			l0,0C13.7,2.1,13.5,2,13.4,2.1z"/>
	</g>
	<g id="XMLID_431_">
		<path id="XMLID_437_" d="M9.5,9.3L9.1,9.7C9,9.8,9.1,10,9.2,10.1l0,0c0.1,0.1,0.3,0.1,0.4-0.1L10,9.6c0.1-0.1,0.1-0.3-0.1-0.4l0,0
			C9.8,9.1,9.6,9.1,9.5,9.3z"/>
		<path id="XMLID_436_" d="M10.4,8.1l-0.3,0.4C9.9,8.6,10,8.8,10.1,8.9l0,0C10.3,9,10.4,9,10.6,8.9l0.3-0.4C11,8.3,10.9,8.1,10.8,8
			l0,0C10.7,7.9,10.5,8,10.4,8.1z"/>
		<path id="XMLID_435_" d="M11.2,6.9l-0.3,0.4c-0.1,0.1-0.1,0.3,0.1,0.4l0,0c0.1,0.1,0.3,0.1,0.4-0.1l0.3-0.4
			c0.1-0.1,0.1-0.3-0.1-0.4l0,0C11.5,6.8,11.3,6.8,11.2,6.9z"/>
		<path id="XMLID_434_" d="M12.1,5.8l-0.3,0.4c-0.1,0.1-0.1,0.3,0.1,0.4l0,0c0.1,0.1,0.3,0.1,0.4-0.1l0.3-0.4
			c0.1-0.1,0.1-0.3-0.1-0.4l0,0C12.4,5.6,12.2,5.6,12.1,5.8z"/>
		<path id="XMLID_433_" d="M13,4.6L12.7,5c-0.1,0.1-0.1,0.3,0.1,0.4l0,0c0.1,0.1,0.3,0.1,0.4-0.1L13.5,5c0.1-0.1,0.1-0.3-0.1-0.4
			l0,0C13.3,4.5,13.1,4.5,13,4.6z"/>
		<path id="XMLID_432_" d="M13.9,3.5l-0.3,0.4c-0.1,0.1-0.1,0.3,0.1,0.4l0,0c0.1,0.1,0.3,0.1,0.4-0.1l0.3-0.4
			c0.1-0.1,0.1-0.3-0.1-0.4l0,0C14.2,3.3,14,3.3,13.9,3.5z"/>
	</g>
	<g id="XMLID_420_">
		<path id="XMLID_427_" d="M14.9,8.9l0,0.5c0,0.2,0.1,0.3,0.3,0.3l0,0c0.2,0,0.3-0.1,0.3-0.3l0-0.5c0-0.2-0.1-0.3-0.3-0.3l0,0
			C15,8.6,14.8,8.7,14.9,8.9z"/>
		<path id="XMLID_426_" d="M14.8,7.5l0,0.5c0,0.2,0.1,0.3,0.3,0.3l0,0c0.2,0,0.3-0.1,0.3-0.3l0-0.5c0-0.2-0.1-0.3-0.3-0.3l0,0
			C14.9,7.1,14.8,7.3,14.8,7.5z"/>
		<path id="XMLID_425_" d="M14.8,6l0,0.5c0,0.2,0.1,0.3,0.3,0.3l0,0c0.2,0,0.3-0.1,0.3-0.3l0-0.5c0-0.2-0.1-0.3-0.3-0.3l0,0
			C14.9,5.7,14.8,5.8,14.8,6z"/>
		<path id="XMLID_421_" d="M14.7,4.5l0,0.5c0,0.2,0.1,0.3,0.3,0.3l0,0c0.2,0,0.3-0.1,0.3-0.3l0-0.5c0-0.2-0.1-0.3-0.3-0.3l0,0
			C14.9,4.2,14.7,4.4,14.7,4.5z"/>
	</g>
	<path d="M19.7,19.1h-3.2v-0.8c0.8-0.1,1.2-0.6,1.4-1.4c0.3-1.1,1.2-4.5,1.2-4.5h0c0.5,0,0.9-0.4,0.9-0.9c0-0.5-0.4-0.9-0.9-0.9
		h-0.4V1.2c0,0,0.1-0.9-0.8-0.9c-0.6,0-1.2,0.3-1.6,0.8c-0.7-0.6-1.7-0.6-2.5-0.1c-0.1,0.1-0.4,0.4-0.5,0.4l2.9,2.9
		c0.1-0.1,0.5-0.4,0.7-1c0.2-0.6,0.2-1.3-0.2-1.9c0.3-0.4,0.7-0.6,1.1-0.6c0.2,0,0.2,0.2,0.2,0.3c0,0.9,0,9.4,0,9.4H8V9.7H3.7v0.8
		H0.9C0.4,10.6,0,11,0,11.5v0c0,0.5,0.4,0.9,0.9,0.9h0c0,0,0.9,3.4,1.2,4.4c0.2,0.8,0.7,1.5,1.4,1.5v0.8H0.3c-0.2,0-0.3,0.1-0.3,0.3
		c0,0.2,0.1,0.3,0.3,0.3h3.4h0.6h0.1h0.7h9.8h0.6h0.1h0.6h3.3c0.2,0,0.3-0.1,0.3-0.3C20,19.3,19.8,19.1,19.7,19.1z M16.2,3.4l-1.9-2
		C15.4,0.9,16,1.6,16,1.7C16.5,2.1,16.5,2.9,16.2,3.4z M8,11.1h11.1c0.2,0,0.3,0.1,0.3,0.3s-0.1,0.3-0.3,0.3H8V11.1z M4.3,11.1v-0.6
		v-0.2h3.1v0.2v0.6v0.6v0.6h0v1.5H4.3v-2.1h0v-0.1V11.1z M7.4,14.5v0.8H4.3l0-0.8H7.4z M0.6,11.5c0-0.2,0.1-0.3,0.3-0.3h2.7v0.6H0.9
		C0.8,11.8,0.6,11.6,0.6,11.5z M4.7,19.1H4.3H4.2v-0.8l0.9,0L4.7,19.1z M14.6,19.1H5.5H5.4l0.4-0.8l8.5,0l0.4,0.8H14.6z M15.9,19.1
		h-0.2h-0.3L15,18.3l0.9,0V19.1z M3.6,17.7c-0.5,0-0.8-0.4-0.9-0.9c-0.1-0.3-0.3-1.2-0.3-1.2l-0.9-3.2h2.2v0h0v3.6h0v0H8l0-3.6h10.5
		c0,0-0.9,3.3-1.2,4.4c-0.1,0.5-0.4,0.9-0.9,0.9L3.6,17.7z"/>
</g>
<g id="Слой_2">
</g>
<g id="Слой_3">
</g>
</svg>
