<?xml version="1.0" encoding="utf-8"?>
<!-- Generator: Adobe Illustrator 21.0.2, SVG Export Plug-In . SVG Version: 6.00 Build 0)  -->
<svg version="1.1" id="Слой_1" xmlns="http://www.w3.org/2000/svg" xmlns:xlink="http://www.w3.org/1999/xlink" x="0px" y="0px"
	 viewBox="0 0 17 17" style="enable-background:new 0 0 17 17;" xml:space="preserve">
<style type="text/css">
	.st0{fill:#FFFFFF;}
	.st1{fill:#12100B;}
	.st2{clip-path:url(#XMLID_217_);}
	.st3{clip-path:url(#XMLID_218_);}
	.st4{clip-path:url(#XMLID_219_);fill:#12100B;}
	.st5{clip-path:url(#XMLID_220_);fill:#020400;}
	.st6{fill:#020400;}
	.st7{clip-path:url(#XMLID_240_);}
	.st8{clip-path:url(#XMLID_241_);}
	.st9{clip-path:url(#XMLID_244_);fill:#12100B;}
	.st10{clip-path:url(#XMLID_247_);fill:#020400;}
</style>
<path id="XMLID_454_" d="M16.7,14.7c-0.2-0.1-0.4-0.2-0.6-0.2c-0.8,0.1-2,0.2-3.2,0.2c-0.8,0-1.6-0.2-2.3-0.4L8,6.9
	c2.5-0.8,4.5-1.1,5.7-1.2c0.2,0,0.5-0.2,0.6-0.4c0.1-0.2,0.1-0.5,0-0.7c-1.6-3-5-4.6-8.4-3.8L5.8,0.6C5.8,0.4,5.6,0.2,5.4,0.1
	c-0.2-0.1-0.4-0.1-0.6,0l0,0C4.5,0.3,4.3,0.7,4.4,1.1l0.1,0.2C1.4,2.7-0.3,6.1,0.3,9.4c0,0.2,0.2,0.4,0.4,0.5C0.9,10,1.2,10,1.4,9.9
	C2.3,9.3,4,8.3,6.6,7.3l2.2,6.2C7,12.8,5.4,12,3.1,12.4c-1.4,0.2-2.5,1.3-3,1.8C0.1,14.3,0,14.5,0,14.7v1.6C0,16.7,0.3,17,0.7,17
	h15.5c0.4,0,0.7-0.3,0.7-0.7v-1C17,15.1,16.9,14.9,16.7,14.7z"/>
</svg>
