<?xml version="1.0" encoding="utf-8"?>
<!-- Generator: Adobe Illustrator 21.0.2, SVG Export Plug-In . SVG Version: 6.00 Build 0)  -->
<svg version="1.1" xmlns="http://www.w3.org/2000/svg" xmlns:xlink="http://www.w3.org/1999/xlink" x="0px" y="0px"
	 viewBox="0 0 20 20" style="enable-background:new 0 0 20 20;" xml:space="preserve">
<style type="text/css">
	.st0{fill:none;}
</style>
<g id="Слой_1">
	<g id="Layer_1">
		<g id="XMLID_256_">
			<path id="XMLID_280_" d="M18.9,6.7c-0.6,0-1.1,0.5-1.1,1.1v2.7H2.2V5.6c0-0.6-0.5-1.1-1.1-1.1S0,5,0,5.6v8.8
				c0,0.6,0.5,1.1,1.1,1.1s1.1-0.5,1.1-1.1v-1.2h15.6v1.2c0,0.6,0.5,1.1,1.1,1.1S20,15,20,14.4V7.8C20,7.2,19.5,6.7,18.9,6.7z"/>
			<circle id="XMLID_277_" cx="4.6" cy="7.6" r="1.6"/>
			<path id="XMLID_273_" d="M8.1,9.1h7.5c0.8,0,1.4-0.6,1.4-1.4c0-0.8-0.6-1.4-1.4-1.4H8.1C7.3,6.3,6.7,7,6.7,7.7
				C6.7,8.5,7.3,9.1,8.1,9.1z"/>
		</g>
	</g>
</g>
<g id="Слой_2">
</g>
<g id="Слой_3">
</g>
</svg>
