<?xml version="1.0" encoding="utf-8"?>
<!-- Generator: Adobe Illustrator 21.0.0, SVG Export Plug-In . SVG Version: 6.00 Build 0)  -->
<svg version="1.1" id="Слой_1" xmlns="http://www.w3.org/2000/svg" xmlns:xlink="http://www.w3.org/1999/xlink" x="0px" y="0px"
	 viewBox="0 0 285.1 367.5" style="enable-background:new 0 0 285.1 367.5;" xml:space="preserve">
<g>
	<g>
		<path d="M99,323.6c0,0.1,0,0.2,0,0.3c0,24.1,19.5,43.6,43.6,43.6c24.1,0,43.6-19.5,43.6-43.6c0-0.1,0-0.2,0-0.3H99z M99,323.6"/>
		<path d="M281.6,269.2l-39.2-57.6v-71.9c0-48.5-34.5-88.9-80.3-98V19.6c0-10.8-8.8-19.6-19.6-19.6c-10.8,0-19.6,8.8-19.6,19.6v22.1
			c-45.8,9.1-80.3,49.5-80.3,98v71.9L3.4,269.2c-4.1,6.1-4.6,13.9-1.1,20.4c3.4,6.5,10.2,10.5,17.5,10.5h245.5
			c7.3,0,14.1-4.1,17.5-10.5C286.2,283.1,285.8,275.2,281.6,269.2L281.6,269.2z M281.6,269.2"/>
	</g>
</g>
</svg>
