<?xml version="1.0" encoding="utf-8"?>
<!-- Generator: Adobe Illustrator 21.0.2, SVG Export Plug-In . SVG Version: 6.00 Build 0)  -->
<svg version="1.1" id="Слой_1" xmlns="http://www.w3.org/2000/svg" xmlns:xlink="http://www.w3.org/1999/xlink" x="0px" y="0px"
	 viewBox="0 0 17 17" style="enable-background:new 0 0 17 17;" xml:space="preserve">
<style type="text/css">
	.st0{fill:#FFFFFF;}
	.st1{clip-path:url(#XMLID_95_);}
	.st2{fill:#12100B;}
	.st3{clip-path:url(#XMLID_96_);}
	.st4{fill:#211915;}
	.st5{fill:#231F20;}
	.st6{fill:#1E120D;}
	.st7{fill:none;}
</style>
<g id="XMLID_222_">
	<path id="XMLID_231_" d="M11.1,4c0.7,0,1.2-0.5,1.2-1.2c0-0.7-0.5-1.2-1.2-1.2c-0.7,0-1.2,0.5-1.2,1.2C9.9,3.5,10.4,4,11.1,4
		L11.1,4z M13.6,8.8c-1.8,0-3.3,1.5-3.3,3.3c0,1.8,1.5,3.3,3.3,3.3c1.8,0,3.3-1.5,3.3-3.3C16.9,10.3,15.4,8.8,13.6,8.8L13.6,8.8z
		 M13.6,14.4c-1.3,0-2.3-1-2.3-2.3c0-1.3,1-2.3,2.3-2.3c1.3,0,2.3,1,2.3,2.3C15.9,13.4,14.9,14.4,13.6,14.4L13.6,14.4z M10.3,7.4
		l2.8,0c0.5-0.3,0.5-0.9,0-1.2l-2.1,0L9.7,4.1c-0.2-0.3-0.6-0.6-1-0.6c-0.3,0-0.6,0.1-0.8,0.3L5.5,6.3C5.3,6.5,5.1,6.8,5.1,7.1
		c0,0.4,0.2,0.8,0.6,1l2.2,1.3l0,3.3c0.3,0.5,0.8,0.4,1.2,0l0-4.3L7.6,7.3l1.5-1.5L10.3,7.4z M3.4,8.8c-1.8,0-3.3,1.5-3.3,3.3
		c0,1.8,1.5,3.3,3.3,3.3c1.8,0,3.3-1.5,3.3-3.3C6.7,10.3,5.2,8.8,3.4,8.8L3.4,8.8z M3.4,14.4c-1.3,0-2.3-1-2.3-2.3
		c0-1.3,1-2.3,2.3-2.3c1.3,0,2.3,1,2.3,2.3C5.7,13.4,4.7,14.4,3.4,14.4L3.4,14.4z M3.8,14.4"/>
</g>
</svg>
