<?xml version="1.0" encoding="utf-8"?>
<!-- Generator: Adobe Illustrator 21.0.0, SVG Export Plug-In . SVG Version: 6.00 Build 0)  -->
<svg version="1.1" id="Слой_1" xmlns="http://www.w3.org/2000/svg" xmlns:xlink="http://www.w3.org/1999/xlink" x="0px" y="0px"
	 viewBox="0 0 311.1 390" style="enable-background:new 0 0 311.1 390;" xml:space="preserve">
<g>
	<path d="M296.7,99.3H64c-19.4,0-35.2-15.8-35.2-35.2c0-19.4,15.8-35.2,35.2-35.2h232.7c7.9,0,14.4-6.5,14.4-14.4
		c0-7.9-6.5-14.5-14.4-14.5H64C28.7,0,0,28.7,0,64v261.8c0,35.3,28.7,64,64,64h172.6c7.9,0,14.4-6.5,14.4-14.4
		c0-7.9-6.5-14.4-14.4-14.4H64c-19.4,0-35.2-15.8-35.2-35.2V117.5c10.1,6.7,22.2,10.6,35.2,10.6h218.3v247.4
		c0,7.9,6.5,14.4,14.4,14.4c7.9,0,14.4-6.5,14.4-14.4V113.7C311.1,105.8,304.6,99.3,296.7,99.3L296.7,99.3z M296.7,99.3"/>
	<path d="M296.7,50.6H67.3c-7.9,0-14.4,6.5-14.4,14.4c0,7.9,6.5,14.4,14.4,14.4h229.4c7.9,0,14.4-6.5,14.4-14.4
		C311.1,57,304.6,50.6,296.7,50.6L296.7,50.6z M296.7,50.6"/>
	<path d="M216.8,176.7H94.3c-7.9,0-14.4,6.5-14.4,14.4v105.4c0,7.9,6.5,14.4,14.4,14.4h122.5c7.9,0,14.4-6.5,14.4-14.4V191.1
		C231.2,183.2,224.7,176.7,216.8,176.7L216.8,176.7z M202.4,282.1h-93.7v-76.6h93.7V282.1z M202.4,282.1"/>
</g>
</svg>
