<?xml version="1.0" encoding="utf-8"?>
<svg version="1.1" xmlns="http://www.w3.org/2000/svg" xmlns:xlink="http://www.w3.org/1999/xlink" x="0px" y="0px"
	 viewBox="0 0 25 25" style="enable-background:new 0 0 25 25;" xml:space="preserve">
<path d="M5,10.5h15c1.1,0,2,0.9,2,2l0,0c0,1.1-0.9,2-2,2H5c-1.1,0-2-0.9-2-2l0,0
	C3,11.4,3.9,10.5,5,10.5z"/>
<path d="M8,16.5h15c1.1,0,2,0.9,2,2l0,0c0,1.1-0.9,2-2,2H8c-1.1,0-2-0.9-2-2l0,0
	C6,17.4,6.9,16.5,8,16.5z"/>
<path d="M2,4.5h15c1.1,0,2,0.9,2,2l0,0c0,1.1-0.9,2-2,2H2c-1.1,0-2-0.9-2-2l0,0
	C0,5.4,0.9,4.5,2,4.5z"/>
</svg>
