<?xml version="1.0" encoding="utf-8"?>
<!-- Generator: Adobe Illustrator 21.0.2, SVG Export Plug-In . SVG Version: 6.00 Build 0)  -->
<svg version="1.1" xmlns="http://www.w3.org/2000/svg" xmlns:xlink="http://www.w3.org/1999/xlink" x="0px" y="0px"
	 viewBox="0 0 20 20" style="enable-background:new 0 0 20 20;" xml:space="preserve">
<style type="text/css">
	.st0{fill:#FFFFFF;}
	.st1{clip-path:url(#SVGID_2_);}
	.st2{clip-path:url(#SVGID_4_);}
	.st3{clip-path:url(#SVGID_6_);}
	.st4{clip-path:url(#SVGID_8_);fill-rule:evenodd;clip-rule:evenodd;fill:#121111;}
	.st5{clip-path:url(#SVGID_10_);fill-rule:evenodd;clip-rule:evenodd;}
</style>
<g id="Слой_1">
	<g>
		<path d="M12.4,4.3H7.6V2.7h4.9V4.3L12.4,4.3z M19.2,4.3h-0.9c-0.1-0.3-0.4-0.5-0.8-0.5h-1.6c-0.4,0-0.7,0.2-0.8,0.5h-1.1V1.9
			c0-0.4-0.4-0.8-0.8-0.8H6.8c-0.4,0-0.8,0.4-0.8,0.8v2.4H4.8C4.7,4,4.4,3.8,4.1,3.8H2.4C2.1,3.8,1.8,4,1.7,4.3H0.8
			C0.4,4.3,0,4.7,0,5.1v4.6h0.8h0.8h5.9V8.9c0-0.4,0.4-0.8,0.8-0.8h3.2c0.4,0,0.8,0.4,0.8,0.8v0.8h5.9h0.8H20V5.1
			C20,4.7,19.6,4.3,19.2,4.3L19.2,4.3z"/>
		<path d="M18.4,11.4h-5.9v0.8c0,0.4-0.4,0.8-0.8,0.8H8.4c-0.4,0-0.8-0.4-0.8-0.8v-0.8H1.6H0.8H0v6.8c0,0.4,0.4,0.8,0.8,0.8h18.4
			c0.4,0,0.8-0.4,0.8-0.8v-6.8h-0.8H18.4L18.4,11.4z"/>
	</g>
</g>
<g id="Слой_2">
</g>
<g id="Слой_3">
</g>
</svg>
