<?xml version="1.0" encoding="utf-8"?>
<!-- Generator: Adobe Illustrator 21.0.0, SVG Export Plug-In . SVG Version: 6.00 Build 0)  -->
<svg version="1.1" id="Слой_1" xmlns="http://www.w3.org/2000/svg" xmlns:xlink="http://www.w3.org/1999/xlink" x="0px" y="0px"
	 viewBox="0 0 268.8009644 289.4140015" style="enable-background:new 0 0 268.8009644 289.4140015;" xml:space="preserve">
<path d="M60.000473,170.0995331h34.8010101c1.7649994,0,3.1989899-1.4330139,3.1989899-3.1990051v-34.7969971
	c0-1.7689972-1.4339905-3.2030029-3.1989899-3.2030029H60.000473c-1.7659912,0-3.1989899,1.4340057-3.1989899,3.2030029v34.7969971
	C56.8014832,168.6665192,58.2344818,170.0995331,60.000473,170.0995331L60.000473,170.0995331z"/>
<path d="M116.0004883,170.0995331h34.8009949c1.7649841,0,3.1989899-1.4330139,3.1989899-3.1990051v-34.7969971
	c0-1.7689972-1.4340057-3.2030029-3.1989899-3.2030029h-34.8009949c-1.7660065,0-3.1990051,1.4340057-3.1990051,3.2030029
	v34.7969971C112.8014832,168.6665192,114.2344818,170.0995331,116.0004883,170.0995331L116.0004883,170.0995331z"/>
<path d="M172.000473,170.0995331h34.8010101c1.7649841,0,3.1989899-1.4330139,3.1989899-3.1990051v-34.7969971
	c0-1.7689972-1.4340057-3.2030029-3.1989899-3.2030029H172.000473c-1.7659912,0-3.1990051,1.4340057-3.1990051,3.2030029v34.7969971
	C168.8014679,168.6665192,170.2344818,170.0995331,172.000473,170.0995331L172.000473,170.0995331z"/>
<path d="M60.000473,226.0995331h34.8010101c1.7649994,0,3.1989899-1.4329834,3.1989899-3.1990051v-34.7969971
	c0-1.7690125-1.4339905-3.2030029-3.1989899-3.2030029H60.000473c-1.7659912,0-3.1989899,1.4339905-3.1989899,3.2030029v34.7969971
	C56.8014832,224.6665497,58.2344818,226.0995331,60.000473,226.0995331L60.000473,226.0995331z"/>
<path d="M116.0004883,226.0995331h34.8009949c1.7649841,0,3.1989899-1.4329834,3.1989899-3.1990051v-34.7969971
	c0-1.7690125-1.4340057-3.2030029-3.1989899-3.2030029h-34.8009949c-1.7660065,0-3.1990051,1.4339905-3.1990051,3.2030029
	v34.7969971C112.8014832,224.6665497,114.2344818,226.0995331,116.0004883,226.0995331L116.0004883,226.0995331z"/>
<path d="M172.000473,226.0995331h34.8010101c1.7649841,0,3.1989899-1.4329834,3.1989899-3.1990051v-34.7969971
	c0-1.7690125-1.4340057-3.2030029-3.1989899-3.2030029H172.000473c-1.7659912,0-3.1990051,1.4339905-3.1990051,3.2030029v34.7969971
	C168.8014679,224.6665497,170.2344818,226.0995331,172.000473,226.0995331L172.000473,226.0995331z"/>
<path d="M248.8009644,35.0160522h-22V20.000061c0-11.0470581-8.9569702-20.000061-20-20.000061H206
	c-11.0469971,0-20,8.9530029-20,20.000061v15.0159912H82.8009644V20.000061c0-11.0470581-8.9569702-20.000061-20-20.000061H62
	C50.9530029,0,42,8.9530029,42,20.000061v15.0159912H20c-11.0469971,0-20,8.9529419-20,20v214.3979492
	c0,11.0469971,8.9530029,20,20,20h228.8009644c11.0429688,0,20-8.9530029,20-20V55.0160522
	C268.8009644,43.9689941,259.8439331,35.0160522,248.8009644,35.0160522z M235.1989746,257.81604H33.6019897V95.4140015h201.5969849
	V257.81604z"/>
</svg>
