<?xml version="1.0" encoding="utf-8"?>
<!-- Generator: Adobe Illustrator 21.0.2, SVG Export Plug-In . SVG Version: 6.00 Build 0)  -->
<svg version="1.1" id="Слой_1" xmlns="http://www.w3.org/2000/svg" xmlns:xlink="http://www.w3.org/1999/xlink" x="0px" y="0px"
	 viewBox="0 0 17 17" style="enable-background:new 0 0 17 17;" xml:space="preserve">
<style type="text/css">
	.st0{fill:#FFFFFF;}
	.st1{fill:#12100B;}
	.st2{clip-path:url(#XMLID_217_);}
	.st3{clip-path:url(#XMLID_218_);}
	.st4{clip-path:url(#XMLID_219_);fill:#12100B;}
	.st5{clip-path:url(#XMLID_220_);fill:#020400;}
	.st6{fill:#020400;}
	.st7{clip-path:url(#XMLID_240_);}
	.st8{clip-path:url(#XMLID_241_);}
	.st9{clip-path:url(#XMLID_244_);fill:#12100B;}
	.st10{clip-path:url(#XMLID_247_);fill:#020400;}
</style>
<g id="XMLID_436_">
	<g id="XMLID_435_">
		<path id="XMLID_546_" d="M15.2,5.3c-0.4-0.3-0.6-0.7-0.6-1.1c0.2-1.5-0.7-2.7-2.2-3c-0.3,0-0.5-0.2-0.8-0.3
			c-0.4-0.2-0.9-0.3-1.4-0.2c-0.3,0.1-0.4,0-0.6-0.1c-1.2-1.1-3-0.7-3.6,0.8C5.9,1.8,5.7,2,5.3,2.2c-0.1,0-0.2,0.1-0.2,0.1
			C4.9,2.5,4.7,2.5,4.5,2.4C3,1.7,1.4,2.8,1.3,4.4c0,0.2-0.1,0.5-0.2,0.7C0.7,5.8,0.6,6.5,0.9,7.2c-0.2,0.5,0,1.2,0.5,1.6
			C2,9.2,2.6,9,3.1,8.6c0.1,0,0.3,0,0.4-0.1c0.3-0.1,0.6-0.2,0.8-0.1c0,0,0.1,0.1,0.1,0.1c0,0,0,0,0,0c0,0,0,0,0,0
			c0.1,0,0.2,0.1,0.3,0.1c0.5,1.7,1.5,3.2,3,4.3C7.7,14,7.4,15,6.9,16C6.3,16.4,5.6,16.1,5,16c-0.5-0.1-1.1-0.2-1.6,0
			c-0.1,0-0.2,0.1-0.2,0.2c0,0,0,0,0,0c0,0.2-0.1,0.4-0.1,0.5C3,16.9,3.2,17,3.3,17c0,0,0,0,0.1,0h10c0.1,0,0.2,0,0.2-0.1
			c0.1,0,0.1-0.1,0.1-0.2v-0.4c0-0.1-0.1-0.2-0.2-0.2c0,0-0.1-0.1-0.2-0.1h-3c-0.2-0.2-0.3-0.3-0.5-0.5c-0.4-0.5-0.6-1-0.4-1.7
			c0.1-0.2,0.1-0.5,0.1-0.7c0.1-0.7,0.2-1.4,0.2-2.1c1-0.1,1.9-0.5,2.6-1.3c0.3,0,0.6-0.1,0.8-0.2l0.1,0c0.5,0.4,1.2,0.4,1.8,0.2
			c0.5-0.2,1-0.7,1-1.3c0-0.1,0-0.1,0-0.2C16.5,7.3,16.1,6,15.2,5.3L15.2,5.3z M6.4,8.4C6.4,8.4,6.4,8.4,6.4,8.4
			c0.1,0,0.3,0,0.4,0.1C6.9,8.6,7,8.7,7.1,8.9c0,0,0,0,0,0c0.2,0.6,0.4,1.3,0.6,1.9c0,0.3,0.1,0.6,0.1,0.9C6.8,10.9,6.3,9.7,6.4,8.4
			L6.4,8.4z M10,10.3c0-0.1,0.1-0.2,0.1-0.3c0,0,0,0,0,0c0,0,0-0.1,0-0.1c0.1-0.3,0.3-0.6,0.4-0.8c0.2,0.2,0.4,0.3,0.6,0.5
			C10.9,9.8,10.5,10.1,10,10.3L10,10.3z M10,10.3"/>
	</g>
</g>
</svg>
