<?xml version="1.0" encoding="utf-8"?>
<!-- Generator: Adobe Illustrator 21.0.2, SVG Export Plug-In . SVG Version: 6.00 Build 0)  -->
<svg version="1.1" id="Слой_1" xmlns="http://www.w3.org/2000/svg" xmlns:xlink="http://www.w3.org/1999/xlink" x="0px" y="0px"
	 viewBox="0 0 17 17" style="enable-background:new 0 0 17 17;" xml:space="preserve">
<style type="text/css">
	.st0{fill:#FFFFFF;}
	.st1{clip-path:url(#XMLID_95_);}
	.st2{fill:#12100B;}
	.st3{clip-path:url(#XMLID_96_);}
	.st4{fill:#211915;}
	.st5{fill:#231F20;}
	.st6{fill:#1E120D;}
	.st7{fill:none;}
</style>
<g id="XMLID_1_">
	<path id="XMLID_2_" d="M16.9,7.8l-1.8-5.2c-0.2-0.5-0.6-0.8-1.1-0.8c-0.1,0-0.3,0-0.4,0.1L8.5,3.7C8.2,3.8,8,4,7.9,4.3
		c-0.1,0.3-0.2,0.6,0,0.9l1.8,5.2c0.2,0.5,0.6,0.8,1.1,0.8c0.1,0,0.3,0,0.4-0.1l5.2-1.8c0.3-0.1,0.5-0.3,0.7-0.6
		C17,8.4,17,8.1,16.9,7.8L16.9,7.8z M10.2,6C9.9,6.1,9.5,5.9,9.4,5.6C9.2,5.2,9.4,4.8,9.8,4.7c0.4-0.1,0.7,0.1,0.9,0.4
		C10.8,5.5,10.6,5.9,10.2,6L10.2,6z M11.4,9.5c-0.4,0.1-0.7-0.1-0.9-0.4c-0.1-0.4,0.1-0.7,0.4-0.9s0.7,0.1,0.9,0.4
		C12,9,11.8,9.4,11.4,9.5L11.4,9.5z M13.7,4.8c-0.4,0.1-0.7-0.1-0.9-0.4c-0.1-0.4,0.1-0.7,0.4-0.9c0.4-0.1,0.7,0.1,0.9,0.4
		C14.3,4.3,14.1,4.6,13.7,4.8L13.7,4.8z M15,8.3c-0.4,0.1-0.7-0.1-0.9-0.4C14,7.5,14.2,7.1,14.5,7c0.4-0.1,0.7,0.1,0.9,0.4
		C15.5,7.8,15.3,8.1,15,8.3L15,8.3z M15,8.3"/>
	<path id="XMLID_3_" d="M6.6,7.4H1.1C0.5,7.4,0,7.9,0,8.5V14c0,0.6,0.5,1.1,1.1,1.1h5.5c0.6,0,1.1-0.5,1.1-1.1V8.5
		C7.8,7.9,7.3,7.4,6.6,7.4L6.6,7.4z M2,13.8c-0.4,0-0.7-0.3-0.7-0.7c0-0.4,0.3-0.7,0.7-0.7c0.4,0,0.7,0.3,0.7,0.7
		C2.7,13.5,2.4,13.8,2,13.8L2,13.8z M2,10.1c-0.4,0-0.7-0.3-0.7-0.7C1.4,9,1.7,8.7,2,8.7c0.4,0,0.7,0.3,0.7,0.7
		C2.7,9.8,2.4,10.1,2,10.1L2,10.1z M3.9,12c-0.4,0-0.7-0.3-0.7-0.7c0-0.4,0.3-0.7,0.7-0.7c0.4,0,0.7,0.3,0.7,0.7
		C4.6,11.7,4.3,12,3.9,12L3.9,12z M5.7,13.8c-0.4,0-0.7-0.3-0.7-0.7c0-0.4,0.3-0.7,0.7-0.7c0.4,0,0.7,0.3,0.7,0.7
		C6.4,13.5,6.1,13.8,5.7,13.8L5.7,13.8z M5.7,10.1c-0.4,0-0.7-0.3-0.7-0.7c0-0.4,0.3-0.7,0.7-0.7c0.4,0,0.7,0.3,0.7,0.7
		C6.4,9.8,6.1,10.1,5.7,10.1L5.7,10.1z M5.7,10.1"/>
</g>
</svg>
