<?xml version="1.0" encoding="utf-8"?>
<!-- Generator: Adobe Illustrator 21.0.2, SVG Export Plug-In . SVG Version: 6.00 Build 0)  -->
<svg version="1.1" xmlns="http://www.w3.org/2000/svg" xmlns:xlink="http://www.w3.org/1999/xlink" x="0px" y="0px"
	 viewBox="0 0 20 20" style="enable-background:new 0 0 20 20;" xml:space="preserve">
<style type="text/css">
	.st0{fill:#FFFFFF;}
	.st1{clip-path:url(#SVGID_2_);}
	.st2{clip-path:url(#SVGID_4_);}
	.st3{clip-path:url(#SVGID_6_);}
	.st4{clip-path:url(#SVGID_8_);fill-rule:evenodd;clip-rule:evenodd;fill:#121111;}
	.st5{clip-path:url(#SVGID_10_);fill-rule:evenodd;clip-rule:evenodd;}
</style>
<g id="Слой_1">
	<g id="XMLID_95_">
		<g id="XMLID_96_">
			<path id="XMLID_103_" d="M15.2,18.7c0.2,0.2,0.8-0.1,1-0.3l0.3-0.3c0.2-0.2,0.5-0.8,0.3-1l-5.2-4.9l-1.4,1.4L15.2,18.7z
				 M15.2,18.7"/>
			<path id="XMLID_100_" d="M6.5,7.3c0.7-1.2,0.3-2.6-0.7-3.7c-1.3-1.3-4-2.5-5.2-1.2c-1.3,1.3,0,4,1.2,5.2c1,1,2.4,1.4,3.6,0.8
				L7.8,11l1.3-1.2L6.5,7.3z M6.5,7.3"/>
			<path id="XMLID_97_" d="M12.9,7.3L2.6,17.1c-0.2,0.2,0.1,0.8,0.3,1l0.3,0.3c0.2,0.2,0.5,0.4,0.8,0.4c0.1,0,0.2,0,0.2-0.1
				l9.8-10.4c0.3,0.1,0.6,0.2,0.9,0.2c0.9,0.1,1.8-0.3,2.5-1c2.5-2.5,2.9-3,2.2-4l-2.9,2.8c-0.1,0.1-0.2,0.1-0.3,0.1
				c-0.1,0-0.2,0-0.2-0.1l-0.1-0.1c-0.1-0.1-0.1-0.1-0.1-0.2c0-0.1,0-0.2,0.1-0.3l2.7-3.1c-0.1-0.1-0.1-0.1-0.2-0.2
				c-0.1-0.1-0.2-0.2-0.3-0.3l-3.1,2.7C15.2,5,15.1,5,15,5c-0.1,0-0.2,0-0.2-0.1l-0.1-0.1c-0.1-0.1-0.1-0.1-0.1-0.2
				c0-0.1,0-0.2,0.1-0.3l2.8-2.9c-0.9-0.7-1.4-0.1-3.8,2.3c-0.8,0.8-1.2,1.8-1,2.7C12.7,6.7,12.8,7,12.9,7.3L12.9,7.3z M12.9,7.3"/>
		</g>
	</g>
</g>
<g id="Слой_2">
</g>
<g id="Слой_3">
</g>
</svg>
