<?xml version="1.0" encoding="utf-8"?>
<!-- Generator: Adobe Illustrator 21.0.0, SVG Export Plug-In . SVG Version: 6.00 Build 0)  -->
<svg version="1.1" id="Слой_1" xmlns="http://www.w3.org/2000/svg" xmlns:xlink="http://www.w3.org/1999/xlink" x="0px" y="0px"
	 viewBox="0 0 44.5620117 44.5630188" style="enable-background:new 0 0 44.5620117 44.5630188;" xml:space="preserve">
<g>
	<path d="M22.2810059,0C9.9960022,0,0,9.9960327,0,22.2820129c0,12.2850037,9.9960022,22.2810059,22.2810059,22.2810059
		s22.2810059-9.9960022,22.2810059-22.2810059C44.5620117,9.9960327,34.5660095,0,22.2810059,0L22.2810059,0z
		 M22.2810059,40.9690247c-10.3040161,0-18.6910095-8.3829956-18.6910095-18.6870117
		c0-10.3089905,8.3869934-18.6919861,18.6910095-18.6919861c10.3049927,0,18.6879578,8.3869934,18.6879578,18.6919861
		C40.9689636,32.5860291,32.5859985,40.9690247,22.2810059,40.9690247L22.2810059,40.9690247z M22.2810059,40.9690247"/>
	<path d="M29.3829956,15.1760254L18.9839783,25.5790405l-3.8080139-3.809021c-0.6989746-0.6989746-1.835968-0.6989746-2.5350037,0
		c-0.7029724,0.7030029-0.7029724,1.8399963,0,2.539032l5.0740356,5.0779724
		c0.3510132,0.3479919,0.8080139,0.5240173,1.2689819,0.5240173c0.4570007,0,0.9180298-0.1760254,1.269989-0.5240173
		l11.6679993-11.6719971c0.7030334-0.7030029,0.7030334-1.8359985,0-2.5390015
		C31.2229919,14.4770508,30.085968,14.4770508,29.3829956,15.1760254L29.3829956,15.1760254z M29.3829956,15.1760254"/>
</g>
</svg>
