<?xml version="1.0" encoding="utf-8"?>
<!-- Generator: Adobe Illustrator 21.0.0, SVG Export Plug-In . SVG Version: 6.00 Build 0)  -->
<svg version="1.1" id="Слой_1" xmlns="http://www.w3.org/2000/svg" xmlns:xlink="http://www.w3.org/1999/xlink" x="0px" y="0px"
	 viewBox="0 0 33.4064941 33.4022522" style="enable-background:new 0 0 33.4064941 33.4022522;" xml:space="preserve">
<style type="text/css">
	.st0{fill:#050505;}
</style>
<g>
	<g>
		<path class="st0" d="M22.3592529,16.7032471l9.875-9.8749695c1.5629883-1.5620422,1.5629883-4.0940247,0-5.6560364
			c-1.5619812-1.5629883-4.0969849-1.5629883-5.6559753,0l-9.8750305,9.875l-9.875-9.875
			c-1.5619812-1.5629883-4.0939636-1.5629883-5.6560059,0c-1.5629883,1.5620117-1.5629883,4.0939941,0,5.6560364
			l9.8750305,9.8749695l-9.8750305,9.8710022c-1.5629883,1.5630188-1.5629883,4.0980225,0,5.6559753
			c0.7810059,0.7820435,1.8050232,1.1720276,2.8280029,1.1720276c1.0230408,0,2.0469971-0.3899841,2.8280029-1.1720276
			l9.875-9.8709717l9.8750305,9.875c0.7769775,0.7780151,1.8049622,1.1679993,2.8280029,1.1679993
			c1.0239868,0,2.0469971-0.3899841,2.8279724-1.1679993c1.5629883-1.5619812,1.5629883-4.0969849,0-5.6600037
			L22.3592529,16.7032471z M22.3592529,16.7032471"/>
	</g>
</g>
</svg>
