<?xml version="1.0" encoding="utf-8"?>
<!-- Generator: Adobe Illustrator 21.0.2, SVG Export Plug-In . SVG Version: 6.00 Build 0)  -->
<svg version="1.1" id="Слой_1" xmlns="http://www.w3.org/2000/svg" xmlns:xlink="http://www.w3.org/1999/xlink" x="0px" y="0px"
	 viewBox="0 0 17 17" style="enable-background:new 0 0 17 17;" xml:space="preserve">
<style type="text/css">
	.st0{fill:#FFFFFF;}
	.st1{clip-path:url(#XMLID_95_);}
	.st2{fill:#12100B;}
	.st3{clip-path:url(#XMLID_96_);}
	.st4{fill:#211915;}
	.st5{fill:#231F20;}
	.st6{fill:#1E120D;}
	.st7{fill:none;}
</style>
<g id="XMLID_297_">
	<path id="XMLID_299_" d="M0.1,15.5L7.8,3.1L6.4,1.1C6.3,0.8,6.3,0.4,6.6,0.3c0.3-0.2,0.6-0.1,0.8,0.2l1.1,1.6l1.1-1.6
		c0.2-0.3,0.5-0.4,0.8-0.2c0.3,0.2,0.4,0.5,0.2,0.8L9.2,3.1l7.6,12.3c0.2,0.3,0.2,0.6,0,0.9c-0.2,0.3-0.5,0.5-0.8,0.5h-3.4
		c-0.3,0-0.6-0.2-0.8-0.4l-2.9-4.5c-0.1-0.2-0.4-0.3-0.6-0.3c-0.2,0-0.5,0.1-0.6,0.3L5,16.4c-0.2,0.3-0.4,0.4-0.8,0.4H0.9
		c-0.3,0-0.6-0.2-0.8-0.5C0,16.1,0,15.8,0.1,15.5z"/>
</g>
</svg>
