<?xml version="1.0" encoding="utf-8"?>
<!-- Generator: Adobe Illustrator 21.0.2, SVG Export Plug-In . SVG Version: 6.00 Build 0)  -->
<svg version="1.1" xmlns="http://www.w3.org/2000/svg" xmlns:xlink="http://www.w3.org/1999/xlink" x="0px" y="0px"
	 viewBox="0 0 20 20" style="enable-background:new 0 0 20 20;" xml:space="preserve">
<style type="text/css">
	.st0{fill:none;}
</style>
<g id="Слой_1">
</g>
<g id="Слой_2">
</g>
<g id="Слой_3">
	<g>
		<circle cx="10" cy="10" r="1.4"/>
		<path d="M17.6,6.9c-2.7-0.8-4.7,1.2-5,1.5c-0.3-0.4-0.6-0.8-1-1h0c-0.1-1.5,1.7-2.8,1.9-2.9s2.3-1.9,0.1-3.6
			C11.3-0.5,8.2-0.3,7,2.5c-0.7,2.6,1,4.6,1.4,5C8,7.7,7.7,8.1,7.4,8.5c0,0,0,0,0,0C6,8.6,4.6,6.8,4.5,6.6C4.4,6.4,2.5,4.3,0.8,6.5
			c-1.4,2.3-1.2,5.4,1.6,6.5c2.7,0.8,4.7-1.1,5-1.5c0.3,0.5,0.7,0.8,1.1,1.1c0,1.4-1.7,2.8-1.9,2.9c-0.2,0.1-2.3,1.9-0.1,3.6
			c2.3,1.4,5.4,1.2,6.5-1.6c0.7-2.7-1.1-4.6-1.5-5c0.4-0.3,0.8-0.7,1-1.1c1.4,0,2.8,1.7,2.9,1.9c0.1,0.2,1.9,2.3,3.6,0.1
			C20.6,11.2,20.3,8.1,17.6,6.9z M10,12.4c-1.3,0-2.4-1.1-2.4-2.4c0-1.3,1.1-2.4,2.4-2.4s2.4,1.1,2.4,2.4
			C12.4,11.3,11.3,12.4,10,12.4z"/>
	</g>
</g>
</svg>
