<?xml version="1.0" encoding="utf-8"?>
<!-- Generator: Adobe Illustrator 21.0.2, SVG Export Plug-In . SVG Version: 6.00 Build 0)  -->
<svg version="1.1" xmlns="http://www.w3.org/2000/svg" xmlns:xlink="http://www.w3.org/1999/xlink" x="0px" y="0px"
	 viewBox="0 0 20 20" style="enable-background:new 0 0 20 20;" xml:space="preserve">
<style type="text/css">
	.st0{fill:none;}
</style>
<g id="Слой_1">
	<g id="XMLID_866_">
		<path id="XMLID_879_" d="M9.2,3.9c1.1,0,2-0.9,2-2c0-1.1-0.9-2-2-2c-1.1,0-2,0.9-2,2C7.2,3.1,8.1,3.9,9.2,3.9L9.2,3.9z M9.2,3.9"
			/>
		<g id="XMLID_867_">
			<path id="XMLID_872_" d="M12.2,15.1c-0.5,1.8-2.2,3.2-4.2,3.2c-2.4,0-4.4-2-4.4-4.4c0-1.8,1.1-3.3,2.6-4V8.1
				c-2.5,0.8-4.3,3.1-4.3,5.8C1.9,17.3,4.7,20,8,20c2.4,0,4.6-1.5,5.5-3.5l-0.7-1.4C12.7,15.1,12.4,15.1,12.2,15.1L12.2,15.1z
				 M12.2,15.1"/>
			<path id="XMLID_868_" d="M17.9,17.4l-2.6-5.2c-0.2-0.4-0.6-0.6-1-0.6h-3.4v-0.8h2.9c0.3,0,0.5-0.2,0.7-0.4
				c0.1-0.1,0.2-0.3,0.2-0.5c0-0.5-0.4-0.9-0.9-0.9h-2.9V6.5c0-0.7-0.5-1.7-1.7-1.7c-1,0-1.7,0.8-1.7,1.7v5.7c0,1,0.8,1.8,1.8,1.8
				h4.4l2.3,4.6c0.2,0.4,0.6,0.6,1,0.6c0.2,0,0.4,0,0.5-0.1C18,18.7,18.2,18,17.9,17.4L17.9,17.4z M17.9,17.4"/>
		</g>
	</g>
</g>
<g id="Слой_2">
</g>
<g id="Слой_3">
</g>
</svg>
