<?xml version="1.0" encoding="utf-8"?>
<!-- Generator: Adobe Illustrator 21.0.2, SVG Export Plug-In . SVG Version: 6.00 Build 0)  -->
<svg version="1.1" xmlns="http://www.w3.org/2000/svg" xmlns:xlink="http://www.w3.org/1999/xlink" x="0px" y="0px"
	 viewBox="0 0 20 20" style="enable-background:new 0 0 20 20;" xml:space="preserve">
<style type="text/css">
	.st0{fill:#FFFFFF;}
	.st1{clip-path:url(#SVGID_2_);}
	.st2{clip-path:url(#SVGID_4_);}
	.st3{clip-path:url(#SVGID_6_);}
	.st4{clip-path:url(#SVGID_8_);fill-rule:evenodd;clip-rule:evenodd;fill:#121111;}
	.st5{clip-path:url(#SVGID_10_);fill-rule:evenodd;clip-rule:evenodd;}
</style>
<g id="Слой_1">
	<g>
		<path d="M7.5,6.8C7.5,4.7,5.9,3,3.8,3C1.7,3,0,4.7,0,6.8c0,0.6,0.1,1.2,0.4,1.7l3.4,6.9l3.4-6.9C7.4,7.9,7.5,7.4,7.5,6.8L7.5,6.8z
			 M3.8,8.8c-1.2,0-2.1-0.9-2.1-2.1s0.9-2.1,2.1-2.1c1.2,0,2.1,0.9,2.1,2.1C5.9,7.9,4.9,8.8,3.8,8.8L3.8,8.8z M3.8,8.8"/>
		<path d="M17.7,3.1c-1.3,0-2.3,1-2.3,2.3c0,0.4,0.1,0.7,0.2,1l2,4.2l2-4.2c0.2-0.3,0.2-0.7,0.2-1C20,4.1,19,3.1,17.7,3.1L17.7,3.1z
			 M17.7,6.7c-0.7,0-1.3-0.6-1.3-1.3s0.6-1.3,1.3-1.3c0.7,0,1.3,0.6,1.3,1.3S18.4,6.7,17.7,6.7L17.7,6.7z M17.7,6.7"/>
		<path d="M10,9.5l-0.4,0L9.4,9.9l-1.7,3.5l-1.9,0l-0.9,2.1l3.4-0.1l0.7,0l0.2-0.6l1.2-4l6.2-0.1l-0.6-1L10,9.5z M10,9.5"/>
	</g>
</g>
<g id="Слой_2">
</g>
<g id="Слой_3">
</g>
</svg>
