<?xml version="1.0" encoding="utf-8"?>
<!-- Generator: Adobe Illustrator 21.0.0, SVG Export Plug-In . SVG Version: 6.00 Build 0)  -->
<svg version="1.1" id="Слой_1" xmlns="http://www.w3.org/2000/svg" xmlns:xlink="http://www.w3.org/1999/xlink" x="0px" y="0px"
	 viewBox="0 0 392.3 391.7" style="enable-background:new 0 0 392.3 391.7;" xml:space="preserve">
<g>
	<g>
		<path d="M183.9,116l-38,38c-14,14-28.1,28-42,42.2c-3.3,3.4-5.8,7.8-6.7,12.2c-5,23.1-9.9,46.2-14.8,69.4l-2.7,12.8
			c-1.3,6.2,0.4,12.5,4.6,16.7c3.3,3.3,7.8,5.1,12.6,5.1c1.4,0,2.7-0.2,4.1-0.4l14.1-3c22.4-4.7,44.9-9.5,67.3-14.2
			c5.2-1.1,9.6-3.4,13.4-7.2c62.9-63,125.8-125.8,188.6-188.6c4.6-4.6,7.2-10.2,7.8-17c0.1-1.1,0-2.2-0.2-3.3
			c-0.4-1.6-0.7-3.3-1.1-4.9c-0.9-4.1-1.8-8.7-3.8-13.2c-11.8-26.9-31.3-46.1-58-56.9c-5.4-2.2-11-2.9-16-3.5l-1.4-0.2
			c-7.2-0.9-13.8,1.5-19.4,7.3C256.3,43.6,220.1,79.9,183.9,116L183.9,116z M309.1,19.5h0.4l1.4,0.2c4.2,0.5,8,1,11,2.2
			c21.8,8.8,37.8,24.5,47.4,46.6c1.1,2.6,1.8,5.8,2.6,9.3c0.2,1.3,0.6,2.6,0.8,3.8c-0.3,1.4-0.9,2.4-2,3.4
			c-63,62.8-125.8,125.8-188.7,188.6c-1,1-2,1.5-3.4,1.8c-22.5,4.7-44.9,9.4-67.4,14.2l-11.8,2.5l2.2-10.5
			c4.9-23,9.8-46.2,14.7-69.2c0.2-0.7,0.8-1.8,1.5-2.6c13.9-14.1,27.8-28.1,41.8-42l38-38C233.9,93.5,270.2,57.3,306.3,21
			C307.8,19.7,308.6,19.5,309.1,19.5L309.1,19.5z M309.1,19.5"/>
	</g>
	<path d="M31.1,87.2h139.7c5.4,0,9.8-4.4,9.8-9.8c0-5.4-4.4-9.8-9.8-9.8H31.1C13.9,67.5,0,81.5,0,98.7v261.9
		c0,17.2,14,31.1,31.1,31.1H293c17.2,0,31.1-14,31.1-31.1v-134c0-5.4-4.4-9.8-9.8-9.8c-5.4,0-9.8,4.4-9.8,9.8v134
		c0,6.3-5.2,11.5-11.5,11.5H31.1c-6.3,0-11.5-5.2-11.5-11.5V98.7C19.6,92.4,24.8,87.2,31.1,87.2L31.1,87.2z M31.1,87.2"/>
</g>
</svg>
