<?xml version="1.0" encoding="utf-8"?>
<!-- Generator: Adobe Illustrator 21.0.0, SVG Export Plug-In . SVG Version: 6.00 Build 0)  -->
<svg version="1.1" id="Слой_1" xmlns="http://www.w3.org/2000/svg" xmlns:xlink="http://www.w3.org/1999/xlink" x="0px" y="0px"
	 viewBox="0 0 19.4 20.1" style="enable-background:new 0 0 19.4 20.1;" xml:space="preserve">
<g>
	<path d="M17.4,4.8h-6.9l1.8-2.5c0.4-0.3,0.3-0.7,0-1c-0.3-0.2-0.7-0.2-0.9,0.1L9.6,3.9L6.9,0.3C6.7,0,6.3-0.1,6,0.1
		c-0.3,0.3-0.4,0.7-0.2,1l2.7,3.7H2c-1.1,0-2,0.9-2,2v9.9c0,1.1,0.9,2,1.9,2v1.1c0,0.2,0.1,0.3,0.3,0.3h1.6c0.2,0,0.3-0.1,0.3-0.3
		v-1.1h11.2v1.1c0,0.2,0.1,0.3,0.3,0.3h1.6c0.2,0,0.3-0.1,0.3-0.3v-1.1c1.1,0,1.9-0.9,1.9-2v-10C19.4,5.6,18.5,4.8,17.4,4.8
		L17.4,4.8z M17.8,16.7c0,0.2-0.2,0.4-0.4,0.4H2c-0.2,0-0.4-0.2-0.4-0.4v-10c0-0.2,0.2-0.4,0.4-0.4h15.5c0.2,0,0.4,0.2,0.4,0.4
		L17.8,16.7L17.8,16.7z"/>
	<path d="M12.2,7.4H3.4C3,7.4,2.8,7.6,2.8,8v7.5c0,0.3,0.3,0.6,0.6,0.6h8.8c0.3,0,0.6-0.3,0.6-0.6V8C12.8,7.6,12.5,7.4,12.2,7.4
		L12.2,7.4z"/>
	<path d="M16.2,7.5h-1.9c-0.3,0-0.6,0.3-0.6,0.6v2.3c0,0.3,0.3,0.6,0.6,0.6h1.9c0.3,0,0.6-0.3,0.6-0.6V8.1
		C16.8,7.8,16.5,7.5,16.2,7.5L16.2,7.5z"/>
	<path d="M16.2,12.7c0,0.5-0.4,1-1,1c-0.5,0-1-0.4-1-1c0-0.5,0.4-1,1-1S16.2,12.1,16.2,12.7L16.2,12.7z"/>
	<path d="M16.2,15.2c0,0.5-0.4,1-1,1c-0.5,0-1-0.4-1-1c0-0.5,0.4-1,1-1C15.8,14.2,16.2,14.6,16.2,15.2L16.2,15.2z"/>
</g>
</svg>
