<?xml version="1.0" encoding="utf-8"?>
<!-- Generator: Adobe Illustrator 21.0.2, SVG Export Plug-In . SVG Version: 6.00 Build 0)  -->
<svg version="1.1" xmlns="http://www.w3.org/2000/svg" xmlns:xlink="http://www.w3.org/1999/xlink" x="0px" y="0px"
	 viewBox="0 0 20 20" style="enable-background:new 0 0 20 20;" xml:space="preserve">
<style type="text/css">
	.st0{fill:#FFFFFF;}
	.st1{clip-path:url(#SVGID_2_);}
	.st2{clip-path:url(#SVGID_4_);}
	.st3{clip-path:url(#SVGID_6_);}
	.st4{clip-path:url(#SVGID_8_);fill-rule:evenodd;clip-rule:evenodd;fill:#121111;}
	.st5{clip-path:url(#SVGID_10_);fill-rule:evenodd;clip-rule:evenodd;}
</style>
<g id="Слой_1">
	<g>
		<polygon points="8,17.9 8,17.9 8,17.8 7.9,17.8 7.9,17.8 7.9,17.7 7.9,17.8 7.9,17.7 7.9,17.7 7.9,17.7 7.8,17.6 7.8,17.6 
			7.8,17.6 7.8,17.6 7.7,17.6 7.7,17.6 7.7,17.6 7.7,17.6 7.6,17.7 7.6,17.7 7.6,17.7 7.5,17.7 7.5,17.8 7.4,17.8 7.3,17.7 
			7.3,17.7 7.3,17.8 7.3,17.8 7.3,17.9 7.4,17.9 7.4,18 7.4,18 7.4,18 7.4,18.2 7.4,18.2 7.4,18.3 7.4,18.3 7.4,18.3 7.4,18.4 
			7.4,18.4 7.4,18.5 7.4,18.6 7.4,18.7 7.4,18.7 7.5,18.7 7.5,18.7 7.5,18.8 7.6,18.8 7.6,18.7 7.6,18.7 7.7,18.6 7.7,18.6 
			7.7,18.6 7.8,18.6 7.9,18.7 7.9,18.2 7.9,18.1 7.9,18.1 7.9,18 8,18 8,18 		"/>
		<polygon points="10.1,19 10.1,19 10.1,19 10.1,19 10.1,19 10,19.1 10,19 10,19.1 10,19.1 9.8,19.1 9.8,19.2 9.5,19.2 9.5,19.2 
			9.4,19.2 9.4,19.2 9.4,19.2 9.3,19.1 9.3,19.1 9.2,19.1 9.2,19.1 9.2,19.1 9.1,19.2 9.1,19.2 9.1,19.1 9,19.1 9,19.2 9,19.3 
			8.9,19.3 9,19.4 9.1,19.4 9.2,19.4 9.2,19.4 9.3,19.4 9.3,19.5 9.4,19.5 9.5,19.6 9.7,19.6 9.7,19.6 9.7,19.7 9.9,19.8 10,19.8 
			10,19.8 10,19.7 10.1,19.6 10.1,19.6 10.1,19.6 10,19.5 10.1,19.5 10,19.5 10,19.5 10,19.5 10,19.4 10,19.4 10,19.3 10,19.3 
			10,19.3 10,19.2 10.1,19.1 10.1,19.1 10.1,19.1 		"/>
		<polygon points="7.8,16.8 7.8,16.8 7.8,16.8 7.7,16.8 7.7,16.8 7.6,16.9 7.6,16.9 7.6,16.9 7.6,16.9 7.5,16.9 7.5,17 7.5,17 
			7.5,17 7.5,17.1 7.5,17.1 7.6,17.2 7.5,17.2 7.5,17.2 7.5,17.3 7.5,17.3 7.5,17.3 7.6,17.3 7.6,17.4 7.6,17.4 7.6,17.4 7.6,17.4 
			7.7,17.4 7.7,17.5 7.7,17.5 7.7,17.5 7.8,17.4 7.8,17.2 7.9,17.2 7.9,16.9 7.8,16.9 7.8,16.7 7.8,16.7 7.8,16.7 		"/>
		<polygon points="0.4,12.2 0.4,12.2 0.4,12.2 0.7,12.2 0.8,12.1 0.8,12.1 0.8,12.1 0.8,12.1 0.8,12 0.9,12 0.9,12 0.9,12.1 
			0.9,12.1 1,12.1 1.1,12 1.1,12 1.2,11.9 1.2,11.9 1.2,11.9 1.3,11.9 1.4,11.9 1.4,11.9 1.4,11.9 1.4,11.9 1.5,11.9 1.5,11.9 
			1.5,11.9 1.6,11.9 1.6,11.9 1.6,11.8 1.6,11.8 1.7,11.5 1.8,11.5 1.8,11.1 1.7,10.8 1.7,10.8 1.8,10.8 1.8,10.8 1.9,10.8 
			1.9,10.7 2,10.7 2,10.6 2,10.4 2,10.4 1.9,10.4 1.9,10.4 1.9,10.3 1.9,10.3 2,10.3 1.9,10.3 1.9,10.2 1.9,10.2 1.9,10.1 1.8,10 
			1.6,10.1 1.6,10 1.4,9.9 1.4,10 1.3,10 1.3,10 1.2,10 1.1,10 1.1,10 1,10.1 1,10.2 1,10.2 1,10.2 0.9,10.3 0.9,10.3 0.9,10.3 
			0.9,10.3 1,10.4 1.1,10.4 1,10.4 0.9,10.4 0.9,10.5 0.9,10.6 0.9,10.6 0.9,10.6 0.8,10.5 0.8,10.5 0.7,10.5 0.7,10.6 0.7,10.6 
			0.7,10.5 0.6,10.5 0.6,10.5 0.4,10.5 0.4,10.5 0.4,10.6 0.3,10.7 0.5,10.8 0.4,10.8 0.4,10.9 0.3,10.9 0.3,10.9 0.3,11 0.5,11.1 
			0.4,11.1 0.5,11.1 0.6,11.2 0.7,11.1 0.7,11.2 0.7,11.2 0.7,11.2 0.6,11.2 0.6,11.2 0.5,11.3 0.5,11.3 0.4,11.5 0.4,11.5 
			0.4,11.5 0.5,11.5 0.4,11.6 0.3,11.6 0.3,11.7 0.3,11.8 0.2,11.7 0.1,11.7 0.1,11.8 0.1,11.8 0.3,11.8 0.3,11.8 0.1,11.9 0.1,12 
			0.1,12 0.1,12 0.2,12 0.3,12 0.3,12 0.3,12 0.2,12.1 0.2,12.1 0.2,12.1 0.3,12.1 0.3,12.1 0.4,12.1 0.4,12.1 0.3,12.1 0.3,12.1 
			0.3,12.2 0.3,12.2 		"/>
		<polygon points="2,9.1 1.9,9.1 2,9.1 2,9.2 1.9,9.2 1.9,9.2 1.9,9.2 1.9,9.2 1.9,9.3 1.9,9.3 1.9,9.3 1.9,9.4 1.8,9.4 1.9,9.4 
			2.1,9.4 2,9.3 2.1,9.3 2.2,9.2 2.2,9.3 2.1,9.3 2.1,9.5 2.1,9.5 2,9.5 2.1,9.6 2.1,9.7 2.1,9.7 2,9.8 2,9.8 2,9.9 2,10 2,10 
			2.1,9.9 2.1,9.9 2.1,9.9 2.1,9.8 2.1,9.8 2.1,9.7 2.1,9.7 2.1,9.6 2.1,9.6 2.2,9.6 2.2,9.6 2.2,9.7 2.2,9.7 2.2,9.7 2.3,9.5 
			2.3,9.6 2.3,9.6 2.4,9.6 2.3,9.6 2.3,9.7 2.3,9.7 2.3,9.8 2.4,9.9 2.4,9.9 2.4,9.9 2.3,9.9 2.3,10 2.2,10.2 2.2,10.3 2.2,10.3 
			2.3,10.3 2.3,10.3 2.4,10.4 2.5,10.4 2.4,10.4 2.4,10.3 2.4,10.3 2.5,10.3 2.6,10.4 2.6,10.4 2.7,10.3 2.7,10.3 2.7,10.3 
			2.7,10.3 2.8,10.2 2.8,10.3 2.8,10.3 2.8,10.4 2.8,10.4 2.8,10.4 2.7,10.5 2.7,10.5 2.8,10.6 2.8,10.7 2.8,10.7 2.8,10.8 
			2.9,10.8 2.9,10.7 2.9,10.7 3,10.8 3,10.8 3,10.9 2.9,10.9 2.9,10.9 2.9,11 2.9,11 2.9,11 2.9,11.1 2.9,11.2 2.9,11.2 2.9,11.3 
			2.9,11.3 2.8,11.2 2.9,11.3 2.8,11.3 2.8,11.3 2.5,11.3 2.4,11.4 2.4,11.4 2.2,11.6 2.3,11.6 2.4,11.6 2.4,11.5 2.4,11.5 
			2.5,11.5 2.5,11.8 2.4,11.9 2.4,11.9 2.3,12 2.3,12 2.2,12 2.1,12.1 2,12.1 2,12.1 2.1,12.2 2.1,12.2 2,12.2 2,12.2 2.1,12.2 
			2,12.3 2.1,12.3 2.2,12.3 2.2,12.2 2.3,12.2 2.3,12.2 2.3,12.2 2.4,12.3 2.4,12.3 2.4,12.3 2.4,12.3 2.4,12.3 2.4,12.4 2.4,12.4 
			2.5,12.3 2.5,12.3 2.6,12.3 2.6,12.4 2.6,12.4 2.6,12.4 2.6,12.5 2.7,12.5 2.8,12.5 2.8,12.4 2.8,12.4 2.8,12.4 2.9,12.4 3,12.3 
			3,12.3 3.1,12.2 2.8,12.5 2.8,12.6 2.8,12.6 2.7,12.6 2.7,12.5 2.6,12.6 2.6,12.5 2.4,12.6 2.4,12.7 2.3,12.7 2.3,12.7 2.2,12.7 
			2.3,12.8 2.1,12.9 2.1,12.9 2,13.1 1.9,13.2 1.8,13.2 1.8,13.2 1.8,13.2 1.8,13.2 1.9,13.2 1.9,13.2 1.9,13.2 1.9,13.3 1.9,13.3 
			2,13.3 2,13.3 2,13.3 2,13.2 2.1,13.2 2.1,13.2 2.1,13.1 2.1,13.1 2.4,13.1 2.4,13 2.4,13.1 2.4,13.1 2.4,13.1 2.5,13.1 2.5,13.2 
			2.6,13.2 2.6,13.2 2.6,13.1 2.6,13.1 2.6,13.1 2.6,13 2.7,13 2.8,12.9 3,12.9 3,13 3.3,12.9 3.3,12.9 3.5,12.8 3.5,12.8 3.5,12.8 
			3.6,12.8 3.7,12.9 4.2,12.8 4.3,12.8 4.4,12.8 4.4,12.7 4.4,12.7 4.5,12.7 4.5,12.7 4.6,12.6 4.6,12.6 4.6,12.5 4.5,12.5 
			4.5,12.5 4.5,12.5 4.3,12.5 4.2,12.4 4.2,12.4 4.2,12.4 4.4,12.4 4.4,12.3 4.4,12.3 4.4,12.3 4.3,12.3 4.3,12.3 4.4,12.2 
			4.4,12.2 4.4,12.2 4.4,12.2 4.5,12.2 4.5,12.2 4.5,12.2 4.4,12.1 4.5,12.1 4.6,12 4.7,11.8 4.7,11.7 4.7,11.7 4.6,11.6 4.3,11.5 
			4.2,11.5 4.2,11.6 4.1,11.6 4.1,11.6 4.1,11.6 4.1,11.6 4.1,11.5 4.1,11.5 4.1,11.4 4.1,11.2 4.1,11.2 4,11.2 3.9,10.8 3.9,10.7 
			3.8,10.6 3.8,10.6 3.8,10.6 3.7,10.5 3.6,10.5 3.6,10.5 3.5,10.2 3.5,10.2 3.4,10 3.4,10 3.4,9.9 3.1,9.6 2.9,9.6 2.8,9.6 
			2.8,9.6 2.9,9.6 2.9,9.6 3,9.5 3,9.5 3.1,9.5 3.1,9.4 2.9,9.4 3.1,9.3 3.1,9.3 3.2,9.1 3.2,9.1 3.3,9 3.3,8.8 3.4,8.8 3.4,8.7 
			3.4,8.7 3.3,8.6 3.3,8.6 3.2,8.6 3,8.6 3,8.6 2.8,8.6 2.8,8.6 2.7,8.6 2.7,8.6 2.7,8.6 2.7,8.6 2.7,8.6 2.7,8.5 2.6,8.4 2.6,8.4 
			2.7,8.3 2.8,8.3 3,8.2 3,8.1 3,8.1 3,8 3,8 2.6,8.1 2.5,8 2.5,8 2.4,8 2.4,8 2.4,8 2.4,8 2.3,8.1 2.3,8.2 2.3,8.2 2.2,8.3 
			2.2,8.3 2.3,8.4 2.2,8.4 2.1,8.4 2.1,8.4 2.1,8.4 2.1,8.5 2.1,8.6 2.1,8.6 2.1,8.6 2.1,8.6 2,8.7 2.1,8.7 2.1,8.8 2.1,8.8 
			2.1,8.9 2,9 2,9.1 2,9.1 		"/>
		<path d="M14.3,17.6L14.3,17.6L14.3,17.6L14.3,17.6L14.3,17.6z M13.9,17.5l0.1,0.1L13.9,17.5L13.9,17.5z M13.1,17.6L13.1,17.6
			L13.1,17.6L13.1,17.6L13.1,17.6z M12.8,17.6L12.8,17.6L12.8,17.6L12.8,17.6z M7.5,10.8L7.5,10.8L7.5,10.8L7.5,10.8z M14.4,9
			l-0.2-0.1L14.4,9L14.4,9z M10.4,14.8L10.4,14.8L10.4,14.8L10.4,14.8L10.4,14.8L10.4,14.8z M10.8,14.4L10.8,14.4L10.8,14.4
			L10.8,14.4z M11.9,15.2L11.9,15.2L11.9,15.2L11.9,15.2L11.9,15.2z M19.9,13.5L19.9,13.5l-0.3-0.2l-0.1,0l-0.2-0.1l-0.2,0L18.9,13
			l0,0l-0.3,0.1l-0.1,0L18.3,13l0,0l-0.1,0l-0.1,0l0,0l0-0.1L18,12.7l-0.1-0.1l-0.3,0l0-0.1l0,0l0,0l0-0.1l0.1-0.1l0,0l-0.1-0.1
			l0-0.1L17.5,12l-0.3,0l-0.1,0.1H17l0,0l-0.1,0l-0.1,0.1l-0.1,0l-0.1,0h-0.1l0,0V12l0-0.1l0-0.2l-0.1-0.1l0-0.1l0.3,0l0.1,0
			l0.1-0.1v0l-0.1-0.2l-0.1,0l-0.1,0l0,0l0-0.1l0-0.1h-0.1l-0.1,0l-0.1-0.2l0-0.1l-0.1-0.1l0-0.1l0.1-0.1l-0.1-0.1l0-0.1l-0.1-0.1
			l-0.1-0.1l-0.2,0l0,0l-0.1,0l0,0l0-0.1l0,0l-0.2,0L15.4,10h-0.1l-0.1-0.1l0-0.1l0,0l0,0l0,0l-0.1-0.1l0-0.1l0,0l-0.1,0v0l0,0
			l0-0.2l-0.1-0.1l-0.1,0l0.1,0l0-0.1L15,8.9l0-0.1L15,8.8l0-0.3l0-0.1V8.4l0,0h0l0,0l0,0l0,0l0-0.1l0.1-0.1h0.1l0-0.1L15.2,8l0,0
			l-0.1,0l-0.3,0L14.7,8l-0.1,0l0,0l-0.2,0l0,0h-0.1l0,0l0,0.1h-0.2l0,0h-0.1l-0.1,0l0,0l-0.3,0.1l0,0v0.1l0,0l0,0l0,0.2l0.1,0.1
			l0.1,0h0.1l0,0l0.1-0.1l0.1,0.1v0l-0.1,0.1v0.1l0,0h0l0,0.1l0,0.1l0,0.1l-0.1,0.1l-0.2,0.1l-0.1,0L13,9l0,0h0l-0.1,0l-0.1,0l0,0
			l-0.1,0l-0.1,0.2v0.1l0,0.1l-0.1,0.1l0,0.1l0.1,0.5l0,0l0,0.1l0,0l0,0l0,0.1l-0.1,0l-0.1,0l0,0.1l0,0l-0.1,0l-0.3,0l0,0l0,0.1
			l-0.1,0h-0.1l-0.1,0.1l-0.3,0l-0.1,0l-0.1-0.1l0-0.1v0l0,0l-0.3,0l-0.6,0.3l0,0h-0.1l0,0L10,11l0,0l-0.1,0.1l0,0H9.8l-0.1,0.1h0
			l0,0l0-0.1l-0.1-0.1H9.4l-0.1,0H9.3l-0.1-0.1l-0.2,0L8.9,11l0,0l-0.1,0l0,0l-0.1,0l-0.1,0.1l0,0l0,0l-0.1,0.1h0l-0.1,0H8.4l0,0v0
			h0v0h0l0,0l-0.1,0l0,0l0,0l0.1-0.1l0,0v0l0,0l0,0l-0.1,0l0,0L8,11h0l0,0l0,0H7.9l0-0.1l0,0l0,0l0,0l0,0l0,0l0,0l0,0v0l0,0l0,0l0,0
			l0,0l0,0l0,0l0,0l0,0l0,0l0,0l0,0l0,0l0,0l0,0l0,0l0,0h0l0,0h0l0,0h0l0,0l0,0h0l0,0l0,0l0,0h0l0,0l0,0l0,0l-0.1-0.1l-0.1,0l0,0
			l0,0h0l0,0l0.1,0l0,0l0,0l0,0l0,0l0,0l0,0v0l0,0v0l0,0l0,0l0,0l0,0h0l0,0l0,0l0,0l0,0h0l0,0h0l0,0l0,0l0,0l0,0l0,0v0l0,0h0v0l0,0
			l0,0l0,0l0,0l0,0l0,0l0,0l0,0l0,0v0l0,0h0l0,0l0,0l0,0l0-0.1h0l0,0v0l0,0l0,0h0v0l0,0v0l0,0l0,0l0,0l0,0l0,0l0,0h0l0,0l0,0v0l0,0
			h0l0,0l0,0l0,0l0,0v0l0,0l0,0l0,0v0l0,0l0,0l0,0l0,0l0,0l0,0v0l0,0v0l0,0v0l0,0l0,0l0,0l0,0l0,0l0,0l0,0v0l0,0l0,0l0,0l0,0l0,0
			l0,0l0,0l0,0h0l0,0l0,0l0,0l0,0l0,0h0l0,0h0l0,0h0l0,0h0l0,0l0.1,0l0,0v0l0,0v-0.1l0,0l0,0h0l0,0l0,0l0,0l0,0l0,0l0,0l0,0v0l0,0
			l0,0v0l0,0l0,0v0l0,0l0,0l0,0l0,0l0,0l0,0l0,0l0,0l0,0h0l0,0v0l0,0l0,0h0l0,0l0,0l0,0h0l0,0h0l0,0l0,0l0,0h0l0,0l0,0v0h0v0l0,0
			l-0.1,0.1l0,0l0,0l0,0l0,0l0,0l0,0l0,0l0,0v0l0,0l0,0l0,0l0,0l0,0h0l0,0h0l0.1,0l0.1,0l0,0l0,0l0,0l0,0l0,0v0l0,0l0,0l0,0h0v0
			l0.1,0l0,0h0l0,0l0,0h0l0,0l0,0l0,0l0,0v0l0,0l0,0l0,0l0,0v0l0,0l0,0v0l0,0l0,0L8,10l0,0l0,0l0,0l0,0l0,0v0l0,0l0,0l0,0l0,0l0,0
			l0,0l0,0h0l0,0l0,0l0,0l0,0l0,0l0,0l0,0l0,0l0,0v0l0,0l0,0h0l0,0l0,0l0,0l0,0l0-0.1l0,0l0,0l0,0l0,0l0,0l0,0l0,0l-0.1,0l0,0l0,0
			l0,0h0l0,0v0l0,0l0,0l0,0l0,0l0,0l0,0l0,0l0,0l0,0l0,0l0,0l0,0l0,0l0,0l0,0l0,0l0,0l0,0l0,0l0,0l0-0.1l0,0l0-0.1l0,0l0-0.1l0,0
			l0,0l0,0l0,0l0,0l0,0l0,0l0,0l0,0L8,9l0,0l0,0l-0.1,0L7.8,9.3l-0.1,0l-0.1,0l-0.1,0l0,0l0,0l-0.1,0l0,0l0,0l0,0l0,0L7.3,9.6l0,0
			l0,0h0l0,0l0,0v0l0.1,0l0,0l0,0l0,0l0,0l0,0l0,0l0,0l0,0v0h0l0,0l0,0l0,0l0,0l0,0l0,0l0,0v0l0,0l0,0l0,0l0,0l0,0l0,0v0l0,0l0,0
			l0,0l0,0l0,0v0l0,0l0,0v0l0,0l0,0h0l0,0l0,0l0,0l0,0l0,0l0,0l0,0l0,0l0,0l0,0l0,0l0,0l0,0l0,0l0,0h0l0,0l0,0v0l0,0l0,0h0l0,0l0,0
			h0l0,0l0,0h0l0,0l0,0H7.8l0,0l0,0l0,0l0,0l0,0l0,0l0,0l0,0v0l0,0v0l0,0l-0.1,0l0,0l0,0l0,0l0,0l0,0v0l0,0v0l0,0h0l0,0l0,0l0,0l0,0
			l0,0v0l0,0l0,0h0l0,0l0,0l0,0v0l0,0h0v0h0l0,0h0l0,0l0,0v0l0,0l0,0l0,0l0,0l0,0l0,0l0,0h0v0l0,0l0,0l0,0l0,0l0,0v0l0,0l0,0l0,0
			l0,0l0,0l0,0l0,0l0,0l0,0l0,0l0,0l0,0l0,0l0,0h0l0,0l0,0l0,0l0,0l0,0l0,0l0,0h0l0,0v0l0,0l0,0l0,0h0l0,0h0l0,0h0l0,0h0l0,0l0,0
			l0,0l0,0l0,0l0,0l0,0l0,0l0,0l0,0l0,0.1l0,0v0l0,0l0,0l0,0l0,0l0.1,0l0,0l0,0l0,0v0l0,0l0,0l0,0l0,0.2l0,0l0,0l0-0.1l0.1,0l0,0
			l0,0l0,0l0,0l0,0l0,0l0,0l0,0h0l0,0l0,0l0-0.1l0,0.2l0,0l0,0l0,0l0,0l0,0h0l0.1,0.1l0,0l0,0l0,0l0,0l0,0l0,0l0,0v0l0.1,0h0l0,0h0
			l0,0l0,0.1l0,0l0,0.1l0,0v0.1l0,0l0,0.1l0,0v0l0,0h0l0,0.1h0.1v0.1l0,0h0l0,0.1h0v0l0,0l0,0H7.5l0,0l0,0v0l0,0l0,0.2l0-0.1l0,0h0
			v0.1l0,0l0,0l0,0l0-0.1l0,0l0,0l-0.3,0l0,0v0l0,0l0,0.1l0,0h0l0,0l0,0l0,0l0,0l0,0l0,0l0,0l0,0l0,0l0,0v0l0,0v0l0,0l0,0l0,0l0,0h0
			l0,0l0,0l0,0l-0.1,0l0,0l0,0l0,0l0,0h0v0h0l0,0h0l0,0l0,0l0,0h0l0,0l0,0l0,0v0h0l0,0v0l0,0H6.5l-0.1,0l-0.1,0.1l0,0l0,0l0,0v0h0v0
			l0,0l0,0l0,0l0,0l0,0l0,0l0,0l0,0l0,0l0,0l0,0h0l0,0h0l0,0l0,0l0,0v0h0l0,0h0l0,0l0,0l0,0l0,0l0,0l0.1,0l0,0h0l0,0l0,0h0l0,0
			l-0.1,0l0,0l0,0l0,0l0,0l0,0l0,0l0,0l0,0l0,0l0,0v0l0,0l0,0h0l0,0h0l0,0l0,0l0,0h0l0,0h0l0,0h0v0l0,0l0,0l0,0l0,0l0,0l0,0v0l0,0
			l0,0v0l0,0v0l0,0l0,0l0,0l0,0l0,0h0l0,0v0l0,0h0l0,0v0l0,0l0,0l0,0l0,0l0-0.1l0,0l0,0l0,0l0,0v0l0,0l0,0l0,0h0l0,0l0,0l0,0l0,0
			L6,12l0,0l0,0l0,0L6,12.1l-0.1,0.1v0l0,0l0,0h0l0,0h0l0,0h0l0,0h0l0,0l0,0l0,0h0l0,0h0l0,0h0l0,0l0.1,0h0l0,0l0,0h0l0,0h0l0,0l0,0
			l0,0h0v0l0,0v0l0,0h0l0,0h0l0,0h0l0,0l0,0l0,0h0l0,0l-0.1,0l0,0v0l0,0l0,0h0l0,0h0l0,0l0,0h0l0,0h0l0,0v0h0l0,0l0,0l0,0l0,0v0l0,0
			l0,0l0,0h0l0,0h0l0,0h0l0,0l0,0l0,0l0,0l0,0l0,0l0,0h0v0l0,0h0l0,0h0v0l0,0l0,0h0l0,0h0l0,0l0,0l0,0l0,0l0,0l0,0l0,0h0l0,0h0l0,0
			h0l0,0v0l0,0l0,0l0,0l0,0h0l0,0H5.7l0,0l0,0l0,0l0,0h0l0,0l0,0l0,0v0l0,0l-0.1,0l0,0h0l0,0h0l0,0l0,0l0,0l0,0l0,0l0,0v0l0,0l0,0
			l0,0v0l0,0h0l0,0l0,0l0,0l0,0l0,0l0,0l0,0l0,0l0,0h0l0,0l0,0l0,0l0,0l0,0v0h0l0,0h0l0,0l0,0l0,0h0l0,0l0,0v0l0,0l0,0h0l0,0h0l0,0
			l0,0h0l0,0h0l0,0l0,0l0,0H5.5l0,0h0l-0.1,0.1l-0.1,0l0,0l-0.2,0l-0.1,0l-0.2,0l-0.1,0.1l0,0.1l0,0v0.1l0,0l-0.1,0.1H4.4l-0.1,0.1
			h0l-0.2,0.1v0l0,0h0.1v0H4.1l0,0l-0.5,0l-0.1-0.1l0-0.1H3.3l0,0.1l0.1,0.1v0.1l0.1,0.1v0.1l0,0l0,0l-0.3,0l0,0l-0.1,0l0,0
			l-0.2-0.2H2.8l-0.1,0.1l0,0l-0.1,0.1l-0.3,0L2.2,14v0.1h0.1l0,0.1h0v0h0.1l0.1,0v0.1h0.2l0.1,0.1h0.1l0,0.1h0.2l0,0.1l0.1,0l0.1,0
			l-0.1,0.1l0,0.1L3.4,15l0.2,0.1l0.1,0.1l-0.1,0.1l0.1,0.2l0.1,0.1l0,0.1l0,0l0-0.1l0,0H3.6l-0.1,0.7l0,0l0,0.1l-0.2,0.2H3l0,0
			l-0.1,0h0l-0.1,0.1l-0.1,0l-0.1-0.1l-1.4,0l-0.2-0.1l-0.2,0l-0.1,0v0.1l0,0l-0.3,0.1l-0.1,0.1v0l0.1,0.1l0.1,0l0,0l0,0.4l0,0l0,0
			v0l0,0.1v0.1l0,0l0,0.1l0,0l0,0.1l0,0.1v0.1l-0.1,0.1l0,0.1l-0.1,0.1l0,0l-0.1,0.1l0,0l0,0l0,0.2l0,0v0l0.1,0l0.1-0.1v0l-0.1,0.1
			v0.1l0.2,0l0,0l0,0l0,0l0,0.1l0,0.3l0,0.1v0.1l-0.1,0.1l0,0.1l0,0l0.2,0l0.1,0H1l0,0l0.1-0.1l0,0h0.2l0.1,0.1l0.1,0l0,0v0.1l0,0
			l0,0l0,0.1L1.7,20l0,0l0,0h0.1l0.1,0L2,19.9v-0.1L2,19.8l0.2,0l0.1-0.1h0l0,0h0.2l0,0l0.2,0l0,0h0.1l0.1,0L3,19.6h0l0.1,0l0.1-0.1
			l0-0.1l0.2-0.1h0.1l0.1,0v0l0.1-0.1L3.8,19L4,18.8h0l0.1-0.1l-0.2-0.2l0,0l0-0.2l0.3-0.4l0.1-0.1l0,0v-0.1l0.1,0l0,0l0.2-0.1h0.1
			l0,0h0l0.1-0.1h0.1L5,17.4l0,0l0-0.1l0,0v0l0,0V17l0,0l0-0.1l0,0l0-0.1l0.1-0.1l0.1,0l0.1,0l0.2-0.1l0,0v0l0,0l0,0l0.1,0l0,0l0,0
			l0,0l0,0l0,0h0l0,0l0.1,0l0,0l0,0h0l0,0v0l0,0l-0.1,0v0l0.1,0l0,0v0l0,0l0,0l0,0h0l0.1,0h0l0,0l0.1,0l0,0l0.1,0l0,0l0,0l0.2,0
			l0-0.1l0,0l0.1-0.1l0,0l0,0l0,0l0,0l0,0v0l0,0l0.1,0l0,0l0.1,0l0,0l0.2-0.1l0-0.1l0.1-0.1v-0.1l0.1-0.1h0.2l0.1,0.1h0.1l0.3,0.1
			l0.1,0.2l0.1,0.1v0.1l0.1,0.1l0,0l0.8,0.6l0.1,0l0.1,0.1h0.2l0.3,0.3h0.1l0.2,0.3l0.1,0.1h0.1l0.1,0v0.1l0.1,0v0.2l0.1,0.1
			l-0.1,0.1l0,0.1h-0.1v0.1l0,0.1L10.2,19v0.1l0.2,0l0.2-0.2v-0.1l0.1-0.1l0.2-0.1l0-0.2l-0.2-0.2v-0.1l0.2-0.2h0.1l0.1,0.1l0.2,0
			l0.1,0.1v0.1h0.2l0-0.1l0-0.1l-0.6-0.4h0l-0.4-0.2l0-0.1l0.1-0.1l-0.1-0.1l-0.5,0l-0.1-0.1l-0.2-0.1L9.6,17l0-0.3l-0.2-0.3
			l-0.1-0.1h0l-0.2-0.3v-0.2L9,15.9v-0.1L9,15.7l0-0.1l-0.1,0L9,15.5l0.1,0l0,0l0.1,0h0l0,0l0,0l0.1,0l0,0l0,0l0,0h0l0,0.1l0.1,0
			l0,0l0,0l0,0l0,0.1l0.1,0.2l0,0l0,0l0,0l0,0l0,0l0-0.1v-0.1l0,0h0l0.1,0l0,0l0.1,0.1l0,0l0,0l0,0.2l0.1,0.2l0,0.1l0.1,0.1l0,0
			l0.2,0.1l0,0.1l0,0l0,0l0,0l0.1,0l0.3,0.1l0.6,0.4l0,0l0.3,0.3v0.1l0,0.1v0.2l0,0.1V18l0.3,0.2l0,0.1l0,0l0,0.1l0.1,0.1l0.1,0
			l0.1,0l0,0l0,0l-0.2,0l0,0.1l0,0l0,0.1l0,0l0,0l0,0l0,0l0,0l0,0l0,0.1l0,0l0,0l0.1,0l0,0h0l0,0l0.1,0l0.3,0.1l0.2,0.1l0,0l0,0l0,0
			l0,0l0,0l0,0l0,0L12.9,19l0,0l-0.1,0l0,0l-0.1,0l-0.1,0l0,0l0,0l0,0l-0.1,0l0,0l0,0l0,0l0,0l0,0l-0.1,0l0,0l0.1,0.1l0,0l0.1,0
			l0.1,0.1l0,0.1l0,0l0,0l0,0l0,0l0,0l0,0l0,0l0,0l0,0l0.1,0l0,0l0,0l0,0l0,0l0,0l0,0l0,0v0l0.1,0.1l0,0.1l0,0l0,0l0,0l0,0l0.1-0.1
			l0,0l0.1,0l0,0l0,0l0,0l0,0l0,0l0,0l0,0l0,0l0,0l-0.1-0.1l0-0.1L13,19.3l0,0l0,0l0,0l0,0l0,0l0,0l0,0l0.1,0l0,0l0,0l0.1,0l0,0l0,0
			l0,0l0,0l0,0l0,0l0,0l0-0.1l0,0l0,0l0.1,0l0.1,0l0.1,0.1l0,0l0.1,0.1l0,0l0,0l0,0l0-0.2l0,0l0,0l0,0l-0.1,0l-0.2-0.1l0,0l0,0l0,0
			l0,0l0,0l0,0L13,18.7l0,0l0,0l0.1,0l0,0l0,0l0,0l0,0l0-0.1l0,0l0,0l0,0l0,0l0.1,0l0,0l0,0l0,0l0,0L13,18.1L13,18l0-0.1l0,0h0
			l0.1,0l0.1,0.1l0,0h0l0,0.1v0l0.1,0.1l0,0v-0.1l0,0v0l0,0l0.1,0.1h0l0,0l-0.1-0.1l0,0l0,0l0.1,0.1l0,0v0l-0.2-0.2l0-0.1l0.2,0
			l0.1-0.1h0.2l0,0H14l0,0l0.1,0.1l0.1,0h0.1l0,0h0.1v0l0.1-0.1l0-0.2l0.1,0l0-0.1l-0.1-0.2l0.1-0.1l0.2-0.1h0l0,0l0.2,0l0,0l0-0.1
			L15,17.1l0-0.1l0.2-0.5l0.1,0l0,0l0.1-0.5l0.1-0.1l0,0l0,0l0,0v-0.1l0,0l0,0.1l0.2,0l0.1-0.1l0-0.1l0,0l0,0l0-0.1v-0.1h0l0.1-0.1
			l0.1,0l0.1-0.1h0l0.1-0.2l0.1-0.1l0.2,0l0.1,0h0.1l0.1-0.1l0-0.1l-0.1-0.1l0-0.1v0l0.1,0.1l0,0.2l0,0l0.1,0l0,0H17L16.9,15h-0.2
			l0,0l0,0.1l0,0l0.7,0.1l0,0.1l0,0h-0.1L17,15.6H17l0.3,0.1l0,0l0,0.2L17.3,16l0.1,0l0,0h0.1l0.2-0.1l0-0.1l0.2,0l0.1-0.1l0,0
			l0.1,0l0.1,0h0.1l0.1-0.1h0.1l0.1-0.1v-0.1l-0.1,0l-0.1,0l-0.2,0l-0.1,0l-0.1,0l-0.2-0.3v-0.1l0.1,0l0.1-0.1l0.1,0l0.1-0.1l0.2,0
			l0,0l0.1,0l0.6-0.2l0-0.2l0.1-0.1l0.1,0l0.1-0.1l0.4,0l0-0.1l0,0l0-0.2l0,0l0,0l0.1-0.1l0-0.1l0.1,0l0-0.1L19.9,13.5L19.9,13.5
			L19.9,13.5z"/>
		<polygon points="6.2,6.8 6.3,6.8 6.3,6.8 6.3,6.8 6.2,6.8 6.1,6.9 6.9,6.9 7,6.9 7,7 7,7 6.9,7 6.9,7.1 6.8,7 6.3,7 6.1,7.2 
			6.2,7.2 6.2,7.2 6.2,7.2 6.3,7.3 6.3,7.3 6.3,7.3 6.3,7.4 6.3,7.4 6.2,7.4 6.1,7.5 6.1,7.5 6.1,7.6 6.2,7.5 6.3,7.5 6.3,7.6 
			6.4,7.6 6.6,7.4 6.6,7.4 6.7,7.5 6.7,7.5 6.6,7.5 6.6,7.5 6.5,7.5 6.5,7.6 6.4,7.6 6.3,7.7 6.4,7.8 6.4,7.8 6.5,7.8 6.5,7.8 
			6.4,7.8 6.3,8 6.3,8 6.1,8 6.2,8 6.2,8.1 6.3,8.1 6.4,8 6.3,8 6.5,8 6.6,7.9 6.6,7.9 6.5,8 6.5,8.1 6.5,8.1 6.5,8.1 6.5,8.2 
			6.4,8.2 6.5,8.3 6.5,8.2 6.6,8.2 6.5,8.3 6.4,8.3 6.3,8.2 6.3,8.3 6.3,8.4 6.3,8.4 6.4,8.5 6.4,8.6 6.5,8.6 6.5,8.7 6.6,8.7 
			6.7,8.7 6.7,8.7 6.8,8.7 6.7,8.8 6.8,8.8 6.9,8.8 7.1,8.8 7.2,8.8 7.2,8.8 7.3,8.8 7.4,8.8 7.4,8.7 7.5,8.7 7.5,8.6 7.6,8.6 
			7.6,8.6 7.7,8.4 7.8,8.4 7.8,8.4 7.9,8.3 7.9,8.2 7.9,8.2 8,8.3 8,8.3 8,8.2 8.1,8.2 8.1,8.2 8.2,8 8.1,8 8.1,7.9 8.2,7.9 
			8.2,7.8 8.3,7.7 8.3,7.8 8.3,7.8 8.3,7.9 8.3,8 8.3,8 8.3,8.1 8.5,8.2 8.5,8.3 8.5,8.3 8.5,8.6 8.6,8.6 8.6,8.7 8.6,8.7 8.7,8.8 
			8.7,9 8.8,9.1 8.8,9.1 8.9,9.2 8.9,9.3 8.9,9.4 8.9,9.4 9.1,9.6 9.1,9.6 9.1,9.6 9.2,9.7 9.1,9.7 9.1,9.8 9.1,10.1 9.2,10.1 
			9.2,10.2 9.2,10.3 9.3,10.4 9.4,10.4 9.5,10.3 9.7,10.3 9.7,10.2 9.7,10.2 9.7,10.2 9.7,10.1 9.7,10.1 9.8,10 9.8,10 9.8,10 
			9.9,10 9.9,9.9 10,9.9 10,9.9 10.2,9.9 10.3,9.9 10.3,10 10.4,9.9 10.4,9.9 10.4,9.8 10.4,9.7 10.5,9.7 10.5,9.6 10.6,9.5 
			10.6,9.5 10.6,9.4 10.6,9.2 10.6,9.2 10.7,9.2 10.6,9 10.6,8.9 10.7,8.9 10.7,8.7 10.7,8.7 10.7,8.6 10.7,8.6 10.7,8.6 10.7,8.5 
			10.7,8.5 10.8,8.5 10.8,8.4 10.9,8.4 11,8.4 11.1,8.3 11,8.3 11.1,8.3 11.1,8.3 11.1,8.3 11.1,8.4 11.3,8.1 11.3,8.1 11.3,8 
			11.3,8 11.3,8.1 11.4,8.1 11.4,8.1 11.4,8.1 11.3,8 11.3,8 11.4,7.9 11.5,7.9 11.6,7.7 11.5,7.6 11.4,7.6 11.3,7.5 11.3,7.5 
			11.2,7.4 11.2,7.4 11.1,7.4 11,7.3 10.9,7.3 10.9,6.9 10.9,6.9 10.9,6.7 10.9,6.6 10.9,6.5 11,6.5 11,6.5 11,6.4 11,6.3 11,6.3 
			11,6.3 11,6.1 11.1,6.1 11.2,6.1 11.2,5.9 11.2,5.9 11.2,6 11.3,5.9 11.4,5.8 11.4,5.8 11.5,5.8 11.5,5.7 11.6,5.7 11.9,5.5 
			11.9,5.5 12,5.5 12,5.4 12.1,5.4 12.2,5.3 12.3,5.3 12.3,5.3 12.3,5.2 12.3,5.2 12.6,4.9 12.6,4.9 12.6,4.9 12.5,4.8 12.5,4.7 
			12.5,4.7 12.5,4.6 12.6,4.6 12.6,4.5 12.6,4.4 12.7,4.4 12.6,4.4 12.7,4.3 12.7,4.3 12.8,4.3 12.8,4.2 12.8,4.2 12.9,4.2 
			12.9,4.2 12.9,4.1 12.9,4.1 13,4.1 13,4.1 13.1,4 13.1,4 13.1,4.1 13.2,4.1 13.8,4.1 13.8,4.1 13.9,4.1 13.9,4.2 13.9,4.1 14,4.2 
			14.1,4.2 14.1,4.4 14.1,4.4 14.1,4.5 14.1,4.6 14.1,4.6 14.1,4.6 14.1,4.7 13.9,4.7 13.9,4.7 13.8,4.7 13.4,5.2 13.4,5.2 
			13.3,5.2 13.3,5.3 13.3,5.3 13.3,5.3 13.2,5.3 13.1,5.4 13,5.4 13,5.4 12.9,5.5 12.9,5.6 12.9,5.7 12.9,5.7 12.6,5.7 12.6,5.7 
			12.6,5.9 12.5,5.9 12.5,6 12.5,6.2 12.5,6.3 12.5,6.3 12.5,6.3 12.5,6.5 12.6,6.6 12.6,6.7 12.6,6.8 12.6,6.9 12.6,6.9 12.6,7 
			12.6,7 12.5,7.2 12.6,7.3 12.6,7.3 12.7,7.3 12.7,7.4 12.8,7.4 12.8,7.4 13,7.4 13,7.5 13,7.5 13.1,7.5 13.1,7.5 13.2,7.6 
			13.2,7.6 13.3,7.7 13.8,7.6 13.8,7.6 13.9,7.6 14,7.6 14.3,7.5 14.3,7.5 14.4,7.5 14.4,7.5 14.4,7.5 14.6,7.4 14.6,7.4 15.1,7.4 
			16.5,6.1 16.6,5.9 16.6,5.9 16,5.4 16.1,5.3 16.2,5.2 16.2,5.1 16,4.9 16,4.8 16,4.8 16,4.8 15.8,4.7 15.8,4.6 15.9,4.5 15.9,4.5 
			15.8,4.4 15.9,4.1 16,4.1 16,4 15.6,3.3 15.6,3.3 15.9,2.9 15.9,2.8 15.9,2.8 15.6,2.5 15.5,2.5 15.4,2.3 15.4,2.3 15.4,2.2 
			15.4,2.1 15.4,2 15.4,2 15.4,1.9 15.5,1.9 15.5,1.8 15.6,1.8 15.7,1.8 15.7,1.7 15.8,1.7 15.8,1.6 15.9,1.6 16,1.5 16.1,1.4 
			16.2,1.5 16.3,1.5 16.3,1.5 16.3,1.4 16.3,1.4 16.3,1.3 16.2,1.3 16.2,1.4 16.1,1.3 16.1,1.3 15.9,1.3 15.9,1.3 15.8,1.2 
			15.7,1.2 15.7,1.2 15.6,1.1 15.5,1.1 15.6,1.1 15.7,1.1 16,1.1 16.2,1 16.3,1 16.3,1 16.4,1 16.3,0.9 16.3,0.8 16.1,0.8 16,0.7 
			15.7,0.7 15.7,0.6 15.7,0.6 15.5,0.6 15.4,0.7 15.4,0.7 15.3,0.9 15.3,0.9 15.2,0.8 15.2,0.8 15.2,0.7 15.3,0.7 15.2,0.7 
			15.2,0.7 15.2,0.6 15.3,0.6 15.4,0.5 15.3,0.5 15.3,0.5 15.3,0.5 15.3,0.4 15.2,0.4 15.1,0.4 15,0.4 15,0.4 14.9,0.5 14.9,0.5 
			15,0.6 14.9,0.7 14.8,0.8 14.8,0.8 14.8,0.8 14.8,0.8 14.7,0.8 14.6,0.9 14.6,0.9 14.6,0.7 14.6,0.7 14.6,0.5 14.6,0.5 14.6,0.5 
			14.5,0.6 14.5,0.6 14.2,0.9 14.1,1 14.1,1.1 14,1.1 14,1 14,1 14,1 14,0.9 14.1,0.8 14,0.8 14.1,0.8 14.2,0.6 14.3,0.6 14.3,0.5 
			14.5,0.5 14.3,0.4 14.2,0.4 14.2,0.4 14.2,0.5 14.2,0.5 14.1,0.5 14.1,0.5 14,0.5 14,0.5 14,0.5 13.8,0.5 13.8,0.6 13.8,0.6 
			13.8,0.6 13.8,0.7 13.7,0.7 13.7,0.8 13.5,0.8 13.5,0.9 13.4,1 13.3,1 13.3,1.1 13.3,1.1 13.2,1.2 13.1,1.1 13.1,1 13.1,1 
			13.1,0.9 13,1 13,1 12.9,1 12.8,1 12.8,1 12.7,1 12.5,1 12.5,1 12.6,1.1 12.7,1.1 12.8,1.1 12.8,1.2 12.7,1.3 12.7,1.2 12.6,1.2 
			12.6,1.2 12.5,1.2 12.5,1.3 12.4,1.3 12.4,1.3 12.2,1.4 12.3,1.5 12.2,1.5 12,1.6 12.1,1.6 12.1,1.5 12.1,1.5 12.1,1.4 12.2,1.4 
			12.2,1.2 11.9,1.4 11.9,1.4 11.9,1.4 11.9,1.5 11.8,1.6 11.8,1.5 11.9,1.4 11.7,1.4 11.6,1.4 11.6,1.5 11.6,1.5 11.7,1.6 
			11.6,1.6 11.5,1.6 11.5,1.5 11.5,1.4 11.4,1.4 11.3,1.4 11.3,1.5 11.4,1.5 11.4,1.6 11.5,1.7 11.4,1.7 11.4,1.7 11.2,1.5 
			11.2,1.5 11.2,1.5 11.2,1.4 11,1.5 11,1.5 10.9,1.5 10.9,1.6 10.8,1.7 10.9,1.7 10.8,1.8 10.8,1.8 11,1.8 11,1.8 11.1,1.8 11,1.9 
			11,2 11.1,2 11.1,2 11,2.1 10.9,2 10.8,2.1 10.7,2.1 10.7,2.2 10.7,2.2 10.9,2.3 10.9,2.2 11,2.2 11,2.3 10.9,2.3 10.9,2.4 
			10.9,2.4 10.8,2.3 10.8,2.3 10.6,2.3 10.6,2.4 10.7,2.4 10.5,2.5 10.6,2.6 10.5,2.6 10.5,2.6 10.5,2.5 10.4,2.5 10.3,2.5 
			10.4,2.6 10.3,2.7 10.2,2.7 10.1,2.6 10.1,2.6 10,2.7 10,2.7 9.9,2.8 10.1,2.8 10.1,2.7 10.2,2.8 10.3,2.8 10.3,2.8 10.2,2.8 
			10.1,2.9 10.2,2.9 10.3,2.9 10.3,3 10.1,3 10,2.9 10,3 9.8,3 9.9,3.1 10.3,3.1 10.2,3.2 10.1,3.2 10,3.1 9.9,3.1 9.8,3.2 9.7,3.2 
			9.5,3.4 9.5,3.4 9.4,3.5 9.4,3.6 9.4,3.6 9.3,3.6 9.3,3.7 9.3,3.7 9.6,3.7 9.5,3.8 9.2,3.8 9.3,4 9.3,4 9.2,4 9.1,4 9.1,4.1 
			9.1,4.1 9,4.1 9,4.1 9,4.2 9.1,4.2 9.1,4.3 9,4.3 9,4.3 8.9,4.3 8.9,4.3 8.9,4.4 9,4.4 9,4.4 9,4.4 9.1,4.4 9,4.5 8.7,4.6 
			8.7,4.6 8.8,4.7 8.7,4.7 8.6,4.8 8.6,4.8 8.7,4.9 8.6,4.9 8.6,5 8.6,5 8.5,4.9 8.4,4.9 8.3,5 8.3,5 8.3,5 8.2,5.1 8.1,5.1 
			8.1,5.1 8.1,5.2 8.1,5.2 8.1,5.2 8,5.3 8,5.4 8,5.4 8,5.5 8,5.5 8.1,5.5 8.1,5.5 8.2,5.4 8.2,5.4 8.3,5.4 8.3,5.4 8.4,5.4 
			8.3,5.3 8.4,5.3 8.5,5.2 8.6,5.2 8.6,5.2 8.5,5.3 8.5,5.3 8.5,5.4 8.5,5.4 8.4,5.4 8.3,5.5 8.4,5.5 8.4,5.5 8.4,5.6 8.1,5.6 
			8.1,5.6 8.1,5.6 8,5.7 8,5.6 7.9,5.5 7.9,5.5 7.7,5.7 7.7,5.6 7.6,5.6 7.5,5.6 7.5,5.7 7.5,5.8 7.4,5.8 7.4,5.8 7.5,5.9 7.4,5.9 
			7.4,5.9 7.3,5.8 7.3,5.8 7.4,6 7.4,6 7.3,5.9 7.2,5.9 7.2,5.9 7.2,5.8 7.1,5.8 7.1,5.9 6.9,5.9 6.8,5.9 6.9,6 7,6 7.1,6 7,6.1 
			6.9,6.1 6.8,6.1 6.6,6.1 6.7,6.2 6.8,6.2 6.9,6.3 6.9,6.4 6.9,6.3 6.6,6.2 6.7,6.2 6.6,6.2 6.6,6.3 6.6,6.3 6.5,6.3 6.4,6.3 
			6.5,6.4 6.3,6.4 6.2,6.5 6.4,6.5 6.4,6.6 6.1,6.6 6.1,6.7 		"/>
	</g>
</g>
<g id="Слой_2">
</g>
<g id="Слой_3">
</g>
</svg>
