<?xml version="1.0" encoding="utf-8"?>
<!-- Generator: Adobe Illustrator 21.0.0, SVG Export Plug-In . SVG Version: 6.00 Build 0)  -->
<svg version="1.1" id="Слой_1" xmlns="http://www.w3.org/2000/svg" xmlns:xlink="http://www.w3.org/1999/xlink" x="0px" y="0px"
	 viewBox="0 0 41.5739746 76.8980103" style="enable-background:new 0 0 41.5739746 76.8980103;" xml:space="preserve">
<path d="M40.0119934,0.0149841L30.0389709,0C18.835968,0,11.5939941,7.4290161,11.5939941,18.9249878v8.7270203H1.565979
	C0.7030029,27.6520081,0,28.3509827,0,29.2180176v12.644989c0,0.8630066,0.7030029,1.5660095,1.565979,1.5660095h10.0280151
	v31.9029846c0,0.8629761,0.7030029,1.5660095,1.5699768,1.5660095h13.0780334c0.8669739,0,1.5699768-0.7030334,1.5699768-1.5660095
	V43.4290161h11.7229919c0.8670044,0,1.5670166-0.7030029,1.5670166-1.5660095l0.0069885-12.644989
	c0-0.4140015-0.1679688-0.8120422-0.460968-1.1090088c-0.2929993-0.2929993-0.6910095-0.4570007-1.1090088-0.4570007H27.8119812
	v-7.3980103c0-3.5549927,0.8479919-5.3599854,5.4769897-5.3599854l6.7189941-0.0040283
	c0.8670349,0,1.5660095-0.7029724,1.5660095-1.565979V1.585968C41.5739746,0.7179871,40.875,0.0190125,40.0119934,0.0149841
	L40.0119934,0.0149841z M40.0119934,32.3483162"/>
</svg>
