<?xml version="1.0" encoding="utf-8"?>
<!-- Generator: Adobe Illustrator 21.0.2, SVG Export Plug-In . SVG Version: 6.00 Build 0)  -->
<svg version="1.1" xmlns="http://www.w3.org/2000/svg" xmlns:xlink="http://www.w3.org/1999/xlink" x="0px" y="0px"
	 viewBox="0 0 20 20" style="enable-background:new 0 0 20 20;" xml:space="preserve">
<style type="text/css">
	.st0{fill:#FFFFFF;}
	.st1{clip-path:url(#SVGID_2_);}
	.st2{clip-path:url(#SVGID_4_);}
	.st3{clip-path:url(#SVGID_6_);}
	.st4{clip-path:url(#SVGID_8_);fill-rule:evenodd;clip-rule:evenodd;fill:#121111;}
	.st5{clip-path:url(#SVGID_10_);fill-rule:evenodd;clip-rule:evenodd;}
</style>
<g id="Слой_1">
	<path d="M14.1,18.6c0-0.4,0.1-0.8,0.2-1.2c0.3-0.9,0.9-1.5,1.9-1.7v-3.9h-2.1c-0.2,0-0.3-0.1-0.3-0.3V11c0-0.2,0.1-0.3,0.3-0.3h0.5
		l-0.5-2.8c-0.1-0.4,0.2-0.7,0.6-0.7h1.5V5.7l-2.1-1.2c-0.1-0.1-0.2-0.3-0.1-0.4l0.3-0.5c0.1-0.1,0.3-0.2,0.4-0.1l1.7,1l0.4-1.4
		L14.7,2c-0.1-0.1-0.2-0.3-0.1-0.4l0.3-0.5c0.1-0.1,0.3-0.2,0.4-0.1l2,1.1l0.9-1.6c0.1-0.1,0.3-0.2,0.4-0.1L19,0.6
		c0.1,0.1,0.2,0.3,0.1,0.4l-1.3,2.3l-0.5,2.2v1.7h1.5c0.4,0,0.6,0.3,0.6,0.7l-0.5,2.8h0.5c0.2,0,0.3,0.1,0.3,0.3v0.6
		c0,0.2-0.1,0.3-0.3,0.3h-2.1v3.9c1,0.2,1.6,0.8,1.9,1.7c0.1,0.4,0.2,0.8,0.2,1.2h0.3c0.2,0,0.3,0.1,0.3,0.3v0.6
		c0,0.2-0.1,0.3-0.3,0.3H0.3c-0.2,0-0.3-0.1-0.3-0.3v-0.6c0-0.2,0.1-0.3,0.3-0.3h2v-1.5H1.8c-0.6,0-1.2-0.5-1.2-1.2v-4.4
		c0-0.8,0.7-1.5,1.5-1.5c0.8,0,1.5,0.7,1.5,1.5v3.2h5.9v-3.2c0-0.8,0.7-1.5,1.5-1.5c0.8,0,1.5,0.7,1.5,1.5v4.4
		c0,0.6-0.5,1.2-1.2,1.2h-0.6v1.5H14.1L14.1,18.6z M18.2,18.6c0-0.3,0-0.6-0.1-0.8c-0.1-0.4-0.4-0.7-0.8-0.8v1.7H18.2L18.2,18.6z
		 M16.1,18.6v-1.7c-0.4,0.1-0.6,0.4-0.8,0.8c-0.1,0.3-0.1,0.6-0.1,0.8H16.1z M3.6,17.1v1.5h5.9v-1.5H3.6z M2.5,9.3
		c0.3-0.9,1.2-1.5,2.2-1.5h3.5c1,0,1.9,0.6,2.2,1.5c-1.1,0.2-1.9,1.2-1.9,2.3v2.3H4.4v-2.3C4.4,10.4,3.6,9.5,2.5,9.3L2.5,9.3z"/>
</g>
<g id="Слой_2">
</g>
<g id="Слой_3">
</g>
</svg>
