<?xml version="1.0" encoding="utf-8"?>
<!-- Generator: Adobe Illustrator 21.0.2, SVG Export Plug-In . SVG Version: 6.00 Build 0)  -->
<svg version="1.1" id="Слой_1" xmlns="http://www.w3.org/2000/svg" xmlns:xlink="http://www.w3.org/1999/xlink" x="0px" y="0px"
	 viewBox="0 0 17 17" style="enable-background:new 0 0 17 17;" xml:space="preserve">
<style type="text/css">
	.st0{fill:#FFFFFF;}
	.st1{clip-path:url(#XMLID_95_);}
	.st2{fill:#12100B;}
	.st3{clip-path:url(#XMLID_96_);}
	.st4{fill:#211915;}
	.st5{fill:#231F20;}
	.st6{fill:#1E120D;}
	.st7{fill:none;}
</style>
<g id="XMLID_347_">
	<g id="XMLID_348_">
		<path id="XMLID_353_" class="st6" d="M13,15.4v-1.3H4v2.6C4,16.9,4.1,17,4.2,17l8.6-1.3C12.9,15.6,13,15.6,13,15.4L13,15.4z
			 M13,15.4"/>
		<path id="XMLID_349_" class="st6" d="M8.5,2C8.3,2,8.2,2.2,8.2,2.4v0.5L2.6,5.7C2.2,6,1.9,6.5,2.1,7c0.1,0.5,0.6,0.9,1.1,0.9H4
			v5.6h9V7.9h0.8c0.5,0,1-0.3,1.1-0.9c0.1-0.5-0.1-1-0.6-1.3L8.8,2.9V2.6c0.6-0.1,1-0.7,1-1.3C9.8,0.6,9.2,0,8.5,0
			C7.8,0,7.2,0.6,7.2,1.3c0,0.2,0.1,0.3,0.3,0.3c0.2,0,0.3-0.1,0.3-0.3c0-0.4,0.3-0.7,0.7-0.7c0.4,0,0.7,0.3,0.7,0.7
			C9.2,1.7,8.9,2,8.5,2L8.5,2z M14.3,6.9c0,0.2-0.2,0.4-0.5,0.4H13c-0.1-0.4-0.4-0.7-0.8-0.7H4.8C4.4,6.6,4.1,6.8,4,7.2H3.2
			C2.9,7.2,2.7,7,2.7,6.9c0-0.2,0-0.4,0.2-0.5l5.6-2.9l5.6,2.9C14.3,6.5,14.3,6.7,14.3,6.9L14.3,6.9z M14.3,6.9"/>
	</g>
</g>
</svg>
