<?xml version="1.0" encoding="utf-8"?>
<!-- Generator: Adobe Illustrator 21.0.0, SVG Export Plug-In . SVG Version: 6.00 Build 0)  -->
<svg version="1.1" id="Слой_1" xmlns="http://www.w3.org/2000/svg" xmlns:xlink="http://www.w3.org/1999/xlink" x="0px" y="0px"
	 viewBox="0 0 137.4 150.5" style="enable-background:new 0 0 137.4 150.5;" xml:space="preserve">
<path d="M95.4,23.4L73.6,1.7C72.6,0.6,71.1,0,69.7,0c-1.5,0-2.9,0.6-3.9,1.7L44,23.4c-2.2,2.2-2.2,5.7,0,7.9c1.1,1.1,2.5,1.6,4,1.6
	c1.5,0,2.9-0.6,4-1.6l12.2-12.2v66.8c0,3.1,2.5,5.6,5.6,5.6s5.6-2.5,5.6-5.6V19.2l12.2,12.2c1.1,1.1,2.5,1.6,4,1.6c0,0,0,0,0,0
	c1.5,0,2.9-0.6,3.9-1.7C97.6,29.1,97.5,25.6,95.4,23.4z"/>
<path d="M137.1,96.4l-14.3-51.6c-0.4-1.6-1.6-2.9-3.1-3.6l-0.4-0.2c-0.7-0.3-1.5-0.5-2.3-0.5H91.4c-3.1,0-5.6,2.5-5.6,5.6
	s2.5,5.6,5.6,5.6h21.8l11.2,40.7H94.5c-3.1,0-5.6,2.5-5.6,5.6v3.7c0,4.6-3.7,8.3-8.3,8.3h-25c-4.6,0-8.3-3.7-8.3-8.3V98
	c0-3.1-2.5-5.6-5.6-5.6H12.9l11.3-40.8H46c3.1,0,5.6-2.5,5.6-5.6c0-3.1-2.5-5.6-5.6-5.6H20.3c-0.8,0-1.6,0.2-2.3,0.5l-0.4,0.2
	c-1.5,0.7-2.7,2-3.1,3.6L0.2,96.4c-0.1,0.5-0.2,1-0.2,1.5v21.5c0,17.1,13.9,31.1,31.1,31.1h75.2c17.1,0,31.1-13.9,31.1-31.1V97.9
	C137.4,97.5,137.3,97,137.1,96.4z M126.2,117.9L126.2,117.9l-0.1,1.5c0,11-8.9,19.9-19.9,19.9H31.1c-11,0-19.9-8.9-19.9-19.9v-15.8
	h24.9c1,9.8,9.4,17.6,19.5,17.6h25c10,0,18.5-7.8,19.5-17.6h26.2V117.9z"/>
</svg>
