<?xml version="1.0" encoding="utf-8"?>
<!-- Generator: Adobe Illustrator 21.0.2, SVG Export Plug-In . SVG Version: 6.00 Build 0)  -->
<svg version="1.1" id="Слой_1" xmlns="http://www.w3.org/2000/svg" xmlns:xlink="http://www.w3.org/1999/xlink" x="0px" y="0px"
	 viewBox="0 0 17 17" style="enable-background:new 0 0 17 17;" xml:space="preserve">
<style type="text/css">
	.st0{fill:#FFFFFF;}
	.st1{fill:#12100B;}
	.st2{clip-path:url(#XMLID_217_);}
	.st3{clip-path:url(#XMLID_218_);}
	.st4{clip-path:url(#XMLID_219_);fill:#12100B;}
	.st5{clip-path:url(#XMLID_220_);fill:#020400;}
	.st6{fill:#020400;}
	.st7{clip-path:url(#XMLID_240_);}
	.st8{clip-path:url(#XMLID_241_);}
	.st9{clip-path:url(#XMLID_244_);fill:#12100B;}
	.st10{clip-path:url(#XMLID_247_);fill:#020400;}
</style>
<g id="XMLID_216_">
	<g id="XMLID_309_">
		<path id="XMLID_313_" d="M16.9,1.6c-1.5-1.5-4.3-1.5-6.9-0.1c-0.1,1.3,0.4,2.7,1.4,3.7c0.8,0.8,1.9,1.3,2.9,1.4
			C16.3,4.2,17.4,2.1,16.9,1.6L16.9,1.6z M14.1,2.5c-0.2,0.2-0.6,0.2-0.8,0c-0.2-0.2-0.2-0.6,0-0.8c0.2-0.2,0.6-0.2,0.8,0
			C14.3,1.9,14.3,2.3,14.1,2.5L14.1,2.5z M14.1,2.5"/>
		<path id="XMLID_310_" d="M9,2C8.8,2.2,8.6,2.3,8.5,2.4L8,2.2C7.6,2,7.1,2.1,6.8,2.4L3.6,5.6C3.4,5.8,3.3,6.1,3.4,6.4
			c0,0.3,0.2,0.6,0.5,0.7l0.7,0.4c-0.7,1.7-1.1,3.3-1.2,4.4L0.3,13c-0.1,0-0.2,0.2-0.2,0.3c0,0.1,0.1,0.3,0.2,0.4l1.4,0.6
			c0.3,0.1,0.5,0.3,0.6,0.6l0.6,1.4c0.1,0.1,0.2,0.2,0.4,0.2c0.1,0,0.3-0.1,0.3-0.2l1.1-3.1c1.5-0.2,4-1.4,6.2-3.1l0.2,0.8
			c0,0.1,0.2,0.2,0.3,0.3c0.1,0,0.3,0,0.4-0.1l0.3-0.3c0.2-0.2,0.3-0.5,0.3-0.8l0.1-1.3c0.4-0.4,0.8-0.8,1.1-1.2
			c-1-0.2-2-0.8-2.8-1.6C9.7,4.8,9.1,3.4,9,2L9,2z M9,2"/>
	</g>
</g>
</svg>
