<?xml version="1.0" encoding="utf-8"?>
<!-- Generator: Adobe Illustrator 21.0.2, SVG Export Plug-In . SVG Version: 6.00 Build 0)  -->
<svg version="1.1" id="Слой_1" xmlns="http://www.w3.org/2000/svg" xmlns:xlink="http://www.w3.org/1999/xlink" x="0px" y="0px"
	 viewBox="0 0 17 17" style="enable-background:new 0 0 17 17;" xml:space="preserve">
<style type="text/css">
	.st0{fill:#FFFFFF;}
	.st1{clip-path:url(#XMLID_95_);}
	.st2{fill:#12100B;}
	.st3{clip-path:url(#XMLID_96_);}
	.st4{fill:#211915;}
	.st5{fill:#231F20;}
	.st6{fill:#1E120D;}
	.st7{fill:none;}
</style>
<g id="XMLID_148_">
	<polygon id="XMLID_150_" class="st2" points="0,12.8 17,12.8 17,14.6 0,14.6 0,12.8 	"/>
	<path id="XMLID_149_" class="st2" d="M16.2,11.8c0-2-0.8-3.9-2.3-5.3c-1.2-1.2-2.7-2-4.4-2.2c0.1-0.2,0.2-0.4,0.2-0.6
		c0-0.7-0.6-1.3-1.3-1.3C7.8,2.4,7.2,3,7.2,3.7c0,0.2,0.1,0.4,0.2,0.6C5.8,4.5,4.2,5.3,3,6.5c-1.4,1.4-2.2,3.3-2.3,5.3H16.2
		L16.2,11.8z"/>
</g>
</svg>
