<?xml version="1.0" encoding="utf-8"?>
<!-- Generator: Adobe Illustrator 21.0.0, SVG Export Plug-In . SVG Version: 6.00 Build 0)  -->
<svg version="1.1" id="Слой_1" xmlns="http://www.w3.org/2000/svg" xmlns:xlink="http://www.w3.org/1999/xlink" x="0px" y="0px"
	 viewBox="0 0 366.5969543 234.5651855" style="enable-background:new 0 0 366.5969543 234.5651855;" xml:space="preserve">
<style type="text/css">
	.st0{fill:#F34A38;}
</style>
<g>
	<path class="st0" d="M128.6199341,141.479187h57.2769928c-10.0540009,28.4219666-37.2849884,48.8009644-69.1599808,48.5669861
		c-38.6790009-0.2850037-70.6640167-31.2270203-72.1640167-69.8789902
		c-1.6089783-41.4300079,31.6290131-75.6520081,72.7070007-75.6520081c18.7850113,0,35.9260025,7.1600037,48.8479996,18.8860016
		c3.0619965,2.7779999,7.7190247,2.7969971,10.7299957-0.0390015l21.0390015-19.7969971
		c3.2900085-3.0970001,3.3010254-8.3280029,0.0200195-11.4329987C177.4249268,12.71418,149.9329376,0.6121749,119.6159439,0.0221786
		c-64.6599884-1.2649994-119.1640167,51.75-119.6129913,116.4219818
		c-0.4570007,65.1600266,52.2259979,118.1210251,117.2769775,118.1210251
		c62.5630112,0,113.6680069-48.9840088,117.090004-110.6870041c0.0899963-0.7739868,0.1519928-26.9179993,0.1519928-26.9179993
		H128.6199341c-4.3399887,0-7.8589859,3.5189819-7.8589859,7.8589783v28.8010178
		C120.7609482,137.960144,124.2799454,141.479187,128.6199341,141.479187L128.6199341,141.479187z M128.6199341,141.479187"/>
	<path class="st0" d="M331.5689697,99.5771866V71.4361801c0-3.8040009-3.0820313-6.8860016-6.8860474-6.8860016h-23.68396
		c-3.8049927,0-6.8869934,3.0820007-6.8869934,6.8860016v28.1410065h-28.1360168
		c-3.8049927,0-6.8910217,3.0819702-6.8910217,6.8869934v23.6830063c0,3.8009949,3.0860291,6.8869934,6.8910217,6.8869934
		h28.1360168v28.1369934c0,3.8040161,3.0820007,6.8869934,6.8869934,6.8869934h23.68396
		c3.8040161,0,6.8860474-3.0829773,6.8860474-6.8869934v-28.1369934h28.1409912
		c3.8009949,0,6.8869934-3.0859985,6.8869934-6.8869934V106.46418c0-3.8050232-3.0859985-6.8869934-6.8869934-6.8869934H331.5689697
		z M331.5689697,99.5771866"/>
</g>
</svg>
