<?xml version="1.0" encoding="utf-8"?>
<!-- Generator: Adobe Illustrator 21.0.0, SVG Export Plug-In . SVG Version: 6.00 Build 0)  -->
<svg version="1.1" id="Слой_1" xmlns="http://www.w3.org/2000/svg" xmlns:xlink="http://www.w3.org/1999/xlink" x="0px" y="0px"
	 viewBox="0 0 20 18" style="enable-background:new 0 0 20 18;" xml:space="preserve">
<g>
	<path d="M5.2,9l1.5-3.3C6.8,5.5,7,5.4,7.2,5.4s0.4,0.1,0.5,0.4l2.4,6.6l2.2-4.8c0.1-0.2,0.2-0.3,0.4-0.3s0.4,0,0.5,0.2l1.5,1.6h4.5
		c1-2.2,0.9-4,0.6-5.1c-0.7-2.4-2.8-4-5.2-4c-0.3,0-0.7,0-1,0.1c-1.4,0.2-2.5,1-3.2,2.1c-0.1,0.2-0.3,0.4-0.4,0.7
		C9.9,2.6,9.8,2.4,9.6,2.2C8.9,1,7.8,0.3,6.4,0.1C6.1,0,5.7,0,5.4,0C3,0,0.9,1.6,0.2,3.9C-0.1,5-0.2,6.7,0.8,9H5.2z"/>
	<path d="M14.4,10.1c-0.2,0-0.3-0.1-0.4-0.2l-1.1-1.2L10.5,14c-0.1,0.2-0.3,0.3-0.5,0.3l0,0c-0.2,0-0.4-0.1-0.5-0.4L7.1,7.4L6,9.7
		C5.9,9.9,5.7,10,5.5,10H1.3c1.5,2.6,4.3,5.3,8.4,7.9C9.8,18,9.9,18,10,18s0.2,0,0.3-0.1c4-2.6,6.8-5.2,8.4-7.9h-4.3V10.1z"/>
</g>
</svg>
