<?xml version="1.0" encoding="iso-8859-1"?>
<!-- Generator: Adobe Illustrator 21.0.0, SVG Export Plug-In . SVG Version: 6.00 Build 0)  -->
<svg version="1.1" id="&#x421;&#x43B;&#x43E;&#x439;_1"
	 xmlns="http://www.w3.org/2000/svg" xmlns:xlink="http://www.w3.org/1999/xlink" x="0px" y="0px" viewBox="0 0 22.594 19.485"
	 style="enable-background:new 0 0 22.594 19.485;" xml:space="preserve">
<g>
	<path d="M19.293,0.793C18.379,0.289,17.332,0,16.211,0c-1.977,0-3.742,0.899-4.91,2.313C10.125,0.899,8.359,0,6.379,0
		c-1.113,0-2.16,0.289-3.078,0.793C1.332,1.883,0,3.977,0,6.387c0,0.688,0.113,1.348,0.316,1.965
		c1.094,4.926,10.985,11.133,10.985,11.133s9.879-6.207,10.976-11.133c0.203-0.617,0.317-1.277,0.317-1.965
		C22.594,3.977,21.262,1.887,19.293,0.793L19.293,0.793z M19.293,0.793"/>
</g>
</svg>
