<?xml version="1.0" encoding="iso-8859-1"?>
<!-- Generator: Adobe Illustrator 21.0.0, SVG Export Plug-In . SVG Version: 6.00 Build 0)  -->
<svg version="1.1" id="&#x421;&#x43B;&#x43E;&#x439;_1"
	 xmlns="http://www.w3.org/2000/svg" xmlns:xlink="http://www.w3.org/1999/xlink" x="0px" y="0px" viewBox="0 0 21.617 21.548"
	 style="enable-background:new 0 0 21.617 21.548;" xml:space="preserve">
<path d="M4.09,14.599c1.326,0,2.4-1.074,2.4-2.399c0-1.325-1.074-2.398-2.4-2.398c-1.325,0-2.399,1.074-2.399,2.399
	C1.691,13.525,2.766,14.599,4.09,14.599L4.09,14.599z"/>
<path d="M5.108,15.22H3.073c-1.694,0-3.072,1.379-3.072,3.072v2.49l0.007,0.039l0.171,0.054c1.616,0.505,3.02,0.673,4.177,0.673
	c2.258,0,3.566-0.643,3.647-0.685l0.159-0.081h0.017v-2.49C8.181,16.599,6.802,15.22,5.108,15.22L5.108,15.22z"/>
<g>
	<path d="M4.517,8.975c1.668,0.106,2.99,1.477,2.99,3.17c0,0.957-0.429,1.805-1.096,2.39c1.899,0.351,3.345,2.012,3.344,4.011v0.598
		l8.108-0.011c0.602,0,0.575-0.602,0.575-0.602v-8.234l-7.52-6.684L4.517,8.975z"/>
	<path d="M10.984,0L0,9.676c0,0,0.676,1.25,2.156,0l8.828-7.469l8.282,7.422c1.711,1.234,2.351,0,2.351,0L10.984,0z"/>
	<polygon points="19.062,6.57 19.062,2.187 16.934,2.187 16.941,4.77 	"/>
</g>
</svg>
