<?xml version="1.0" encoding="iso-8859-1"?>
<!-- Generator: Adobe Illustrator 21.0.0, SVG Export Plug-In . SVG Version: 6.00 Build 0)  -->
<svg version="1.1" id="&#x421;&#x43B;&#x43E;&#x439;_1"
	 xmlns="http://www.w3.org/2000/svg" xmlns:xlink="http://www.w3.org/1999/xlink" x="0px" y="0px" viewBox="0 0 21.617 19.152"
	 style="enable-background:new 0 0 21.617 19.152;" xml:space="preserve">
<g>
	<path d="M2.938,18.668c0,0-0.016,0.484,0.453,0.484c0.589,0,5.449-0.007,5.449-0.007l0.008-4.465c0,0-0.075-0.735,0.64-0.735h2.258
		c0.848,0,0.793,0.735,0.793,0.735l-0.008,4.453h5.332c0.602,0,0.575-0.602,0.575-0.602v-8.234l-7.52-6.684l-7.98,6.684V18.668z
		 M2.938,18.668"/>
	<path d="M0,9.676c0,0,0.676,1.25,2.156,0l8.828-7.469l8.282,7.422c1.711,1.234,2.351,0,2.351,0L10.984,0L0,9.676z M0,9.676"/>
	<path d="M19.062,2.187h-2.128l0.007,2.583l2.121,1.8V2.187z M19.062,2.187"/>
</g>
</svg>
