<?xml version="1.0" encoding="utf-8"?>
<!-- Generator: Adobe Illustrator 21.0.2, SVG Export Plug-In . SVG Version: 6.00 Build 0)  -->
<svg version="1.1" xmlns="http://www.w3.org/2000/svg" xmlns:xlink="http://www.w3.org/1999/xlink" x="0px" y="0px"
	 viewBox="0 0 20 20" style="enable-background:new 0 0 20 20;" xml:space="preserve">
<style type="text/css">
	.st0{fill:none;}
</style>
<g id="Слой_1">
	<g id="XMLID_181_">
		<path id="XMLID_253_" d="M19.9,16.2l-0.7-2.8V3.9c0-1.3-1-2.3-2.3-2.3H3.2c-1.3,0-2.3,1-2.3,2.3v9.4l-0.7,2.8
			c-0.2,0.5-0.2,1,0.1,1.5c0.3,0.4,0.7,0.7,1.2,0.7h17.2c0.5,0,0.9-0.3,1.2-0.7C20,17.2,20.1,16.6,19.9,16.2z M2.6,3.9
			c0-0.3,0.2-0.5,0.5-0.5h13.7c0.3,0,0.5,0.2,0.5,0.5v9.4c0,0.3-0.2,0.5-0.5,0.5H3.2c-0.3,0-0.5-0.2-0.5-0.5L2.6,3.9z"/>
		<g id="XMLID_182_">
			<g id="XMLID_251_">
				<path id="XMLID_252_" d="M7.8,8.2C7.6,8.3,7.5,8.4,7.5,8.6c0,0.2,0,0.4,0.2,0.5l0.1,0.1c0.2,0.2,0.5,0.2,0.8,0.1
					c0.9-0.5,2-0.5,2.9,0.1c0.2,0.2,0.6,0.1,0.8-0.1l0.1-0.1c0.1-0.1,0.2-0.3,0.2-0.5c0-0.2-0.1-0.3-0.3-0.4
					C10.8,7.4,9.1,7.3,7.8,8.2z"/>
			</g>
			<g id="XMLID_249_">
				<path id="XMLID_250_" d="M5.9,6.4C5.8,6.5,5.7,6.6,5.7,6.8c0,0.2,0.1,0.3,0.2,0.5l0.1,0.1c0.2,0.2,0.6,0.2,0.8,0.1
					c1.9-1.5,4.6-1.4,6.5,0.1c0.2,0.2,0.6,0.2,0.8,0l0.3-0.3c0.1-0.1,0.1-0.2,0.1-0.3c0-0.1,0-0.2-0.1-0.2C11.9,4.6,8.4,4.5,5.9,6.4
					z"/>
			</g>
			<circle id="XMLID_184_" cx="9.9" cy="11.2" r="1.2"/>
		</g>
	</g>
</g>
<g id="Слой_2">
</g>
<g id="Слой_3">
</g>
</svg>
