<?xml version="1.0" encoding="utf-8"?>
<!-- Generator: Adobe Illustrator 21.0.2, SVG Export Plug-In . SVG Version: 6.00 Build 0)  -->
<svg version="1.1" id="Слой_1" xmlns="http://www.w3.org/2000/svg" xmlns:xlink="http://www.w3.org/1999/xlink" x="0px" y="0px"
	 viewBox="0 0 17 17" style="enable-background:new 0 0 17 17;" xml:space="preserve">
<style type="text/css">
	.st0{fill:#FFFFFF;}
	.st1{fill:#12100B;}
	.st2{clip-path:url(#XMLID_217_);}
	.st3{clip-path:url(#XMLID_218_);}
	.st4{clip-path:url(#XMLID_219_);fill:#12100B;}
	.st5{clip-path:url(#XMLID_220_);fill:#020400;}
	.st6{fill:#020400;}
	.st7{clip-path:url(#XMLID_240_);}
	.st8{clip-path:url(#XMLID_241_);}
	.st9{clip-path:url(#XMLID_244_);fill:#12100B;}
	.st10{clip-path:url(#XMLID_247_);fill:#020400;}
</style>
<g id="XMLID_411_">
	<g id="XMLID_412_">
		<path id="XMLID_416_" d="M12.7,3.6c0,0.9-0.8,1.7-1.7,1.7c-0.9,0-1.7-0.8-1.7-1.7c0-0.9,0.8-1.7,1.7-1.7C12,1.9,12.7,2.6,12.7,3.6
			L12.7,3.6z M12.7,3.6"/>
		<path id="XMLID_413_" d="M6.5,9c-0.3,0.3-0.3,0.7,0,1c0.1,0.1,0.3,0.2,0.5,0.2c0.2,0,0.4-0.1,0.5-0.2l1.6-1.7v2l-0.2,5.9
			c0,0.5,0.3,0.8,0.8,0.9c0,0,0,0,0,0c0.4,0,0.8-0.4,0.8-0.8l0.2-4.4h0.6l0.6,4.5c0.1,0.4,0.4,0.7,0.8,0.7c0,0,0.1,0,0.1,0
			c0.5-0.1,0.8-0.5,0.7-0.9l-0.8-6.3l0-2.5l1.8-0.8c0.2-0.1,0.3-0.3,0.4-0.5l0.7-2.9c0.1-0.4-0.1-0.8-0.5-0.9
			c-0.4-0.1-0.8,0.1-0.9,0.5l-0.7,2.5l-1.5,0.7H9.6c0,0-0.1,0-0.1,0C9.3,5.9,9.2,6,9.1,6.1L6.5,9z M6.5,9"/>
	</g>
</g>
<path id="XMLID_419_" d="M4.3,6.5c1.2-0.5,1.8-2,1.5-3.7C5.4,1,4-0.2,2.6,0.1c-1.4,0.3-2.2,2-1.8,3.8c0.4,1.6,1.6,2.8,2.9,2.7
	c0.1,0,0.1,0,0.1,0.1l0,0.1L3.6,7.3c0,0.1,0,0.1,0.1,0.1l0,0c0.1,0,0.1,0,0.1,0.1c0,0.2,0,0.4,0.1,0.7c0.1,0.3,0.4,0.5,0.6,0.8
	C4.8,9.3,4.9,9.6,4.9,10c0,0.4-0.1,0.8,0,1.2c0,0.4,0.6,0.3,0.6-0.1c0-0.4,0-0.7,0-1.1c0-0.4-0.1-0.7-0.2-1C5.1,8.7,4.9,8.4,4.6,8.1
	C4.5,7.9,4.4,7.6,4.4,7.3c0-0.1,0.1-0.1,0.1-0.1l0,0c0.1,0,0.1-0.1,0-0.1L4.3,6.7c0,0,0,0,0-0.1C4.2,6.6,4.3,6.5,4.3,6.5L4.3,6.5z
	 M4.3,6.5"/>
</svg>
