<?xml version="1.0" encoding="utf-8"?>
<!-- Generator: Adobe Illustrator 21.0.2, SVG Export Plug-In . SVG Version: 6.00 Build 0)  -->
<svg version="1.1" xmlns="http://www.w3.org/2000/svg" xmlns:xlink="http://www.w3.org/1999/xlink" x="0px" y="0px"
	 viewBox="0 0 20 20" style="enable-background:new 0 0 20 20;" xml:space="preserve">
<style type="text/css">
	.st0{fill:none;}
</style>
<g id="Слой_1">
	<g id="XMLID_654_">
		<path id="XMLID_25_" d="M18,1.4V0h-6.2v1.4H8.2V0H1.9v1.4H0v2.9h20V1.4H18z M4,3.4H2.6C2.4,3.4,2.2,3.3,2.2,3
			c0-0.2,0.2-0.4,0.4-0.4H4c0.2,0,0.4,0.2,0.4,0.4C4.4,3.3,4.2,3.4,4,3.4L4,3.4z M8.4,3.4H7.1C6.9,3.4,6.7,3.3,6.7,3
			c0-0.2,0.2-0.4,0.4-0.4h1.3c0.2,0,0.4,0.2,0.4,0.4C8.8,3.3,8.6,3.4,8.4,3.4L8.4,3.4z M12.9,3.4h-1.3c-0.2,0-0.4-0.2-0.4-0.4
			c0-0.2,0.2-0.4,0.4-0.4h1.3c0.2,0,0.4,0.2,0.4,0.4C13.3,3.3,13.1,3.4,12.9,3.4L12.9,3.4z M17.3,3.4H16c-0.2,0-0.4-0.2-0.4-0.4
			c0-0.2,0.2-0.4,0.4-0.4h1.3c0.2,0,0.4,0.2,0.4,0.4C17.7,3.3,17.6,3.4,17.3,3.4L17.3,3.4z M17.3,3.4"/>
		<path id="XMLID_26_" d="M17.3,7.5H2.7v8.6h14.6L17.3,7.5L17.3,7.5z M3.8,12c-0.2-0.2-0.2-0.4,0-0.6l2.6-2.6c0.2-0.2,0.4-0.2,0.6,0
			c0.2,0.2,0.2,0.4,0,0.6L4.4,12C4.2,12.3,3.9,12.1,3.8,12L3.8,12z M7.7,11.3l-1.5,1.5c-0.2,0.2-0.5,0.1-0.6,0
			c-0.2-0.2-0.2-0.4,0-0.6l1.5-1.5c0.2-0.2,0.4-0.2,0.6,0C7.9,10.8,7.9,11.1,7.7,11.3L7.7,11.3z M7.7,11.3"/>
		<path id="XMLID_30_" d="M0,18.6h1.9V20h3.2v-1.4h10V20h3.2v-1.4H20V5.1H0V18.6z M1.9,7.1c0-0.2,0.2-0.4,0.4-0.4h15.4
			c0.2,0,0.4,0.2,0.4,0.4v9.4c0,0.2-0.2,0.4-0.4,0.4H2.3c-0.2,0-0.4-0.2-0.4-0.4V7.1z M1.9,7.1"/>
	</g>
</g>
<g id="Слой_2">
</g>
<g id="Слой_3">
</g>
</svg>
