<?xml version="1.0" encoding="utf-8"?>
<!-- Generator: Adobe Illustrator 21.0.0, SVG Export Plug-In . SVG Version: 6.00 Build 0)  -->
<svg version="1.1" id="Слой_1" xmlns="http://www.w3.org/2000/svg" xmlns:xlink="http://www.w3.org/1999/xlink" x="0px" y="0px"
	 viewBox="0 0 41.5973473 38.6760254" style="enable-background:new 0 0 41.5973473 38.6760254;" xml:space="preserve">
<g>
	<path d="M41.5277443,11.5310059C40.9227333,4.8480225,36.1917763,0,30.2707577,0
		c-3.9420166,0-7.5549927,2.1250305-9.5859985,5.5230103C18.6727657,2.0780029,15.2077694,0,11.3287411,0
		C5.406774,0,0.6767633,4.8480225,0.0707452,11.5310059c-0.0499878,0.2969971-0.2459717,1.8479919,0.3519897,4.3829956
		c0.8630066,3.6560059,2.855011,6.9810181,5.7620239,9.6090088l14.4920044,13.1530151l14.7380047-13.1490173
		c2.9059753-2.6319885,4.8979797-5.9570007,5.7619934-9.6130066C41.773777,13.3830261,41.5747414,11.8280029,41.5277443,11.5310059
		L41.5277443,11.5310059z M41.5277443,11.5310059"/>
</g>
</svg>
