<?xml version="1.0" encoding="utf-8"?>
<!-- Generator: Adobe Illustrator 21.0.2, SVG Export Plug-In . SVG Version: 6.00 Build 0)  -->
<svg version="1.1" xmlns="http://www.w3.org/2000/svg" xmlns:xlink="http://www.w3.org/1999/xlink" x="0px" y="0px"
	 viewBox="0 0 20 20" style="enable-background:new 0 0 20 20;" xml:space="preserve">
<style type="text/css">
	.st0{fill:#FFFFFF;}
	.st1{clip-path:url(#SVGID_2_);}
	.st2{clip-path:url(#SVGID_4_);}
	.st3{clip-path:url(#SVGID_6_);}
	.st4{clip-path:url(#SVGID_8_);fill-rule:evenodd;clip-rule:evenodd;fill:#121111;}
	.st5{clip-path:url(#SVGID_10_);fill-rule:evenodd;clip-rule:evenodd;}
</style>
<g id="Слой_1">
	<g>
		<path d="M15.2,5.3c0-2.9-2.3-5.2-5.2-5.2S4.8,2.4,4.8,5.3c0,4.1,5.2,10.3,5.2,10.3S15.2,9.4,15.2,5.3L15.2,5.3z M7.4,5
			c0-1.4,1.2-2.6,2.6-2.6c1.4,0,2.6,1.2,2.6,2.6c0,1.4-1.2,2.6-2.6,2.6C8.6,7.6,7.4,6.4,7.4,5L7.4,5z M7.4,5"/>
		<path d="M11.3,5c0,0.7-0.6,1.3-1.3,1.3C9.3,6.2,8.7,5.7,8.7,5c0-0.7,0.6-1.3,1.3-1.3C10.7,3.7,11.3,4.3,11.3,5L11.3,5z M11.3,5"/>
		<path d="M13,13.7c-0.4,0.6-0.8,1.2-1.2,1.6c3.3,0.2,5.5,0.9,6.3,1.4c-0.9,0.6-3.7,1.5-8.1,1.5c-4.3,0-7.1-0.9-8.1-1.5
			c0.8-0.5,3-1.2,6.3-1.4c-0.3-0.4-0.7-1-1.2-1.6c-4.1,0.4-7,1.6-7,3c0,1.7,4.5,3.2,10,3.2c5.5,0,10-1.4,10-3.2
			C20,15.3,17,14.1,13,13.7L13,13.7z M13,13.7"/>
	</g>
</g>
<g id="Слой_2">
</g>
<g id="Слой_3">
</g>
</svg>
