<?xml version="1.0" encoding="utf-8"?>
<!-- Generator: Adobe Illustrator 21.0.2, SVG Export Plug-In . SVG Version: 6.00 Build 0)  -->
<svg version="1.1" id="Слой_1" xmlns="http://www.w3.org/2000/svg" xmlns:xlink="http://www.w3.org/1999/xlink" x="0px" y="0px"
	 viewBox="0 0 17 17" style="enable-background:new 0 0 17 17;" xml:space="preserve">
<style type="text/css">
	.st0{fill:#FFFFFF;}
	.st1{fill:#12100B;}
	.st2{clip-path:url(#XMLID_217_);}
	.st3{clip-path:url(#XMLID_218_);}
	.st4{clip-path:url(#XMLID_219_);fill:#12100B;}
	.st5{clip-path:url(#XMLID_220_);fill:#020400;}
	.st6{fill:#020400;}
	.st7{clip-path:url(#XMLID_240_);}
	.st8{clip-path:url(#XMLID_241_);}
	.st9{clip-path:url(#XMLID_244_);fill:#12100B;}
	.st10{clip-path:url(#XMLID_247_);fill:#020400;}
</style>
<g id="XMLID_143_">
	<path id="XMLID_201_" d="M2.1,5.3c0,0,2-0.4,4.1-0.6V2.4c-1.7,0.3-3.1,0.7-3.7,1C2.1,4.4,2.1,5.3,2.1,5.3L2.1,5.3z M2.1,5.3"/>
	<path id="XMLID_198_" d="M10.8,0.3c0,0.1,0.1,0.3,0.1,0.4v1.1c1.5,0.2,2.6,0.6,3.4,0.8C13.2,0.9,11.4,0.4,10.8,0.3L10.8,0.3z
		 M10.8,0.3"/>
	<path id="XMLID_195_" d="M10.9,4.7C12.9,4.9,15,5.3,15,5.3c0-0.7-0.1-1.4-0.3-1.9c-0.5-0.2-1.9-0.7-3.8-1V4.7z M10.9,4.7"/>
	<path id="XMLID_192_" d="M6.2,0.7c0-0.1,0-0.3,0.1-0.4C4.5,0.6,3.5,1.5,2.9,2.6C3.6,2.3,4.8,2,6.2,1.8V0.7z M6.2,0.7"/>
	<path id="XMLID_158_" d="M2.1,13.1c0,4.1,4.4,3.9,4.4,3.9h4.8c3.7,0,3.7-3.8,3.7-3.8V6.2c0,0-1.5-0.6-4.3-0.8
		c-0.2,0.4-0.6,0.7-1.2,0.7h-2C7,6.1,6.6,5.8,6.4,5.5C3.5,5.7,2,6.3,2,6.3S2.1,9,2.1,13.1L2.1,13.1z M10.3,15.5H6.5
		c0,0-0.3,0-0.6-0.6c0,0,0.5-1.2,1.2-1.2c0.4,0,1.2,0.6,1.5,0.6c0.3,0,1-0.6,1.4-0.6c0.4,0,1.1,0.7,1.2,1.2
		C11.2,14.9,10.9,15.5,10.3,15.5L10.3,15.5z M11.5,14.4c-0.3-0.5-0.9-1.2-1.5-1.2c-0.5,0-1.1,0.6-1.5,0.6c-0.4,0-0.7-0.5-1.5-0.5
		c-0.8,0-1.5,1.2-1.5,1.2s-0.3,0-0.3-0.6c0-0.6,1-1.5,1.8-1.5c0.8,0,1.1,0.6,1.5,0.6c0.3,0,0.9-0.6,1.5-0.6c0.6,0,1.8,0.9,1.8,1.5
		C11.8,14.4,11.5,14.4,11.5,14.4L11.5,14.4z M12.3,7.6c0.8,0,1.5,0.4,1.5,0.9c0,0.5-0.7,0.9-1.5,0.9c-0.8,0-1.5-0.4-1.5-0.9
		C10.9,8,11.5,7.6,12.3,7.6L12.3,7.6z M7.6,9.1c0.3-0.4,0.3-0.6,0.9-0.6c0.5,0,0.7,0.4,0.9,0.6c0.1,0.2,0.9,1.2,1.2,1.5
		c0.3,0.3,0.2,0.9-0.3,0.9c-0.6,0-0.5-0.6-0.7-0.6c-0.3,0-0.3,0.6-1,0.6c-0.8,0-0.7-0.6-1-0.6c-0.3,0-0.3,0.6-0.8,0.6
		c-0.5,0-0.6-0.6-0.3-0.9C6.7,10.3,7.4,9.5,7.6,9.1L7.6,9.1z M5,7.6c0.8,0,1.5,0.4,1.5,0.9C6.5,9,5.8,9.4,5,9.4
		C4.2,9.4,3.5,9,3.5,8.5C3.5,8,4.2,7.6,5,7.6L5,7.6z M5,7.6"/>
	<path id="XMLID_145_" d="M7.5,5.5h2c0.2,0,0.3,0,0.4-0.1c0.2-0.1,0.3-0.4,0.3-0.6V0.7c0-0.1,0-0.3-0.1-0.4C10.1,0.1,9.9,0,9.6,0
		H7.5C7.2,0,7,0.1,6.9,0.3C6.8,0.4,6.8,0.6,6.8,0.7v4.1c0,0.2,0.1,0.5,0.4,0.6C7.2,5.5,7.4,5.5,7.5,5.5L7.5,5.5z M7.5,5.5"/>
</g>
</svg>
