<?xml version="1.0" encoding="utf-8"?>
<!-- Generator: Adobe Illustrator 21.0.0, SVG Export Plug-In . SVG Version: 6.00 Build 0)  -->
<svg version="1.1" id="Слой_1" xmlns="http://www.w3.org/2000/svg" xmlns:xlink="http://www.w3.org/1999/xlink" x="0px" y="0px"
	 viewBox="0 0 530.0110474 566.9299927" style="enable-background:new 0 0 530.0110474 566.9299927;" xml:space="preserve">
<path id="XMLID_6_" d="M498.5290222,243.4266052c-40.6181641-62.5601501-112.4812927-94.6981354-187.5483704-83.8503113
	c-59.6947632,8.6003723-122.1118469,45.8452606-118.116394,107.2406311
	c1.327301,20.3827209,12.1006317,37.9771118,29.5460205,48.2975769
	c22.6251068,13.3542786,52.2320862,12.6770935,83.3627319-1.910553c14.959259-7.0021973,29.7017822-7.3805847,40.4344788-1.0285034
	c10.2188721,6.0414429,16.3822021,17.8102417,17.3641357,33.1148682
	c1.4356689,22.7528992-14.7357483,37.4768372-28.5640869,45.7927856
	c-32.275116,19.4481812-87.6282196,25.2314453-130.9687195-1.327301
	c-49.9575348-30.6244812-88.3748169-95.3490906-46.4090271-185.173111
	c16.868927-36.1215973,55.8753815-67.0567169,104.3143005-82.7811966
	c61.7474976-20.0170441,130.1781006-13.2044601,187.7473145,18.7049789
	c7.7868958,4.3340454,11.5385437,7.7200317,13.3051758,9.779541c12.8946533,14.9778748,35.2149963,17.348053,50.9589233,5.4167175
	c15.7524414-11.94487,19.4973145-34.0773087,8.5479126-50.5331497
	c-18.9826355-28.509079-44.2893982-51.6556091-75.210144-68.7886505
	C309.883606-39.857708,129.072464,7.6407652,44.254612,142.2663269
	c-41.9598618,66.5682983-54.6234131,143.9048462-35.6687202,217.79953
	c18.6287937,72.624115,65.6879349,133.0282288,132.5135651,170.0708008
	c126.8115845,70.3741455,287.285675,36.7590332,357.7080688-74.9096375
	C540.5159912,389.0913086,540.4008789,307.9353638,498.5290222,243.4266052z M469.2877197,436.6168518
	c-60.7029114,96.2827454-200.3482056,124.5768127-311.2930908,63.0333252
	c-58.3462982-32.3563843-99.4114075-84.9871521-115.6310883-148.2109375
	c-16.5371094-64.5375671-5.4031715-132.2028961,31.3676796-190.5635834
	c75.155983-119.2532349,235.1424866-161.414566,356.671936-93.9938507
	c25.971283,14.397171,47.1946106,33.7776489,63.0545044,57.6157684l-4.0030518,3.0473785
	c-5.3557739-6.2301941-12.8260803-11.9457245-22.8409729-17.5266571
	c-65.9850464-36.5947876-144.5007629-44.3833771-215.4166412-21.3858261
	c-39.2223053,12.7321167-72.70961,33.5753403-96.8922424,59.6617508
	c-11.7628784,12.7041779-21.3325043,26.6544037-28.2669754,41.5120544
	c-51.7639618,110.7620544-0.1413651,192.9608765,59.7633286,229.6775513
	c48.730957,29.8634644,119.0509033,30.4881592,167.2062683,1.4771118
	c31.2390137-18.813324,47.3562622-46.4835205,45.3652954-77.8926697
	c-1.7065125-26.7754517-14.241394-48.9739075-34.38797-60.8925476c-20.8169861-12.338501-47.436676-12.542511-73.0227966-0.5552979
	c-20.0780029,9.4129944-38.592514,10.6725769-50.8031921,3.4536743
	c-7.4889221-4.4161377-11.9050903-11.6892395-12.5001678-20.5452576
	c-2.5597992-39.2646179,43.9914398-64.0364227,88.3062592-70.4418335
	c62.3756104-9.0083923,119.688324,16.5354156,153.3102112,68.3281555
	C503.65625,315.3718262,503.6689453,382.1305847,469.2877197,436.6168518z"/>
</svg>
