<?xml version="1.0" encoding="utf-8"?>
<!-- Generator: Adobe Illustrator 21.0.0, SVG Export Plug-In . SVG Version: 6.00 Build 0)  -->
<svg version="1.1" id="Слой_1" xmlns="http://www.w3.org/2000/svg" xmlns:xlink="http://www.w3.org/1999/xlink" x="0px" y="0px"
	 viewBox="0 0 409.6019897 307.1990051" style="enable-background:new 0 0 409.6019897 307.1990051;" xml:space="preserve">
<g>
	<path d="M409.6019897,256c0,8.9769897-2.5280151,17.3009949-6.5789795,24.625L273.6990051,135.9259949L401.6249695,24
		c4.9770203,7.8979797,7.9770203,17.1760254,7.9770203,27.1990051V256z"/>
	<path d="M204.8009949,162.1989746l177.9999695-155.75C375.5,2.4490051,367.2730103,0,358.3979797,0H51.1989746
		c-8.8869629,0-17.1129761,2.4490051-24.3869934,6.4489746L204.8009949,162.1989746z"/>
	<path d="M254.4259796,152.772995l-41.1989899,36.0789948C210.8119812,190.9490051,207.8119812,192,204.8009949,192
		c-3.0120087,0-6.0120087-1.0509949-8.4260101-3.1520081l-41.2109985-36.0749969L24.1989746,299.3240051
		c7.8519897,4.9259949,17.0510254,7.875,27,7.875h307.1990051c9.95401,0,19.1529846-2.9490051,27.0000305-7.875
		L254.4259796,152.772995z"/>
	<path d="M7.9769897,24C3,31.8979797,0,41.1760254,0,51.1990051V256c0,8.9769897,2.5119934,17.3009949,6.5740051,24.625
		l129.312973-144.727005L7.9769897,24z"/>
	<path d="M7.9769897,24"/>
</g>
</svg>
