<?xml version="1.0" encoding="utf-8"?>
<!-- Generator: Adobe Illustrator 21.0.0, SVG Export Plug-In . SVG Version: 6.00 Build 0)  -->
<svg version="1.1" id="Слой_1" xmlns="http://www.w3.org/2000/svg" xmlns:xlink="http://www.w3.org/1999/xlink" x="0px" y="0px"
	 viewBox="0 0 438.9 596.1" style="enable-background:new 0 0 438.9 596.1;" xml:space="preserve">
<style type="text/css">
	.st0{fill:#501E00;}
</style>
<path class="st0" d="M219.4,0C98.4,0,0,98.4,0,219.4C0,251,6.5,281.1,19.2,309c54.9,120,160.1,246.8,191,282.8
	c2.3,2.7,5.7,4.3,9.2,4.3c3.6,0,6.9-1.5,9.3-4.3c30.9-36,136.1-162.7,191-282.8c12.7-27.9,19.2-58,19.2-89.6
	C438.8,98.4,340.4,0,219.4,0z M343.9,233.6c0,12.2-9.9,22.1-22.1,22.1h-68.4V324c0,12.3-10,22.3-22.3,22.3h-23.4
	c-12.3,0-22.3-10-22.3-22.3v-68.3h-68.5c-12.2,0-22.1-9.9-22.1-22.1v-23.8c0-12.2,9.9-22.1,22.1-22.1h68.5v-68.3
	c0-12.3,10-22.3,22.3-22.3h23.4c12.3,0,22.3,10,22.3,22.3v68.3h68.5c12.2,0,22.1,9.9,22.1,22.1L343.9,233.6L343.9,233.6z"/>
</svg>
