<?xml version="1.0" encoding="utf-8"?>
<!-- Generator: Adobe Illustrator 21.0.0, SVG Export Plug-In . SVG Version: 6.00 Build 0)  -->
<svg version="1.1" id="Слой_1" xmlns="http://www.w3.org/2000/svg" xmlns:xlink="http://www.w3.org/1999/xlink" x="0px" y="0px"
	 viewBox="0 0 58.5 78.3" style="enable-background:new 0 0 58.5 78.3;" xml:space="preserve">
<style type="text/css">
	.st0{fill:#3C97D7;}
</style>
<g>
	<path class="st0" d="M29.2,78.3c-0.9,0-1.7-0.4-2.3-1.1C23,72.7,9.6,56.5,2.6,41.2C0.9,37.4,0,33.4,0,29.2C0,13.1,13.1,0,29.2,0
		c16.1,0,29.2,13.1,29.2,29.2c0,4.2-0.9,8.2-2.6,11.9c-7,15.3-20.4,31.5-24.4,36.1C31,77.9,30.1,78.3,29.2,78.3z M29.2,3
		C14.8,3,3,14.8,3,29.2c0,3.8,0.8,7.4,2.3,10.7c6.9,15,20,30.9,23.9,35.4c3.9-4.5,17.1-20.4,24-35.4c1.5-3.3,2.3-6.9,2.3-10.7
		C55.5,14.8,43.7,3,29.2,3z"/>
</g>
</svg>
