<?xml version="1.0" encoding="utf-8"?>
<!-- Generator: Adobe Illustrator 21.0.2, SVG Export Plug-In . SVG Version: 6.00 Build 0)  -->
<svg version="1.1" xmlns="http://www.w3.org/2000/svg" xmlns:xlink="http://www.w3.org/1999/xlink" x="0px" y="0px"
	 viewBox="0 0 20 20" style="enable-background:new 0 0 20 20;" xml:space="preserve">
<style type="text/css">
	.st0{fill:#FFFFFF;}
	.st1{clip-path:url(#SVGID_2_);}
	.st2{clip-path:url(#SVGID_4_);}
	.st3{clip-path:url(#SVGID_6_);}
	.st4{clip-path:url(#SVGID_8_);fill-rule:evenodd;clip-rule:evenodd;fill:#121111;}
	.st5{clip-path:url(#SVGID_10_);fill-rule:evenodd;clip-rule:evenodd;}
</style>
<g id="Слой_1">
	<g>
		<path d="M0.9,16.1l1.6-1.6c0.4-0.4,0.7-0.8,1-1.3L4,12.6c0.5-0.9,1.4-1.4,2.4-1.4h5.2c0.5,0,0.9,0.4,0.9,0.9l0,0
			c0,0.5-0.4,0.9-0.9,0.9H9.5h-1c-0.5,0-0.9,0.4-0.9,0.9l0,0c0,0.5,0.4,0.9,0.9,0.9h3.3c0.7,0,1.4-0.2,1.9-0.7l2.8-2.3
			c0.4-0.3,1-0.3,1.3,0.1c0.3,0.4,0.3,1-0.1,1.4L13.1,17c-0.7,0.6-1.7,1-2.7,1H6.3c-0.5,0-1.1,0.2-1.5,0.6L3.3,20"/>
		<path d="M17.6,8.5c-0.3-3.3-2.8-6-6-6.7c0-0.1,0-0.2,0-0.3C11.7,0.7,11,0,10.2,0C9.3,0,8.7,0.7,8.7,1.5c0,0.1,0,0.2,0,0.3
			C5.5,2.5,3,5.2,2.7,8.5H1.3v1.3h17.8V8.5H17.6L17.6,8.5z"/>
	</g>
</g>
<g id="Слой_2">
</g>
<g id="Слой_3">
</g>
</svg>
