<?xml version="1.0" encoding="utf-8"?>
<!-- Generator: Adobe Illustrator 21.0.0, SVG Export Plug-In . SVG Version: 6.00 Build 0)  -->
<svg version="1.1" id="Слой_1" xmlns="http://www.w3.org/2000/svg" xmlns:xlink="http://www.w3.org/1999/xlink" x="0px" y="0px"
	 viewBox="0 0 19.4 19.9" style="enable-background:new 0 0 19.4 19.9;" xml:space="preserve">
<path d="M15.4,5.1c0.3,0,0.4-0.4,0.1-0.5L5.3,0.1C4.7-0.2,4,0.1,3.7,0.7l-3.6,8c-0.3,0.6,0,1.4,0.6,1.6l2.1,0.9
	c0.3,0.1,0.6-0.1,0.6-0.4V7.5c0-1.3,1.1-2.4,2.4-2.4H15.4L15.4,5.1z"/>
<path d="M18.1,6.3H5.7C5,6.3,4.5,6.9,4.5,7.5v8.7c0,0.7,0.6,1.2,1.2,1.2h1.7c0-0.2-0.1-0.5-0.1-0.7c0-0.3,0-0.6,0.1-0.8H6.1v-4.2
	h11.7v4.2h-1.3c0,0.3,0.1,0.6,0.1,0.8c0,0.3,0,0.5-0.1,0.7h1.7c0.7,0,1.2-0.6,1.2-1.2V7.5C19.4,6.8,18.8,6.3,18.1,6.3L18.1,6.3z
	 M17.8,9.1H6.1V7.8h11.7V9.1z"/>
<path d="M11.9,13.5c-1.8,0-3.2,1.5-3.2,3.2c0,1.8,1.4,3.2,3.2,3.2s3.2-1.4,3.2-3.2C15.1,15,13.7,13.5,11.9,13.5L11.9,13.5z M12.8,18
	c-0.1,0.2-0.3,0.3-0.5,0.3c-0.1,0-0.1,0.1-0.1,0.2s0,0.2,0,0.3c0,0.1,0,0.1-0.1,0.1s-0.2,0-0.3,0s-0.1-0.1-0.1-0.1v-0.2
	c0-0.2,0-0.2-0.2-0.2s-0.4-0.1-0.5-0.2s-0.2-0.1-0.1-0.2c0-0.1,0.1-0.2,0.1-0.3c0-0.1,0.1-0.1,0.2-0.1c0.2,0.1,0.4,0.2,0.6,0.2
	c0.1,0,0.3,0,0.4-0.1c0.2-0.1,0.3-0.4,0.1-0.5c-0.1-0.1-0.1-0.1-0.2-0.1c-0.2-0.1-0.4-0.2-0.6-0.3C11.2,16.6,11,16.4,11,16
	s0.3-0.7,0.7-0.9c0-0.1,0,0,0-0.2v-0.2c0-0.1,0-0.2,0.2-0.2H12c0.3,0,0.3,0,0.3,0.3c0,0.2,0,0.2,0.2,0.2c0.1,0,0.3,0.1,0.4,0.1
	c0.1,0,0.1,0.1,0.1,0.2c0,0.1-0.1,0.2-0.1,0.4c0,0.1-0.1,0.1-0.2,0.1c-0.2-0.1-0.4-0.1-0.7-0.1c-0.1,0-0.1,0-0.2,0
	c-0.2,0.1-0.2,0.3-0.1,0.5c0.1,0.1,0.2,0.1,0.3,0.2c0.2,0.1,0.4,0.1,0.5,0.2C13.1,16.8,13.2,17.5,12.8,18L12.8,18z"/>
</svg>
