<?xml version="1.0" encoding="utf-8"?>
<!-- Generator: Adobe Illustrator 21.0.2, SVG Export Plug-In . SVG Version: 6.00 Build 0)  -->
<svg version="1.1" id="Слой_1" xmlns="http://www.w3.org/2000/svg" xmlns:xlink="http://www.w3.org/1999/xlink" x="0px" y="0px"
	 viewBox="0 0 17 17" style="enable-background:new 0 0 17 17;" xml:space="preserve">
<style type="text/css">
	.st0{fill:#FFFFFF;}
	.st1{fill:#12100B;}
	.st2{clip-path:url(#XMLID_217_);}
	.st3{clip-path:url(#XMLID_218_);}
	.st4{clip-path:url(#XMLID_219_);fill:#12100B;}
	.st5{clip-path:url(#XMLID_220_);fill:#020400;}
	.st6{fill:#020400;}
	.st7{clip-path:url(#XMLID_240_);}
	.st8{clip-path:url(#XMLID_241_);}
	.st9{clip-path:url(#XMLID_244_);fill:#12100B;}
	.st10{clip-path:url(#XMLID_247_);fill:#020400;}
</style>
<g id="XMLID_395_">
	<g id="XMLID_396_">
		<path id="XMLID_397_" d="M14.4,0.1L7.1,2.3C6.2,2.6,5.4,3.5,5.4,4.4v7.8c0,0-0.5-0.4-1.7-0.2c-1.7,0.2-3.2,1.6-3.2,3
			c0,1.4,1.4,2.3,3.2,2c1.7-0.2,3-1.5,3-2.9V7.4c0-0.6,0.7-0.9,0.7-0.9l6.5-2c0,0,0.7-0.2,0.7,0.4v5.3c0,0-0.7-0.4-1.9-0.2
			c-1.7,0.2-3.2,1.5-3.2,2.9c0,1.4,1.4,2.3,3.2,2.1c1.7-0.2,3.2-1.5,3.2-2.9V1.2C16,0.3,15.3-0.2,14.4,0.1L14.4,0.1z M14.4,0.1"/>
	</g>
</g>
</svg>
