<?xml version="1.0" encoding="utf-8"?>
<!-- Generator: Adobe Illustrator 21.0.2, SVG Export Plug-In . SVG Version: 6.00 Build 0)  -->
<svg version="1.1" id="Слой_1" xmlns="http://www.w3.org/2000/svg" xmlns:xlink="http://www.w3.org/1999/xlink" x="0px" y="0px"
	 viewBox="0 0 17 17" style="enable-background:new 0 0 17 17;" xml:space="preserve">
<style type="text/css">
	.st0{fill:#FFFFFF;}
	.st1{clip-path:url(#XMLID_95_);}
	.st2{fill:#12100B;}
	.st3{clip-path:url(#XMLID_96_);}
	.st4{fill:#211915;}
	.st5{fill:#231F20;}
	.st6{fill:#1E120D;}
	.st7{fill:none;}
</style>
<g id="XMLID_256_">
	<g id="XMLID_257_">
		<path id="XMLID_258_" class="st2" d="M2.5,3.9c-0.3-1,0.2-2.1,1.3-2.5c1-0.3,2.1,0.2,2.4,1.2h-2C3.9,2.6,3.7,2.8,3.6,3
			C3.4,3.3,3.5,3.5,3.6,3.8l1.2,1.5C3.8,5.5,2.8,4.9,2.5,3.9L2.5,3.9z M9.7,9.3L5.6,4h8.3L9.7,9.3L9.7,9.3z M15.8,3.8
			C16,3.5,16,3.3,15.9,3c-0.1-0.3-0.4-0.4-0.6-0.4H7.6c0-0.1,0-0.2,0-0.3C7,0.6,5.1-0.4,3.3,0.1C1.6,0.7,0.6,2.6,1.2,4.3
			c0.4,1.4,1.8,2.3,3.2,2.3c0.3,0,0.7,0,1-0.1c0.1,0,0.2-0.1,0.3-0.1L9,10.7v4.9H7.4c-0.4,0-0.7,0.3-0.7,0.7c0,0.4,0.3,0.7,0.7,0.7
			h4.6c0.4,0,0.7-0.3,0.7-0.7c0-0.4-0.3-0.7-0.7-0.7h-1.6v-5L15.8,3.8L15.8,3.8z"/>
	</g>
</g>
</svg>
