<?xml version="1.0" encoding="iso-8859-1"?>
<!-- Generator: Adobe Illustrator 21.0.0, SVG Export Plug-In . SVG Version: 6.00 Build 0)  -->
<svg version="1.1" id="&#x421;&#x43B;&#x43E;&#x439;_1"
	 xmlns="http://www.w3.org/2000/svg" xmlns:xlink="http://www.w3.org/1999/xlink" x="0px" y="0px" viewBox="0 0 13.102 12.082"
	 style="enable-background:new 0 0 13.102 12.082;" xml:space="preserve">
<g>
	<path d="M13.102,4.336c0-0.239-0.172-0.434-0.383-0.434H8.961v0.871h2.973l-1.95,1.606l-1.023-0.84v1.105l0.801,0.649
		c0.133,0.105,0.316,0.105,0.445,0l2.129-1.727v2.301H8.961v0.867h3.758c0.211,0,0.383-0.191,0.383-0.434V4.722
		c0-0.008,0-0.019-0.004-0.027c0.004-0.012,0.004-0.024,0.004-0.031V4.336z M13.102,4.336"/>
	<path d="M4.094,7.836c0.547,0,0.898-0.723,0.898-1.801c0-0.895-0.258-1.805-0.898-1.805c-0.68,0-0.93,0.922-0.93,1.805
		C3.164,7.062,3.488,7.836,4.094,7.836L4.094,7.836z M4.094,7.836"/>
	<path d="M0,11.484l8.156,0.598V0L0,0.718V11.484z M4.129,2.906c1.394,0,2.324,1.265,2.324,3.066c0,2.196-1.183,3.199-2.398,3.199
		c-1.328,0-2.348-1.152-2.348-3.085C1.707,4.144,2.672,2.906,4.129,2.906L4.129,2.906z M4.129,2.906"/>
</g>
</svg>
