<?xml version="1.0" encoding="utf-8"?>
<!-- Generator: Adobe Illustrator 21.0.0, SVG Export Plug-In . SVG Version: 6.00 Build 0)  -->
<svg version="1.1" id="Слой_1" xmlns="http://www.w3.org/2000/svg" xmlns:xlink="http://www.w3.org/1999/xlink" x="0px" y="0px"
	 viewBox="0 0 17.1847725 17.0237598" style="enable-background:new 0 0 17.1847725 17.0237598;" xml:space="preserve">
<path d="M8.5925226,9.0196543c2.1278534,0,3.8529816-2.0191784,3.8529816-4.5098014C12.4455042,1.0559729,10.720376,0,8.5925226,0
	C6.4644608,0,4.7393317,1.0559729,4.7393317,4.5098529C4.7393317,7.0004759,6.4644608,9.0196543,8.5925226,9.0196543
	L8.5925226,9.0196543z M8.5925226,9.0196543"/>
<path d="M17.1006756,15.6575689l-1.9438953-4.3790255c-0.0887756-0.2005463-0.2450657-0.3666544-0.4394722-0.4677696
	l-3.0168743-1.570466c-0.0664129-0.0346498-0.1470518-0.0278759-0.2069016,0.0174313
	c-0.8531141,0.6453753-1.8563776,0.9864092-2.9010096,0.9864092c-1.0448413,0-2.0481048-0.3410339-2.9012194-0.9864092
	C5.6312437,9.2124319,5.5506573,9.205658,5.4841928,9.2403078l-3.0166652,1.570466
	c-0.1946168,0.1011152-0.3504872,0.2672234-0.4394741,0.4677696l-1.9438927,4.3790255
	c-0.1341355,0.3018713-0.1066778,0.647212,0.0733946,0.9240408c0.1800724,0.2768822,0.4845697,0.4421501,0.8147896,0.4421501
	h15.2399883c0.3303776,0,0.6348763-0.1652679,0.8149471-0.4421501
	C17.2071419,16.304781,17.2348118,15.9592285,17.1006756,15.6575689L17.1006756,15.6575689z M17.1006756,15.6575689"/>
</svg>
