<?xml version="1.0" encoding="utf-8"?>
<!-- Generator: Adobe Illustrator 21.0.2, SVG Export Plug-In . SVG Version: 6.00 Build 0)  -->
<svg version="1.1" id="Слой_1" xmlns="http://www.w3.org/2000/svg" xmlns:xlink="http://www.w3.org/1999/xlink" x="0px" y="0px"
	 viewBox="0 0 17 17" style="enable-background:new 0 0 17 17;" xml:space="preserve">
<style type="text/css">
	.st0{fill:#FFFFFF;}
	.st1{fill:#12100B;}
	.st2{clip-path:url(#XMLID_217_);}
	.st3{clip-path:url(#XMLID_218_);}
	.st4{clip-path:url(#XMLID_219_);fill:#12100B;}
	.st5{clip-path:url(#XMLID_220_);fill:#020400;}
	.st6{fill:#020400;}
	.st7{clip-path:url(#XMLID_240_);}
	.st8{clip-path:url(#XMLID_241_);}
	.st9{clip-path:url(#XMLID_244_);fill:#12100B;}
	.st10{clip-path:url(#XMLID_247_);fill:#020400;}
</style>
<g id="XMLID_160_">
	<path id="XMLID_161_" d="M8.5,6.8C7.1,6.8,6,7.9,6,9.3c0,1.4,1.1,2.5,2.5,2.5c1.4,0,2.5-1.1,2.5-2.5C11.1,7.9,9.9,6.8,8.5,6.8
		L8.5,6.8z M15.3,4.3h-2c-0.3,0-0.6-0.2-0.7-0.5l-0.5-1.6c-0.1-0.3-0.4-0.5-0.7-0.5H5.6C5.3,1.7,5,1.9,5,2.2L4.4,3.8
		C4.3,4,4,4.3,3.8,4.3h-2C0.8,4.3,0,5,0,6v7.6c0,0.9,0.8,1.7,1.7,1.7h13.6c0.9,0,1.7-0.8,1.7-1.7V6C17,5,16.2,4.3,15.3,4.3L15.3,4.3
		z M8.5,13.6c-2.3,0-4.2-1.9-4.2-4.2c0-2.3,1.9-4.2,4.2-4.2c2.3,0,4.2,1.9,4.2,4.2C12.8,11.7,10.9,13.6,8.5,13.6L8.5,13.6z
		 M14.7,7.1c-0.3,0-0.6-0.3-0.6-0.6c0-0.3,0.3-0.6,0.6-0.6c0.3,0,0.6,0.3,0.6,0.6C15.3,6.9,15,7.1,14.7,7.1L14.7,7.1z M14.7,7.1"/>
</g>
</svg>
