<?xml version="1.0" encoding="utf-8"?>
<!-- Generator: Adobe Illustrator 21.0.0, SVG Export Plug-In . SVG Version: 6.00 Build 0)  -->
<svg version="1.1" id="Слой_1" xmlns="http://www.w3.org/2000/svg" xmlns:xlink="http://www.w3.org/1999/xlink" x="0px" y="0px"
	 viewBox="0 0 125.1409912 108.4570007" style="enable-background:new 0 0 125.1409912 108.4570007;" xml:space="preserve">
<g>
	<path d="M120.2539978,21.5750122c-3.2580109-3.2580261-7.1920013-4.8870239-11.7969971-4.8870239H93.8589935l-3.3240051-8.8630066
		c-0.8279877-2.1289978-2.3359985-3.9649963-4.5310059-5.5119629C83.8089752,0.7739868,81.5619965,0,79.2579956,0H45.8869934
		c-2.3049927,0-4.5549927,0.7739868-6.7460022,2.3130188c-2.1960144,1.5469666-3.7070313,3.3829651-4.5320129,5.5119629
		l-3.3240051,8.8630066H16.6879883c-4.6100159,0-8.5400085,1.6289978-11.8009949,4.8870239
		C1.6289673,24.8320007,0,28.7659912,0,33.3709717v58.4030457c0,4.60495,1.6289673,8.5389709,4.8869934,11.7969666
		c3.2609863,3.2580261,7.190979,4.8860168,11.8009949,4.8860168h91.7690125c4.6049957,0,8.5389862-1.6279907,11.7969971-4.8860168
		c3.2579803-3.2579956,4.8869934-7.1920166,4.8869934-11.7969666V33.3709717
		C125.1409912,28.7659912,123.5119781,24.8320007,120.2539978,21.5750122L120.2539978,21.5750122z M83.1989899,83.20401
		c-5.7109985,5.7099915-12.5899963,8.5700073-20.6289978,8.5700073S47.6559753,88.9140015,41.940979,83.20401
		c-5.7139893-5.7150269-8.5700073-12.5939941-8.5700073-20.6290283c0-8.0390015,2.8590393-14.9139709,8.5700073-20.6289978
		c5.7149963-5.7149963,12.5900116-8.5750122,20.6290131-8.5750122s14.9139862,2.8600159,20.6289978,8.5750122
		c5.7149963,5.7109985,8.5709991,12.5899963,8.5709991,20.6289978C91.769989,70.6100159,88.9139862,77.4889832,83.1989899,83.20401
		L83.1989899,83.20401z M83.1989899,83.20401"/>
	<path d="M62.5699921,43.8009949c-5.1719971,0-9.5899963,1.8359985-13.2610321,5.5080261
		c-3.6719666,3.6719666-5.5079651,8.0939941-5.5079651,13.2659607c0,5.1679993,1.8359985,9.5890198,5.5079651,13.2609863
		c3.6710358,3.6720276,8.089035,5.5080261,13.2610321,5.5080261s9.5940094-1.8359985,13.2659912-5.5080261
		c3.6720123-3.6719666,5.5080109-8.0929871,5.5080109-13.2609863c0-5.1719666-1.8359985-9.5939941-5.5080109-13.2659607
		C72.1640015,45.6369934,67.7419891,43.8009949,62.5699921,43.8009949L62.5699921,43.8009949z M62.5699921,43.8009949"/>
</g>
</svg>
