<?xml version="1.0" encoding="utf-8"?>
<!-- Generator: Adobe Illustrator 21.0.0, SVG Export Plug-In . SVG Version: 6.00 Build 0)  -->
<svg version="1.1" xmlns="http://www.w3.org/2000/svg" xmlns:xlink="http://www.w3.org/1999/xlink" x="0px" y="0px"
	 viewBox="0 0 123.3 91.5" style="enable-background:new 0 0 123.3 91.5;" xml:space="preserve">
<g id="Слой_4">
	<circle cx="91.9" cy="31.1" r="11.6"/>
	<path d="M123,10.2c-0.2-0.8-0.4-1.6-0.7-2.4c-0.3-0.8-0.7-1.5-1.2-2.2s-1-1.3-1.6-1.9s-1.2-1.1-1.9-1.6s-1.4-0.9-2.2-1.2
		c-0.8-0.3-1.6-0.6-2.4-0.7c-0.8-0.2-1.7-0.3-2.6-0.3H12.8C5.7,0,0,5.7,0,12.8v66c0,7,5.7,12.8,12.8,12.8h97.8
		c0.9,0,1.7-0.1,2.6-0.3c0.8-0.2,1.6-0.4,2.4-0.7c0.8-0.3,1.5-0.7,2.2-1.2s1.3-1,1.9-1.6c0.6-0.6,1.1-1.2,1.6-1.9s0.9-1.4,1.2-2.2
		c0.3-0.8,0.6-1.6,0.7-2.4c0.2-0.8,0.3-1.7,0.3-2.6v-66C123.3,11.9,123.2,11,123,10.2z M13,60.5V13h97.3v50l0,0L91.8,49.2L66.5,63
		L42.8,28L13,62.8V60.5z"/>
</g>
<g id="Слой_3">
</g>
</svg>
