<?xml version="1.0" encoding="utf-8"?>
<!-- Generator: Adobe Illustrator 21.0.2, SVG Export Plug-In . SVG Version: 6.00 Build 0)  -->
<svg version="1.1" xmlns="http://www.w3.org/2000/svg" xmlns:xlink="http://www.w3.org/1999/xlink" x="0px" y="0px"
	 viewBox="0 0 20 20" style="enable-background:new 0 0 20 20;" xml:space="preserve">
<style type="text/css">
	.st0{fill:#FFFFFF;}
	.st1{clip-path:url(#SVGID_2_);}
	.st2{clip-path:url(#SVGID_4_);}
	.st3{clip-path:url(#SVGID_6_);}
	.st4{clip-path:url(#SVGID_8_);fill-rule:evenodd;clip-rule:evenodd;fill:#121111;}
	.st5{clip-path:url(#SVGID_10_);fill-rule:evenodd;clip-rule:evenodd;}
</style>
<g id="Слой_1">
	<path d="M15,2.1C13.6,0.7,11.9,0,10,0C8.1,0,6.4,0.7,5,2.1c-2.4,2.4-2.8,7.1-0.7,9.8L10,20l5.6-8.1C17.7,9.1,17.4,4.5,15,2.1z
		 M11.3,12.1c0,0.1,0,0.2-0.1,0.3c-0.1,0.1-0.2,0.1-0.3,0.1H9.1c-0.1,0-0.2,0-0.3-0.1c-0.1-0.1-0.1-0.2-0.1-0.3v-1.5
		c0-0.1,0-0.2,0.1-0.3c0.1-0.1,0.2-0.1,0.3-0.1h1.7c0.1,0,0.2,0,0.3,0.1c0.1,0.1,0.1,0.2,0.1,0.3V12.1z M11.3,8.6
		c0,0.1-0.1,0.2-0.1,0.3C11.1,9,11,9,10.9,9H9.1C9,9,8.9,9,8.8,8.9C8.7,8.8,8.7,8.7,8.7,8.6L8.5,4.3c0-0.1,0-0.2,0.1-0.3
		C8.7,4,8.8,3.9,8.9,3.9h2.2c0.1,0,0.2,0,0.3,0.1c0.1,0.1,0.1,0.2,0.1,0.3L11.3,8.6z"/>
</g>
<g id="Слой_2">
</g>
<g id="Слой_3">
</g>
</svg>
