<?xml version="1.0" encoding="utf-8"?>
<!-- Generator: Adobe Illustrator 21.0.2, SVG Export Plug-In . SVG Version: 6.00 Build 0)  -->
<svg version="1.1" id="Слой_1" xmlns="http://www.w3.org/2000/svg" xmlns:xlink="http://www.w3.org/1999/xlink" x="0px" y="0px"
	 viewBox="0 0 17 17" style="enable-background:new 0 0 17 17;" xml:space="preserve">
<style type="text/css">
	.st0{fill:#FFFFFF;}
	.st1{clip-path:url(#XMLID_95_);}
	.st2{fill:#12100B;}
	.st3{clip-path:url(#XMLID_96_);}
	.st4{fill:#211915;}
	.st5{fill:#231F20;}
	.st6{fill:#1E120D;}
	.st7{fill:none;}
</style>
<g id="XMLID_182_">
	<path id="XMLID_190_" d="M17,15c-0.4,0-0.7-0.1-1-0.2c-0.4-0.2-0.7-0.2-1.1-0.2c-0.4,0-0.7,0.1-1.1,0.2c-0.3,0.2-0.7,0.2-1,0.2
		c-0.4,0-0.7-0.1-1-0.2c-0.4-0.2-0.7-0.2-1.1-0.2c-0.4,0-0.7,0.1-1.1,0.2c-0.3,0.2-0.7,0.2-1,0.2c-0.4,0-0.7-0.1-1-0.2
		c-0.3-0.2-0.7-0.2-1.1-0.2s-0.7,0.1-1.1,0.2C5,14.9,4.6,15,4.2,15c-0.4,0-0.7-0.1-1-0.2c-0.3-0.2-0.7-0.2-1.1-0.2
		c-0.4,0-0.7,0.1-1.1,0.2C0.7,14.9,0.4,15,0,15v-1.6c0.4,0,0.7-0.1,1.1-0.2C1.4,13.1,1.8,13,2.1,13c0.4,0,0.7,0.1,1.1,0.2
		c0.3,0.2,0.7,0.2,1.1,0.2c0.4,0,0.7-0.1,1-0.2C5.6,13.1,6,13,6.4,13c0.4,0,0.7,0.1,1.1,0.2c0.3,0.2,0.7,0.2,1.1,0.2
		c0.4,0,0.7-0.1,1-0.2c0.3-0.2,0.7-0.2,1.1-0.2c0.3,0,0.7,0.1,1.1,0.2c0.3,0.2,0.7,0.2,1,0.2c0.4,0,0.7-0.1,1.1-0.2
		c0.3-0.2,0.7-0.2,1.1-0.2c0.4,0,0.7,0.1,1.1,0.2c0.3,0.2,0.7,0.2,1,0.2V15z M17,15"/>
	<path id="XMLID_187_" d="M14.5,9.6c0.6,0,1-0.2,1.4-0.6c0.4-0.4,0.6-0.9,0.6-1.4c0-0.6-0.2-1-0.6-1.4c-0.4-0.4-0.9-0.6-1.4-0.6
		c-0.6,0-1,0.2-1.4,0.6c-0.4,0.4-0.6,0.9-0.6,1.4c0,0.6,0.2,1.1,0.6,1.4C13.5,9.4,13.9,9.6,14.5,9.6L14.5,9.6z M14.5,9.6"/>
	<path id="XMLID_184_" d="M2.8,10.7c0.1,0,0.3,0.1,0.4,0.1c0.3,0.2,0.7,0.2,1.1,0.2c0.4,0,0.7-0.1,1-0.2c0.4-0.2,0.7-0.2,1.1-0.2
		c0.4,0,0.7,0.1,1.1,0.2c0.3,0.2,0.7,0.2,1.1,0.2c0.4,0,0.7-0.1,1-0.2c0.4-0.2,0.7-0.2,1.1-0.2c0.4,0,0.7,0.1,1.1,0.2
		c0.3,0.2,0.7,0.2,1,0.2c0.3,0,0.5,0,0.8-0.1l-3.4-6l3.9-0.7c0.3,0,0.5-0.2,0.7-0.4c0.2-0.2,0.3-0.5,0.3-0.8c0-0.3-0.1-0.6-0.3-0.8
		C14.5,2.1,14.2,2,13.9,2c-0.1,0-0.1,0-0.1,0l-6,1.1C7.5,3.1,7.3,3.3,7.1,3.6C6.9,3.9,6.9,4.2,7,4.6l0.1,0.1l1.6,2.8L2.8,10.7z
		 M2.8,10.7"/>
</g>
</svg>
