<?xml version="1.0" encoding="utf-8"?>
<!-- Generator: Adobe Illustrator 21.0.0, SVG Export Plug-In . SVG Version: 6.00 Build 0)  -->
<svg version="1.1" id="Слой_1" xmlns="http://www.w3.org/2000/svg" xmlns:xlink="http://www.w3.org/1999/xlink" x="0px" y="0px"
	 viewBox="0 0 42.3654442 42.4101791" style="enable-background:new 0 0 42.3654442 42.4101791;" xml:space="preserve">
<path d="M42.349102,17.0391464c-0.0549927-0.2649841-0.2390137-0.4839783-0.4849854-0.5819702
	c-2.2030029-0.8790293-4.539032-1.3240061-6.94104-1.3240061c-3.741972,0-6.6329632,1.0700083-7.7499676,1.5549936L15.2711,6.559165
	c0.4140015-3.6529846-1.5549927-6.1529846-1.644989-6.2619934c-0.1410217-0.1759949-0.3519897-0.2850037-0.5780029-0.2970276
	c-0.2270203-0.0039673-0.4490051,0.0740051-0.6090088,0.2350159l-12.20401,12.2030029
	c-0.1599731,0.1600037-0.2460022,0.3829956-0.2339783,0.6130066c0.0159912,0.2269897,0.125,0.4370117,0.3009949,0.5780029
	c1.7460022,1.3869934,3.875,1.6759949,5.3549805,1.6759949c0.3280029,0,0.6099854-0.0159912,0.8240051-0.0310059
	l10.1799927,11.9609995c-0.6949778,1.7850037-2.81598,8.2179871-0.2460022,14.6710205
	c0.0980225,0.2499695,0.31604,0.4339905,0.5820007,0.4889832c0.0510254,0.0079956,0.1060181,0.0150146,0.1600037,0.0150146
	c0.2110291,0,0.414032-0.0820313,0.5670166-0.2340088l11.6560059-11.6560059l10.8549786,10.855011
	c0.1569824,0.1560059,0.3599854,0.2349854,0.5670166,0.2349854c0.2030029,0,0.4100037-0.0789795,0.5660095-0.2349854
	c0.3129883-0.3120117,0.3129883-0.8160095,0-1.1290283L30.5091076,29.3871689l11.6249981-11.6210022
	C42.3211174,17.5741806,42.4031181,17.3011703,42.349102,17.0391464L42.349102,17.0391464z M42.349102,17.0391464"/>
</svg>
