<?xml version="1.0" encoding="utf-8"?>
<!-- Generator: Adobe Illustrator 21.0.2, SVG Export Plug-In . SVG Version: 6.00 Build 0)  -->
<svg version="1.1" id="Слой_1" xmlns="http://www.w3.org/2000/svg" xmlns:xlink="http://www.w3.org/1999/xlink" x="0px" y="0px"
	 viewBox="0 0 17 17" style="enable-background:new 0 0 17 17;" xml:space="preserve">
<style type="text/css">
	.st0{fill:#FFFFFF;}
	.st1{fill:#12100B;}
	.st2{clip-path:url(#XMLID_217_);}
	.st3{clip-path:url(#XMLID_218_);}
	.st4{clip-path:url(#XMLID_219_);fill:#12100B;}
	.st5{clip-path:url(#XMLID_220_);fill:#020400;}
	.st6{fill:#020400;}
	.st7{clip-path:url(#XMLID_240_);}
	.st8{clip-path:url(#XMLID_241_);}
	.st9{clip-path:url(#XMLID_244_);fill:#12100B;}
	.st10{clip-path:url(#XMLID_247_);fill:#020400;}
</style>
<g id="XMLID_424_">
	<path id="XMLID_431_" d="M8.8,0c0,0.5,0,0.9,0,1.4H8.2c0-0.5,0-0.9,0-1.4H6.5C5.3,5.7,4.2,11.3,3,17h4.6c0-0.5,0-0.9,0-1.4h1.6
		c0,0.5,0,0.9,0,1.4H14c-1.1-5.7-2.3-11.3-3.4-17H8.8z M8.1,3.5c0.3,0,0.6,0,0.8,0C9,4.8,9,6.1,9,7.4H8C8,6.1,8,4.8,8.1,3.5L8.1,3.5
		z M7.8,13.5c0-1.3,0.1-2.6,0.1-3.9c0.4,0,0.8,0,1.2,0c0,1.3,0.1,2.6,0.1,3.9H7.8z M7.8,13.5"/>
	<path id="XMLID_428_" d="M11.6,0h-0.6c1.5,5.7,2.9,11.3,4.4,17H17C15.2,11.3,13.4,5.7,11.6,0L11.6,0z M11.6,0"/>
	<path id="XMLID_425_" d="M5.4,0C3.6,5.7,1.8,11.3,0,17h1.6C3,11.3,4.5,5.7,5.9,0H5.4z M5.4,0"/>
</g>
</svg>
