<?xml version="1.0" encoding="utf-8"?>
<!-- Generator: Adobe Illustrator 21.0.2, SVG Export Plug-In . SVG Version: 6.00 Build 0)  -->
<svg version="1.1" xmlns="http://www.w3.org/2000/svg" xmlns:xlink="http://www.w3.org/1999/xlink" x="0px" y="0px"
	 viewBox="0 0 20 20" style="enable-background:new 0 0 20 20;" xml:space="preserve">
<style type="text/css">
	.st0{fill:#FFFFFF;}
	.st1{clip-path:url(#SVGID_2_);}
	.st2{clip-path:url(#SVGID_4_);}
	.st3{clip-path:url(#SVGID_6_);}
	.st4{clip-path:url(#SVGID_8_);fill-rule:evenodd;clip-rule:evenodd;fill:#121111;}
	.st5{clip-path:url(#SVGID_10_);fill-rule:evenodd;clip-rule:evenodd;}
</style>
<g id="Слой_1">
	<g>
		<polygon points="0.7,5.6 7.2,9.6 9.7,8.2 9.7,0 0.5,5.5 		"/>
		<polygon points="0.6,6.3 0,6 0,14.1 2.6,15.7 2.6,10.2 5.7,12 5.7,17.6 9.7,20 9.7,11.8 6.6,10 		"/>
		<polygon points="19.6,5.6 10.3,0 10.3,8.2 12.9,9.7 		"/>
		<polygon points="13.5,10.1 10.4,12 10.3,20 14.3,17.7 14.3,12.2 17.4,10.3 17.4,15.9 20,14.4 20,14 20,6.2 		"/>
	</g>
</g>
<g id="Слой_2">
</g>
<g id="Слой_3">
</g>
</svg>
