<?xml version="1.0" encoding="utf-8"?>
<!-- Generator: Adobe Illustrator 21.0.2, SVG Export Plug-In . SVG Version: 6.00 Build 0)  -->
<svg version="1.1" xmlns="http://www.w3.org/2000/svg" xmlns:xlink="http://www.w3.org/1999/xlink" x="0px" y="0px"
	 viewBox="0 0 20 20" style="enable-background:new 0 0 20 20;" xml:space="preserve">
<style type="text/css">
	.st0{fill:#FFFFFF;}
	.st1{clip-path:url(#SVGID_2_);}
	.st2{clip-path:url(#SVGID_4_);}
	.st3{clip-path:url(#SVGID_6_);}
	.st4{clip-path:url(#SVGID_8_);fill-rule:evenodd;clip-rule:evenodd;fill:#121111;}
	.st5{clip-path:url(#SVGID_10_);fill-rule:evenodd;clip-rule:evenodd;}
</style>
<g id="Слой_1">
	<g>
		<path d="M20,12.7l-2.2-3.5V2.8l-0.9-0.9H3.1L2.2,2.8v6.4L0,12.7H20z M16,3.7v4.5c-1.2-0.3-3.2-0.7-6-0.7c-2.8,0-4.8,0.4-6,0.7V3.7
			H16z M16,3.7"/>
		<path d="M0,13.8v1.8h2.1v2.5h1.8v-2.5h12.2v2.5h1.8v-2.5H20v-1.8H0z M0,13.8"/>
		<path d="M9.3,6.6v-1c0-0.6-0.9-1.1-2-1.1s-2,0.5-2,1.1v1.6c0,0,1.2-0.3,2-0.4C8,6.7,9.3,6.6,9.3,6.6L9.3,6.6z M9.3,6.6"/>
		<path d="M14.7,7.1V5.5c0-0.6-0.9-1.1-2-1.1s-2,0.5-2,1.1v1c0,0,1.3,0.1,2,0.1C13.6,6.8,14.7,7.1,14.7,7.1L14.7,7.1z M14.7,7.1"/>
	</g>
</g>
<g id="Слой_2">
</g>
<g id="Слой_3">
</g>
</svg>
