<?xml version="1.0" encoding="utf-8"?>
<!-- Generator: Adobe Illustrator 21.0.2, SVG Export Plug-In . SVG Version: 6.00 Build 0)  -->
<svg version="1.1" id="Слой_1" xmlns="http://www.w3.org/2000/svg" xmlns:xlink="http://www.w3.org/1999/xlink" x="0px" y="0px"
	 viewBox="0 0 17 17" style="enable-background:new 0 0 17 17;" xml:space="preserve">
<style type="text/css">
	.st0{fill:#FFFFFF;}
	.st1{fill:#12100B;}
	.st2{clip-path:url(#XMLID_217_);}
	.st3{clip-path:url(#XMLID_218_);}
	.st4{clip-path:url(#XMLID_219_);fill:#12100B;}
	.st5{clip-path:url(#XMLID_220_);fill:#020400;}
	.st6{fill:#020400;}
	.st7{clip-path:url(#XMLID_240_);}
	.st8{clip-path:url(#XMLID_241_);}
	.st9{clip-path:url(#XMLID_244_);fill:#12100B;}
	.st10{clip-path:url(#XMLID_247_);fill:#020400;}
</style>
<path id="XMLID_355_" d="M16.3,12.1h-2.3l-3.7-7.7c-0.1-0.1-0.2-0.2-0.3-0.2c-0.1,0-0.2,0.1-0.2,0.3v7.6H9.1V0.7
	c0-0.3-0.2-0.6-0.5-0.6C8.2,0.1,8,0.4,8,0.7v11.4H7.2V1.2c0-0.2-0.2-0.4-0.4-0.4c-0.2,0-0.4,0.1-0.5,0.2L1.5,12.1H0.7
	c-0.4,0-0.7,0.3-0.7,0.7c0,2.3,1.9,4.1,4.1,4.1h8.7c2.3,0,4.1-1.9,4.1-4.1C17,12.4,16.7,12.1,16.3,12.1z"/>
</svg>
