<?xml version="1.0" encoding="iso-8859-1"?>
<!-- Generator: Adobe Illustrator 21.0.0, SVG Export Plug-In . SVG Version: 6.00 Build 0)  -->
<svg version="1.1" id="&#x421;&#x43B;&#x43E;&#x439;_1"
	 xmlns="http://www.w3.org/2000/svg" xmlns:xlink="http://www.w3.org/1999/xlink" x="0px" y="0px" viewBox="0 0 124.874 160.179"
	 style="enable-background:new 0 0 124.874 160.179;" xml:space="preserve">
<g>
	<g>
		<path d="M23.512,113.531h77.855v22.242H23.512V113.531z M124.754,17.336l-8.859,36.503c3.433,7.45,5.371,15.727,5.386,24.446
			l0.117,67.371c0.008,3.832-1.48,7.437-4.183,10.148c-2.703,2.715-6.305,4.215-10.133,4.219l-89.121,0.156h-0.023
			c-7.895,0-14.329-6.425-14.344-14.316L3.477,78.492C3.465,69.75,5.348,61.296,8.922,53.597L0.121,17.336
			c-0.457-1.883,0.414-3.844,2.121-4.77l14.719-7.973c1.168-0.632,2.562-0.687,3.773-0.148c1.215,0.539,2.11,1.609,2.422,2.898
			l5.52,22.743c2.629-1.844,5.39-3.45,8.262-4.829v-3.015C36.934,9.976,46.914,0,59.18,0h6.515c12.266,0,22.246,9.976,22.246,22.242
			v3.113c2.879,1.399,5.633,3.016,8.231,4.84l5.547-22.852c0.312-1.289,1.207-2.359,2.418-2.898
			c1.215-0.539,2.609-0.484,3.777,0.148l14.719,7.973C124.34,13.492,125.211,15.453,124.754,17.336L124.754,17.336z M45.504,21.945
			c5.375-1.602,11.008-2.449,16.773-2.457h0.106c5.906,0,11.609,0.887,16.992,2.519c-0.129-7.437-6.211-13.453-13.68-13.453H59.18
			C51.73,8.554,45.668,14.535,45.504,21.945L45.504,21.945z M109.922,109.254c0-2.364-1.918-4.278-4.277-4.278H19.234
			c-2.363,0-4.277,1.914-4.277,4.278v30.8c0,2.36,1.914,4.278,4.277,4.278h86.411c2.359,0,4.277-1.918,4.277-4.278V109.254z
			 M109.922,80.453c0-26.184-21.301-47.485-47.484-47.485c-26.184,0-47.485,21.301-47.485,47.485c0,2.363,1.918,4.277,4.277,4.277
			c2.364,0,4.278-1.914,4.278-4.277c0-21.465,17.465-38.926,38.93-38.926c21.464,0,38.925,17.461,38.925,38.926
			c0,2.363,1.918,4.277,4.278,4.277C108.004,84.73,109.922,82.816,109.922,80.453L109.922,80.453z M109.922,80.453"/>
	</g>
</g>
</svg>
