<?xml version="1.0" encoding="utf-8"?>
<!-- Generator: Adobe Illustrator 21.0.2, SVG Export Plug-In . SVG Version: 6.00 Build 0)  -->
<svg version="1.1" id="Слой_1" xmlns="http://www.w3.org/2000/svg" xmlns:xlink="http://www.w3.org/1999/xlink" x="0px" y="0px"
	 viewBox="0 0 17 17" style="enable-background:new 0 0 17 17;" xml:space="preserve">
<style type="text/css">
	.st0{fill:#FFFFFF;}
	.st1{fill:#12100B;}
	.st2{clip-path:url(#XMLID_217_);}
	.st3{clip-path:url(#XMLID_218_);}
	.st4{clip-path:url(#XMLID_219_);fill:#12100B;}
	.st5{clip-path:url(#XMLID_220_);fill:#020400;}
	.st6{fill:#020400;}
	.st7{clip-path:url(#XMLID_240_);}
	.st8{clip-path:url(#XMLID_241_);}
	.st9{clip-path:url(#XMLID_244_);fill:#12100B;}
	.st10{clip-path:url(#XMLID_247_);fill:#020400;}
</style>
<g id="XMLID_376_">
	<path id="XMLID_383_" d="M2.6,11.9v1.8c0,1.8,1.5,3.3,3.3,3.3h2.2c0.6,0,1.1-0.5,1.1-1.1c0-0.6-0.5-1.1-1.1-1.1H5.9
		c-0.6,0-1.1-0.5-1.1-1.1v-1.6c-0.3,0-0.5,0.1-0.8,0.1C3.6,12.2,3.1,12.1,2.6,11.9L2.6,11.9z M2.6,11.9"/>
	<path id="XMLID_380_" d="M4.8,3V1.1C4.8,0.5,4.3,0,3.7,0C3.1,0,2.6,0.5,2.6,1.1v2.1C3.1,3.1,3.6,3,4.1,3L4.8,3z M4.8,3"/>
	<path id="XMLID_377_" d="M12.9,4.1l-8.8,0c-1.8,0-3.5,1.6-3.5,3.5c0,1.9,1.5,3.5,3.5,3.5c1.1,0,2.1-0.5,2.8-1.4
		c0.4-0.5,1-0.8,1.6-0.8h0c0.7,0,1.3,0.3,1.7,0.8c0.6,0.8,1.6,1.3,2.7,1.3c1.9,0,3.5-1.6,3.5-3.5C16.4,5.6,14.9,4.1,12.9,4.1
		L12.9,4.1z M12.9,4.1"/>
</g>
</svg>
