<?xml version="1.0" encoding="utf-8"?>
<!-- Generator: Adobe Illustrator 21.0.2, SVG Export Plug-In . SVG Version: 6.00 Build 0)  -->
<svg version="1.1" id="Слой_1" xmlns="http://www.w3.org/2000/svg" xmlns:xlink="http://www.w3.org/1999/xlink" x="0px" y="0px"
	 viewBox="0 0 17 17" style="enable-background:new 0 0 17 17;" xml:space="preserve">
<style type="text/css">
	.st0{fill:#FFFFFF;}
	.st1{clip-path:url(#XMLID_95_);}
	.st2{fill:#12100B;}
	.st3{clip-path:url(#XMLID_96_);}
	.st4{fill:#211915;}
	.st5{fill:#231F20;}
	.st6{fill:#1E120D;}
	.st7{fill:none;}
</style>
<g id="XMLID_131_">
	<g id="XMLID_132_">
		<path id="XMLID_139_" d="M16.4,12.4c-0.6,0-1.2-0.3-1.6-0.7c-0.1-0.1-0.3-0.2-0.4-0.2c-0.2,0-0.3,0.1-0.4,0.2
			c-0.4,0.5-1,0.7-1.6,0.7c-0.6,0-1.2-0.3-1.6-0.7c-0.1-0.1-0.3-0.2-0.4-0.2c-0.2,0-0.3,0.1-0.4,0.2c-0.4,0.5-1,0.7-1.6,0.7
			c-0.6,0-1.2-0.3-1.6-0.7c-0.1-0.1-0.3-0.2-0.4-0.2s-0.3,0.1-0.4,0.2c-0.4,0.5-1,0.7-1.6,0.7c-0.6,0-1.2-0.3-1.6-0.7
			c-0.1-0.1-0.3-0.2-0.4-0.2c-0.2,0-0.3,0.1-0.4,0.2c-0.4,0.5-1,0.7-1.6,0.7c-0.3,0-0.6,0.2-0.6,0.6c0,0.3,0.2,0.6,0.6,0.6
			c0.6,0,1.3-0.2,1.8-0.6c0.1,0,0.1-0.1,0.2-0.1c0.1,0,0.1,0.1,0.2,0.1c0.5,0.4,1.1,0.6,1.8,0.6c0.6,0,1.3-0.2,1.8-0.6
			c0.1,0,0.1-0.1,0.2-0.1c0.1,0,0.1,0.1,0.2,0.1c0.5,0.4,1.1,0.6,1.8,0.6c0.6,0,1.3-0.2,1.8-0.6c0.1,0,0.1-0.1,0.2-0.1
			c0.1,0,0.1,0.1,0.2,0.1c0.5,0.4,1.1,0.6,1.8,0.6s1.3-0.2,1.8-0.6c0.1,0,0.1-0.1,0.2-0.1c0.1,0,0.1,0.1,0.2,0.1
			c0.5,0.4,1.1,0.6,1.8,0.6c0.3,0,0.6-0.2,0.6-0.6C17,12.6,16.7,12.4,16.4,12.4L16.4,12.4z M16.4,11.4"/>
		<path id="XMLID_136_" d="M16.4,8.4c-0.6,0-1.2-0.3-1.6-0.7c-0.1-0.1-0.3-0.2-0.4-0.2c-0.2,0-0.3,0.1-0.4,0.2
			c-0.4,0.5-1,0.7-1.6,0.7c-0.6,0-1.2-0.3-1.6-0.7c-0.1-0.1-0.3-0.2-0.4-0.2c-0.2,0-0.3,0.1-0.4,0.2c-0.4,0.5-1,0.7-1.6,0.7
			c-0.6,0-1.2-0.3-1.6-0.7C6.8,7.6,6.7,7.5,6.5,7.5S6.2,7.6,6.1,7.7c-0.4,0.5-1,0.7-1.6,0.7C3.9,8.4,3.4,8.1,3,7.7
			C2.9,7.6,2.7,7.5,2.5,7.5c-0.2,0-0.3,0.1-0.4,0.2c-0.4,0.5-1,0.7-1.6,0.7C0.3,8.4,0,8.6,0,9c0,0.3,0.2,0.6,0.6,0.6
			c0.6,0,1.3-0.2,1.8-0.6c0.1,0,0.1-0.1,0.2-0.1c0.1,0,0.1,0.1,0.2,0.1c0.5,0.4,1.1,0.6,1.8,0.6c0.6,0,1.3-0.2,1.8-0.6
			c0.1,0,0.1-0.1,0.2-0.1c0.1,0,0.1,0.1,0.2,0.1c0.5,0.4,1.1,0.6,1.8,0.6c0.6,0,1.3-0.2,1.8-0.6c0.1,0,0.1-0.1,0.2-0.1
			c0.1,0,0.1,0.1,0.2,0.1c0.5,0.4,1.1,0.6,1.8,0.6s1.3-0.2,1.8-0.6c0.1,0,0.1-0.1,0.2-0.1c0.1,0,0.1,0.1,0.2,0.1
			c0.5,0.4,1.1,0.6,1.8,0.6C16.7,9.5,17,9.3,17,9C17,8.6,16.7,8.4,16.4,8.4L16.4,8.4z M16.4,8.4"/>
		<path id="XMLID_133_" d="M0.6,5.6c0.6,0,1.3-0.2,1.8-0.6c0.1,0,0.1-0.1,0.2-0.1C2.6,4.9,2.7,5,2.7,5c0.5,0.4,1.1,0.6,1.8,0.6
			c0.6,0,1.3-0.2,1.8-0.6c0.1,0,0.1-0.1,0.2-0.1C6.6,4.9,6.6,5,6.7,5c0.5,0.4,1.1,0.6,1.8,0.6c0.6,0,1.3-0.2,1.8-0.6
			c0.1,0,0.1-0.1,0.2-0.1c0.1,0,0.1,0.1,0.2,0.1c0.5,0.4,1.1,0.6,1.8,0.6s1.3-0.2,1.8-0.6c0.1,0,0.1-0.1,0.2-0.1
			c0.1,0,0.1,0.1,0.2,0.1c0.5,0.4,1.1,0.6,1.8,0.6C16.7,5.6,17,5.3,17,5c0-0.3-0.2-0.6-0.6-0.6c-0.6,0-1.2-0.3-1.6-0.7
			c-0.1-0.1-0.3-0.2-0.4-0.2c-0.2,0-0.3,0.1-0.4,0.2c-0.4,0.5-1,0.7-1.6,0.7c-0.6,0-1.2-0.3-1.6-0.7c-0.1-0.1-0.3-0.2-0.4-0.2
			c-0.2,0-0.3,0.1-0.4,0.2c-0.4,0.5-1,0.7-1.6,0.7c-0.6,0-1.2-0.3-1.6-0.7C6.8,3.6,6.7,3.5,6.5,3.5S6.2,3.6,6.1,3.7
			c-0.4,0.5-1,0.7-1.6,0.7C3.9,4.4,3.4,4.2,3,3.7C2.9,3.6,2.7,3.5,2.5,3.5c-0.2,0-0.3,0.1-0.4,0.2c-0.4,0.5-1,0.7-1.6,0.7
			C0.3,4.4,0,4.7,0,5C0,5.3,0.3,5.6,0.6,5.6L0.6,5.6z M0.6,5.6"/>
	</g>
</g>
</svg>
