<?xml version="1.0" encoding="utf-8"?>
<!-- Generator: Adobe Illustrator 21.0.0, SVG Export Plug-In . SVG Version: 6.00 Build 0)  -->
<svg version="1.1" id="Слой_1" xmlns="http://www.w3.org/2000/svg" xmlns:xlink="http://www.w3.org/1999/xlink" x="0px" y="0px"
	 viewBox="0 0 11 11" style="enable-background:new 0 0 11 11;" xml:space="preserve">
<path d="M10.7,10.7c-0.4,0.4-0.9,0.4-1.3,0L7.6,8.9C6.9,9.5,5.9,9.8,4.9,9.8C2.2,9.8,0,7.6,0,4.9S2.2,0,4.9,0s4.9,2.2,4.9,4.9
	c0,1-0.3,2-0.9,2.8l1.8,1.8C11.1,9.8,11.1,10.4,10.7,10.7z M4.9,1.8c-1.7,0-3.1,1.4-3.1,3.1c0,1.7,1.4,3.1,3.1,3.1
	c1.7,0,3.1-1.4,3.1-3.1C7.9,3.2,6.6,1.8,4.9,1.8z"/>
</svg>
