<?xml version="1.0" encoding="utf-8"?>
<!-- Generator: Adobe Illustrator 21.0.0, SVG Export Plug-In . SVG Version: 6.00 Build 0)  -->
<svg version="1.1" id="Layer_1" xmlns="http://www.w3.org/2000/svg" xmlns:xlink="http://www.w3.org/1999/xlink" x="0px" y="0px"
	 viewBox="-49 163.3 512 478.4" style="enable-background:new -49 163.3 512 478.4;" xml:space="preserve">
<style type="text/css">
	.st0{fill:#12100B;}
</style>
<g>
	<g>
		<path class="st0" d="M30.3,374.1l-43.1-29.8l43.1-29.8V374.1L30.3,374.1z M357.5,241.7v149.9l-101,70.2l-41.2-32
			c-0.1-0.1-0.1-0.1-0.2-0.1c-4.6-3.5-11.1-3.6-15.9,0.1l-41.5,32.2L56.5,392.2V241.7H357.5L357.5,241.7z M207,192.3l33.3,23.2
			h-66.8L207,192.3L207,192.3z M425.6,344.3l-41.9,29.1v-58.2L425.6,344.3L425.6,344.3z M278.1,478.7l158.3-110l0.3,233.1
			L278.1,478.7L278.1,478.7z M207.2,456.9l203.6,157.9L2.9,615.4L207.2,456.9L207.2,456.9z M135.9,479L-22.4,601.8l-0.3-232.5
			L135.9,479L135.9,479z M462.6,344c0-0.8-0.2-1.9-0.5-2.6c-0.8-2.9-2.5-5.5-5.2-7.3l-73.3-50.9v-54.6c0-7.2-5.9-13.1-13.1-13.1
			h-84.3l-71.7-49.9c-4.5-3.1-10.4-3.1-14.9,0l-72.2,49.9H43.4c-7.2,0-13.1,5.9-13.1,13.1v54l-73.6,50.9c-3.6,2.5-5.6,6.5-5.6,10.6
			c0,0.1,0,0.2,0,0.2l0.4,284.2c0,3.5,1.4,6.8,3.9,9.3c2.5,2.5,5.8,3.8,9.3,3.8c0,0,0,0,0,0l485.4-0.7c7.2,0,13.1-5.9,13.1-13.1
			L462.6,344L462.6,344z"/>
	</g>
	<path class="st0" d="M118.2,320.4h177.5c7.2,0,13.1-5.9,13.1-13.1c0-7.2-5.9-13.1-13.1-13.1H118.2c-7.2,0-13.1,5.9-13.1,13.1
		C105.1,314.5,111,320.4,118.2,320.4L118.2,320.4z"/>
	<path class="st0" d="M118.2,388.6h177.5c7.2,0,13.1-5.9,13.1-13.1c0-7.2-5.9-13.1-13.1-13.1H118.2c-7.2,0-13.1,5.9-13.1,13.1
		C105.1,382.7,111,388.6,118.2,388.6L118.2,388.6z"/>
</g>
</svg>
