<?xml version="1.0" encoding="utf-8"?>
<!-- Generator: Adobe Illustrator 21.0.0, SVG Export Plug-In . SVG Version: 6.00 Build 0)  -->
<svg version="1.1" id="Слой_1" xmlns="http://www.w3.org/2000/svg" xmlns:xlink="http://www.w3.org/1999/xlink" x="0px" y="0px"
	 viewBox="0 0 16.9 17" style="enable-background:new 0 0 16.9 17;" xml:space="preserve">
<g>
	<path id="XMLID_183_" d="M6.3,6.3c-0.2,0-0.3,0-0.5-0.1C5.5,6,5.2,5.7,5.2,5.3l-0.5-3c-0.3,0-0.5,0-0.8,0.1l0,0
		C3.2,2.7,2.8,3.3,2.6,3.9L0,16.2c0,0.1,0,0.2,0.1,0.3c0.1,0.1,0.1,0.1,0.2,0.2L1.9,17c0.2,0,0.4-0.1,0.4-0.3l2-8.2v7.6
		c0,0.1,0,0.2,0.1,0.3c0.1,0.1,0.2,0.1,0.3,0.1H8v-11L7,6.1C6.8,6.2,6.5,6.3,6.3,6.3L6.3,6.3z"/>
	<path id="XMLID_180_" d="M16.9,16.2L14.3,3.9c-0.1-0.7-0.6-1.2-1.3-1.5c-0.3-0.1-0.5-0.1-0.8-0.1l-0.5,3C11.6,5.7,11.4,6,11,6.2
		c-0.1,0.1-0.3,0.1-0.5,0.1s-0.4-0.1-0.6-0.2l-1-0.7v11h3.3c0.1,0,0.2,0,0.3-0.1s0.1-0.2,0.1-0.3V8.4l2,8.2c0,0.2,0.2,0.3,0.4,0.3
		l1.6-0.3c0.1,0,0.2-0.1,0.2-0.2C16.9,16.4,16.9,16.3,16.9,16.2L16.9,16.2z"/>
	<path id="XMLID_174_" d="M10.6,5.5h0.1c0.1,0,0.2-0.1,0.2-0.2L11.4,2c0.1-0.8-0.4-1.6-1.2-1.8h-0.1C9.7,0.1,9.1,0,8.5,0
		C7.8,0,7.3,0.1,6.8,0.2H6.7C5.9,0.4,5.4,1.2,5.5,2L6,5.2c0,0.1,0.1,0.2,0.2,0.2h0.1c0.1,0,0.1,0,0.2-0.1l2-1.3l2,1.3
		C10.5,5.4,10.6,5.5,10.6,5.5L10.6,5.5z M9.9,2.2L8.5,3.9L7,2.2V2.1C7,2,7.1,2,7.2,1.9c0.3,0,0.7-0.1,1.1-0.1c0.1,0,0.2,0,0.2,0
		c0.1,0,0.2,0,0.2,0c0.4,0,0.7,0,1.1,0.1C9.9,2,9.9,2,9.9,2.1C10,2.1,9.9,2.2,9.9,2.2L9.9,2.2z"/>
</g>
</svg>
