<?xml version="1.0" encoding="utf-8"?>
<!-- Generator: Adobe Illustrator 21.0.2, SVG Export Plug-In . SVG Version: 6.00 Build 0)  -->
<svg version="1.1" id="Слой_1" xmlns="http://www.w3.org/2000/svg" xmlns:xlink="http://www.w3.org/1999/xlink" x="0px" y="0px"
	 viewBox="0 0 17 17" style="enable-background:new 0 0 17 17;" xml:space="preserve">
<style type="text/css">
	.st0{fill:#FFFFFF;}
	.st1{fill:#12100B;}
	.st2{clip-path:url(#XMLID_217_);}
	.st3{clip-path:url(#XMLID_218_);}
	.st4{clip-path:url(#XMLID_219_);fill:#12100B;}
	.st5{clip-path:url(#XMLID_220_);fill:#020400;}
	.st6{fill:#020400;}
	.st7{clip-path:url(#XMLID_240_);}
	.st8{clip-path:url(#XMLID_241_);}
	.st9{clip-path:url(#XMLID_244_);fill:#12100B;}
	.st10{clip-path:url(#XMLID_247_);fill:#020400;}
</style>
<g id="XMLID_112_">
	<g id="XMLID_113_">
		<path id="XMLID_114_" d="M13.2,16l-1.7-3v-0.8c0-0.3-0.2-0.6-0.5-0.7l-0.7-2.3L10.5,9c0.2-0.2,0.2-0.5,0.1-0.7
			c-0.1-0.2-0.3-0.3-0.4-0.4C10,7.2,9.8,8.2,9.7,6.1C9.6,3.5,9.6,3.3,9.5,2.8c0.1-0.1,0.1-0.3,0.1-0.5V1.8c0-0.4-0.2-0.7-0.5-0.8
			V0.7C9.2,0.3,8.9,0,8.5,0C8.1,0,7.8,0.3,7.8,0.7V1C7.5,1.1,7.3,1.5,7.3,1.8v0.5c0,0.2,0.1,0.3,0.1,0.5c0,0.4-0.1,0.7-0.2,3.3
			C7.2,8.2,7,7.2,6.9,7.9C6.7,8,6.5,8.1,6.4,8.3C6.3,8.5,6.3,8.8,6.5,9l0.2,0.2L6,11.5c-0.3,0.1-0.5,0.3-0.5,0.7v0.8L3.7,16
			c-0.1,0.2-0.1,0.5,0,0.7C3.9,16.9,4.1,17,4.3,17H6c0.4,0,0.7-0.3,0.7-0.7c0-1,0.8-1.8,1.8-1.8c1,0,1.8,0.8,1.8,1.8
			c0,0.4,0.3,0.7,0.7,0.7h1.7c0,0,0,0,0,0c0.4,0,0.7-0.3,0.7-0.7C13.4,16.2,13.3,16.1,13.2,16L13.2,16z M8.1,9.2h0.7l0.5,2.6H7.6
			L8.1,9.2z M8.1,9.2"/>
	</g>
</g>
</svg>
