<?xml version="1.0" encoding="utf-8"?>
<!-- Generator: Adobe Illustrator 21.0.2, SVG Export Plug-In . SVG Version: 6.00 Build 0)  -->
<svg version="1.1" id="Слой_1" xmlns="http://www.w3.org/2000/svg" xmlns:xlink="http://www.w3.org/1999/xlink" x="0px" y="0px"
	 viewBox="0 0 17 17" style="enable-background:new 0 0 17 17;" xml:space="preserve">
<style type="text/css">
	.st0{fill:#FFFFFF;}
	.st1{clip-path:url(#XMLID_95_);}
	.st2{fill:#12100B;}
	.st3{clip-path:url(#XMLID_96_);}
	.st4{fill:#211915;}
	.st5{fill:#231F20;}
	.st6{fill:#1E120D;}
	.st7{fill:none;}
</style>
<g id="XMLID_87_">
	<g id="XMLID_97_">
		<path id="XMLID_101_" d="M14.1,1.7c0,0.9-0.8,1.7-1.7,1.7c-0.9,0-1.7-0.8-1.7-1.7c0-0.9,0.8-1.7,1.7-1.7C13.3,0,14.1,0.8,14.1,1.7
			L14.1,1.7z M14.1,1.7"/>
		<path id="XMLID_98_" d="M15.7,14.1c-0.4-0.1-0.8,0.1-0.9,0.5c-0.2,0.6-0.8,1-1.5,0.8l-2.4-0.7l1.5-2.8c0.5-0.9,0.2-2.1-0.8-2.6
			l-1.1-0.6c-0.1,0-0.1-0.2-0.1-0.3L11,7.3l0.4,0.6c0.3,0.4,0.8,0.7,1.2,0.7c0.2,0,0.5-0.1,0.7-0.2l2-1.1c0.4-0.2,0.5-0.7,0.3-1
			c-0.2-0.4-0.7-0.5-1-0.3L12.6,7l-0.8-1.3c0-0.2,0-0.4,0-0.6c-0.1-0.4-0.4-0.7-0.7-0.9C10.3,3.7,9.4,4,9,4.7L8.8,5.1L3.3,2.4
			l0.2-0.5c0.1-0.3,0-0.6-0.3-0.8C3,1,2.6,1.2,2.5,1.4L2.3,1.9L1.6,1.6C1.3,1.5,1,1.6,0.8,1.9c-0.1,0.3,0,0.6,0.3,0.8L1.8,3L1.5,3.5
			c-0.1,0.3,0,0.6,0.3,0.8c0.1,0,0.2,0.1,0.2,0.1c0.2,0,0.4-0.1,0.5-0.3l0.2-0.5l5.5,2.6l-1,1.9C7,8.4,6.9,9,7.1,9.6
			c0.2,0.5,0.5,1,1,1.3l0.8,0.5c0.2,0.1,0.2,0.3,0.1,0.5l-1.2,2.1L3,12.4c-0.4-0.1-0.8,0.1-0.9,0.5c-0.1,0.4,0.1,0.8,0.5,0.9l10.3,3
			c0.3,0.1,0.5,0.1,0.8,0.1c1.2,0,2.2-0.8,2.6-1.9C16.3,14.7,16.1,14.3,15.7,14.1L15.7,14.1z M15.7,14.1"/>
	</g>
</g>
</svg>
