<?xml version="1.0" encoding="utf-8"?>
<!-- Generator: Adobe Illustrator 21.0.2, SVG Export Plug-In . SVG Version: 6.00 Build 0)  -->
<svg version="1.1" id="Слой_1" xmlns="http://www.w3.org/2000/svg" xmlns:xlink="http://www.w3.org/1999/xlink" x="0px" y="0px"
	 viewBox="0 0 17 17" style="enable-background:new 0 0 17 17;" xml:space="preserve">
<style type="text/css">
	.st0{fill:#FFFFFF;}
	.st1{clip-path:url(#XMLID_95_);}
	.st2{fill:#12100B;}
	.st3{clip-path:url(#XMLID_96_);}
	.st4{fill:#211915;}
	.st5{fill:#231F20;}
	.st6{fill:#1E120D;}
	.st7{fill:none;}
</style>
<g id="XMLID_46_">
	<path id="XMLID_59_" d="M15.2,9.3c-0.1,0.4-0.3,0.7-0.5,1.1c-1,1.8-2.8,2.9-4.1,3.5c0.3,0,0.6,0.1,0.9,0.1c0.7,0,1.4-0.1,2.1-0.4
		c2.3-1,3.4-3.8,3.4-3.8S16.2,9.4,15.2,9.3L15.2,9.3z M15.2,9.3"/>
	<path id="XMLID_56_" d="M2.3,10.4C2.1,10,2,9.6,1.8,9.3C0.8,9.4,0,9.8,0,9.8s1.1,2.8,3.4,3.8c0.7,0.3,1.4,0.4,2.1,0.4
		c0.3,0,0.6,0,0.9-0.1C5.1,13.3,3.4,12.2,2.3,10.4L2.3,10.4z M2.3,10.4"/>
	<path id="XMLID_53_" d="M10.8,12.4c1-0.6,2.2-1.4,2.9-2.7c1.6-2.7,0.6-6.2,0.6-6.2s-1.5,0.4-2.9,1.4c0.5,0.9,0.9,2.1,0.9,3.3
		C12.1,9.9,11.4,11.4,10.8,12.4L10.8,12.4z M10.8,12.4"/>
	<path id="XMLID_50_" d="M6.2,12.4c-0.7-1.1-1.3-2.5-1.3-4.2c0-1.2,0.4-2.4,0.9-3.3c-1.5-1-2.9-1.4-2.9-1.4s-1,3.5,0.6,6.2
		C4.1,11,5.2,11.9,6.2,12.4L6.2,12.4z M6.2,12.4"/>
	<path id="XMLID_47_" d="M8.5,3.1c0,0-2.4,2.3-2.4,5.2c0,2.9,2.4,5.2,2.4,5.2s2.4-2.3,2.4-5.2C10.9,5.4,8.5,3.1,8.5,3.1L8.5,3.1z
		 M8.5,3.1"/>
</g>
</svg>
