<?xml version="1.0" encoding="utf-8"?>
<!-- Generator: Adobe Illustrator 21.0.2, SVG Export Plug-In . SVG Version: 6.00 Build 0)  -->
<svg version="1.1" xmlns="http://www.w3.org/2000/svg" xmlns:xlink="http://www.w3.org/1999/xlink" x="0px" y="0px"
	 viewBox="0 0 20 20" style="enable-background:new 0 0 20 20;" xml:space="preserve">
<style type="text/css">
	.st0{fill:#FFFFFF;}
	.st1{clip-path:url(#SVGID_2_);}
	.st2{clip-path:url(#SVGID_4_);}
	.st3{clip-path:url(#SVGID_6_);}
	.st4{clip-path:url(#SVGID_8_);fill-rule:evenodd;clip-rule:evenodd;fill:#121111;}
	.st5{clip-path:url(#SVGID_10_);fill-rule:evenodd;clip-rule:evenodd;}
</style>
<g id="Слой_1">
	<g>
		<path d="M10.8,1.6C11,1.3,11,0.7,10.9,0.2c0,0,0,0,0-0.1c-0.3,0-0.6,0-1,0C8.7,0,7.6,0.3,6.5,0.7c0.8,0.4,2,1,3.3,2
			C10.3,2.3,10.6,1.9,10.8,1.6L10.8,1.6z M10.8,1.6"/>
		<path d="M15.8,7.3c-0.5,0.1-0.9,0.1-1.3,0.2c1.7,3,2.4,6.7,2.5,9.4c1.7-1.7,2.7-4,2.8-6.6C18.8,9,17.3,7.2,15.8,7.3L15.8,7.3z
			 M15.8,7.3"/>
		<path d="M5.8,4.8C7,4.5,8.1,3.9,9,3.3C7.1,2,5.6,1.4,5.2,1.2C3.3,2.3,1.8,3.9,0.9,6C2,5.5,3.3,5.3,4.5,5C4.9,4.9,5.4,4.9,5.8,4.8
			L5.8,4.8z M5.8,4.8"/>
		<path d="M12.7,5.1c0.1,0.1,0.2,0.2,0.3,0.3c0.4,0.4,0.7,0.9,1.1,1.3c0.5-0.2,1-0.3,1.7-0.4c1.6-0.2,3,1.1,4.2,2.4
			c-0.3-2.1-1.1-3.9-2.5-5.4c-0.7,0.1-1.5,0.2-2.3,0.5C14.5,4,13.7,4.4,12.7,5.1L12.7,5.1z M12.7,5.1"/>
		<path d="M11.4,10.2c0.4-1.4,0.9-2.4,1.8-3c-0.3-0.4-0.6-0.8-0.9-1.1c-0.1-0.2-0.3-0.3-0.4-0.5c-3.7,2.5-8.7,7.1-9.2,11.1
			c1.5,1.7,3.6,2.8,6,3.2c0.9-1.7,1.7-5.2,2.2-7.3C11,11.6,11.2,10.8,11.4,10.2L11.4,10.2z M11.4,10.2"/>
		<path d="M7.2,8c1.3-1.2,2.6-2.2,3.9-3.1c-0.4-0.4-0.8-0.7-1.2-1C8.8,4.7,7.4,5.5,6,5.8C5.6,5.8,5.1,5.9,4.7,6
			C3.2,6.3,1.6,6.6,0.4,7.3C0.1,8.2,0,9.1,0,10c0,2.1,0.7,4.1,1.8,5.7C2.5,12.8,5,10,7.2,8L7.2,8z M7.2,8"/>
		<path d="M11.9,4.4c1.2-0.8,2.2-1.3,2.9-1.5c0.6-0.2,1.2-0.3,1.7-0.4c-1.3-1.1-2.8-1.9-4.6-2.3c0,0.7,0.1,1.5-0.4,2
			c-0.2,0.3-0.5,0.6-1,1C11,3.6,11.5,4,11.9,4.4L11.9,4.4z M11.9,4.4"/>
		<path d="M12.3,10.5c-0.2,0.5-0.4,1.4-0.6,2.4c-0.7,2.9-1.3,5.5-2.1,7.1c0.1,0,0.2,0,0.3,0c2.3,0,4.5-0.8,6.2-2.1
			C16.1,15,15.4,11,13.7,8C13,8.5,12.7,9.3,12.3,10.5L12.3,10.5z M12.3,10.5"/>
	</g>
</g>
<g id="Слой_2">
</g>
<g id="Слой_3">
</g>
</svg>
