<?xml version="1.0" encoding="utf-8"?>
<!-- Generator: Adobe Illustrator 21.0.2, SVG Export Plug-In . SVG Version: 6.00 Build 0)  -->
<svg version="1.1" id="Слой_1" xmlns="http://www.w3.org/2000/svg" xmlns:xlink="http://www.w3.org/1999/xlink" x="0px" y="0px"
	 viewBox="0 0 17 17" style="enable-background:new 0 0 17 17;" xml:space="preserve">
<style type="text/css">
	.st0{fill:#FFFFFF;}
	.st1{clip-path:url(#XMLID_95_);}
	.st2{fill:#12100B;}
	.st3{clip-path:url(#XMLID_96_);}
	.st4{fill:#211915;}
	.st5{fill:#231F20;}
	.st6{fill:#1E120D;}
	.st7{fill:none;}
</style>
<g id="XMLID_272_">
	<path id="XMLID_26_" d="M3.6,10.9V4.9c0,0,0-0.3,0.1-0.6H1.2c0,0-1.2,0-1.2,1.2v4.3c0,1.2,1.2,1.2,1.2,1.2V17h3.6v-4.9
		C4.9,12.1,3.6,12.1,3.6,10.9L3.6,10.9z M3.6,10.9"/>
	<path id="XMLID_27_" d="M3.6,3.6c0.3,0,0.6-0.1,0.9-0.2c0,0,0.1,0,0.1-0.1C5.1,3,5.5,2.5,5.5,1.8c0-1-0.8-1.8-1.8-1.8
		c-1,0-1.8,0.8-1.8,1.8C1.8,2.8,2.6,3.6,3.6,3.6L3.6,3.6z M3.6,3.6"/>
	<path id="XMLID_28_" d="M15.8,4.3h-2.6c0.1,0.3,0.1,0.6,0.1,0.6v6.1c0,1.2-1.2,1.2-1.2,1.2V17h3.6v-6.1c0,0,1.2,0,1.2-1.2V5.5
		C17,5.5,17,4.3,15.8,4.3L15.8,4.3z M15.8,4.3"/>
	<path id="XMLID_29_" d="M12.4,3.4c0,0,0.1,0,0.1,0.1c0.3,0.1,0.5,0.2,0.9,0.2c1,0,1.8-0.8,1.8-1.8c0-1-0.8-1.8-1.8-1.8
		c-1,0-1.8,0.8-1.8,1.8C11.5,2.5,11.9,3,12.4,3.4L12.4,3.4z M12.4,3.4"/>
	<path id="XMLID_30_" d="M10.3,1.8c0,1-0.8,1.8-1.8,1.8c-1,0-1.8-0.8-1.8-1.8c0-1,0.8-1.8,1.8-1.8C9.5,0,10.3,0.8,10.3,1.8L10.3,1.8
		z M10.3,1.8"/>
	<path id="XMLID_31_" d="M12.1,5.5c0,0,0-1.2-1.2-1.2H6.1c0,0-1.2,0-1.2,1.2v4.3c0,1.2,1.2,1.2,1.2,1.2V17h4.9v-6.1
		c0,0,1.2,0,1.2-1.2V5.5z M12.1,5.5"/>
</g>
</svg>
