<?xml version="1.0" encoding="utf-8"?>
<!-- Generator: Adobe Illustrator 21.0.0, SVG Export Plug-In . SVG Version: 6.00 Build 0)  -->
<svg version="1.1" id="Слой_1" xmlns="http://www.w3.org/2000/svg" xmlns:xlink="http://www.w3.org/1999/xlink" x="0px" y="0px"
	 viewBox="0 0 364 364.0000305" style="enable-background:new 0 0 364 364.0000305;" xml:space="preserve">
<g>
	<path d="M121.6559906,137.980011L0,259.6370239v62.5700073l152.940979-152.9410095L121.6559906,137.980011z
		 M121.6559906,137.980011"/>
	<path d="M126.1719818,229.9769897L20.5979919,335.5549927l55.8000031,16.4060364l85.8789825-85.8790283L126.1719818,229.9769897z
		 M126.1719818,229.9769897"/>
	<path d="M331.269989,24.8789978l-31.4109802,31.4100037c6.8209839,10.1759949,10.8089905,22.4020081,10.8089905,35.5429993
		c0,14.3240051-4.8980103,28.4020081-13.7850037,39.6450195l-2.1950073,2.7849884L364,203.5780182V34.5040283L331.269989,24.8789978
		z M331.269989,24.8789978"/>
	<path d="M78.2379913,94.5620422L0,172.8010101v52.8940277l104.6839905-104.687027L78.2379913,94.5620422z M78.2379913,94.5620422"
		/>
	<path d="M208.8869781,147.2620087l-65.7419891,65.7460022l71.0270081,71.0269928l98.1719666-98.1719818l-32.6139832-32.6130066
		l-33.0619812,41.977005L208.8869781,147.2620087z M208.8869781,147.2620087"/>
	<path d="M246.6679993,51.8320007c-22.059021,0-40,17.9450073-40,40c0,9.0740051,2.9769897,17.6370239,8.6049805,24.7580109
		l31.3910065,39.8509979l31.3790131-39.8359985c5.6479797-7.1359863,8.625-15.6990051,8.625-24.7730103
		C286.6679993,69.7770081,268.7229614,51.8320007,246.6679993,51.8320007L246.6679993,51.8320007z M246.6679993,103.7580261
		c-6.5780182,0-11.9259949-5.3519897-11.9259949-11.9260254c0-6.5739746,5.3479767-11.9219666,11.9259949-11.9219666
		c6.5739746,0,11.9219666,5.3479919,11.9219666,11.9219666C258.5899658,98.4060364,253.2419739,103.7580261,246.6679993,103.7580261
		L246.6679993,103.7580261z M246.6679993,103.7580261"/>
	<path d="M231.1409912,301.0040283l33.8940125,33.8939819L364,364.0000305v-126.480011l-34.6839905-34.6880035
		L231.1409912,301.0040283z M231.1409912,301.0040283"/>
	<path d="M102.6249847,359.6759949l14.7070007,4.3240356l112.7769928-30.0859985l-50.8629761-50.8630066L102.6249847,359.6759949z
		 M102.6249847,359.6759949"/>
	<path d="M169.9139862,152.2970123l24.1169891-24.1170044c-7.3399963-10.6249847-11.3629761-23.3829803-11.3629761-36.3480072
		c0-35.2890015,28.7109833-64,64-64c13.4920044,0,26.0119934,4.2070313,36.3439636,11.3630066l22.0310364-22.0309753L246.6679993,0
		L145.9299774,26.875L95.2109985,77.5940247L169.9139862,152.2970123z M169.9139862,152.2970123"/>
	<path d="M0,0v138.8630219L107.3089905,31.5549927L0,0z M0,0"/>
</g>
</svg>
