<?xml version="1.0" encoding="utf-8"?>
<!-- Generator: Adobe Illustrator 21.0.2, SVG Export Plug-In . SVG Version: 6.00 Build 0)  -->
<svg version="1.1" id="Слой_1" xmlns="http://www.w3.org/2000/svg" xmlns:xlink="http://www.w3.org/1999/xlink" x="0px" y="0px"
	 viewBox="0 0 17 17" style="enable-background:new 0 0 17 17;" xml:space="preserve">
<style type="text/css">
	.st0{fill:#FFFFFF;}
	.st1{fill:#12100B;}
	.st2{clip-path:url(#XMLID_217_);}
	.st3{clip-path:url(#XMLID_218_);}
	.st4{clip-path:url(#XMLID_219_);fill:#12100B;}
	.st5{clip-path:url(#XMLID_220_);fill:#020400;}
	.st6{fill:#020400;}
	.st7{clip-path:url(#XMLID_240_);}
	.st8{clip-path:url(#XMLID_241_);}
	.st9{clip-path:url(#XMLID_244_);fill:#12100B;}
	.st10{clip-path:url(#XMLID_247_);fill:#020400;}
</style>
<g id="Layer_1">
	<g id="XMLID_437_">
		<path id="XMLID_439_" d="M16.9,11.3l-1.7-3.5c-2.3,0.2-3,0.7-3.3,1c0,0.1-0.2,0.3,0,0.7c0.3,1.2,0,2-0.3,2.4
			c-0.9,1.1-2.7,1.6-6.1,1.6c-1,0-1.8,0.2-2,0.6c-0.2,0.4-0.1,1,0,1.1l0,0h9.1c0.3,0,0.6-0.2,0.8-0.5c0.2-0.3,0.2-0.6,0-0.9
			l-0.6-1.2H16c0.3,0,0.6-0.2,0.8-0.5C17,11.9,17,11.6,16.9,11.3z"/>
		<path id="XMLID_438_" d="M10,10.8c0.1-0.1,0.2-0.3,0-0.8c-0.3-1.1,0-1.9,0.3-2.3C11,6.8,12.2,6.3,14.3,6l-0.9-1.8
			c-0.2-0.3-0.5-0.5-0.9-0.5s-0.7,0.2-0.9,0.5l-1.6,3.2L7.6,2.2C7.4,1.9,7.1,1.7,6.7,1.7C6.4,1.7,6,1.9,5.9,2.2L0.1,13.9
			c-0.1,0.3-0.1,0.7,0,0.9c0.2,0.3,0.5,0.5,0.8,0.5h0.5c-0.1-0.6-0.1-1.4,0.3-2.1c0.6-1,1.8-1.4,3.6-1.4C8.8,11.7,9.8,11.2,10,10.8z
			"/>
	</g>
</g>
</svg>
