<?xml version="1.0" encoding="utf-8"?>
<!-- Generator: Adobe Illustrator 21.0.0, SVG Export Plug-In . SVG Version: 6.00 Build 0)  -->
<svg version="1.1" id="Слой_1" xmlns="http://www.w3.org/2000/svg" xmlns:xlink="http://www.w3.org/1999/xlink" x="0px" y="0px"
	 viewBox="0 0 391.603302 391.975769" style="enable-background:new 0 0 391.603302 391.975769;" xml:space="preserve">
<g>
	<path d="M359.1990051,56.7727547H233.1989899l33.602005-26.4760151c6.8789978-6,8.5579834-16.2419739,2.5579834-23.1209717
		c-6-6.8790283-16.2379913-8.5630188-23.1209717-2.5630188l-50.3980255,39.2810364L145.3589935,3.6557791
		c-7.6790161-6-17.1210022-4.2420044-23.1210175,2.5589907c-6,7.6790156-4.2379913,17.1209717,2.5630188,23.1209717
		l34.7190094,27.3590107H32.480011C14.480011,56.6947517,0,71.2537384,0,89.175766v239.5190277
		c0,18,14.5589905,32.4809875,32.480011,32.4809875h23.917984v14.5580139c0,8.5629883,6.8829803,16.2419739,16.242981,16.2419739
		c8.5579987,0,16.2380066-7.6789856,16.2380066-16.2419739v-14.5580139h213.8400116v14.5580139
		c0,8.5629883,6.8829956,16.2419739,16.2420044,16.2419739s16.2380066-7.6789856,16.2380066-16.2419739v-14.5580139h23.9219666
		c18,0,32.4810181-14.5629883,32.4810181-32.4809875V89.2537384
		C391.7619629,71.2537384,377.1990051,56.7727547,359.1990051,56.7727547L359.1990051,56.7727547z M359.1990051,327.8937683
		H33.2809753V89.2537384h325.9180298V327.8937683z M359.1990051,327.8937683"/>
</g>
<path d="M84.640976,300.5347595h159.9180145c15.3630066,0,28.2420044-12.8009644,28.2420044-28.2379761V144.8547668
	c0-15.3589935-12.8010254-28.2420197-28.2420044-28.2420197H84.640976c-15.3600006,0-28.242981,12.8009949-28.242981,28.2420197
	v127.4420166C56.397995,287.7337952,69.2809753,300.5347595,84.640976,300.5347595L84.640976,300.5347595z M88.8789825,149.0937653
	h151.4410095v118.9610138H88.8789825V149.0937653z M88.8789825,149.0937653"/>
<path d="M319.0389709,188.4567566c9.4410095,0,16.2420349-7.6839905,16.2420349-16.2419891v-15.3600006
	c0-8.5579987-6.8830261-16.2420197-16.2420349-16.2420197c-8.5589905,0-16.2379761,6.8830109-16.2379761,16.2420197v15.3600006
	C302.8009949,180.7727661,309.6019897,188.4567566,319.0389709,188.4567566L319.0389709,188.4567566z M319.0389709,188.4567566"/>
<path d="M319.0389709,264.6127625c9.4410095,0,16.2420349-7.6799927,16.2420349-16.2379913v-15.3590088
	c0-8.5590057-6.8830261-16.2429962-16.2420349-16.2429962c-8.5589905,0-16.2379761,6.8829956-16.2379761,16.2429962v15.3590088
	C302.8009949,256.9327698,309.6019897,264.6127625,319.0389709,264.6127625L319.0389709,264.6127625z M319.0389709,264.6127625"/>
</svg>
