<?xml version="1.0" encoding="utf-8"?>
<!-- Generator: Adobe Illustrator 21.0.0, SVG Export Plug-In . SVG Version: 6.00 Build 0)  -->
<svg version="1.1" id="Слой_1" xmlns="http://www.w3.org/2000/svg" xmlns:xlink="http://www.w3.org/1999/xlink" x="0px" y="0px"
	 viewBox="0 0 12.8009949 10.3980103" style="enable-background:new 0 0 12.8009949 10.3980103;" xml:space="preserve">
<g>
	<path d="M12.8009949,1.230011c-0.4690247,0.2080078-0.9769897,0.3519897-1.5079956,0.4150085
		c0.5429993-0.3250122,0.9569702-0.8399963,1.1560059-1.45401c-0.5080261,0.3009949-1.0700378,0.519989-1.6720276,0.6369934
		C10.3009644,0.3200073,9.6169739,0,8.8630066,0c-1.4490051,0-2.625,1.1759949-2.625,2.625
		c0,0.2070007,0.0239868,0.4060059,0.0669861,0.5980225C4.1209717,3.1130066,2.1879883,2.0700073,0.8909912,0.480011
		C0.6640015,0.8670044,0.5349731,1.3200073,0.5349731,1.8009949c0,0.9100342,0.4649963,1.7149963,1.1679993,2.1830139
		C1.2730103,3.9730225,0.8709717,3.8520203,0.5159912,3.6560059v0.0320129c0,1.2730103,0.9060059,2.3349915,2.1049805,2.5780029
		C2.4019775,6.3240356,2.1679993,6.355011,1.9299927,6.355011c-0.1679993,0-0.3320007-0.0149841-0.4960022-0.04599
		C1.769989,7.3520203,2.7379761,8.1090088,3.8869934,8.1330261C2.9879761,8.8359985,1.8549805,9.2539978,0.6249695,9.2539978
		C0.4139709,9.2539978,0.2070007,9.2420349,0,9.2190247c1.1639709,0.7459717,2.5429993,1.1789856,4.0269775,1.1789856
		c4.8280334,0,7.4690247-4,7.4690247-7.4679871l-0.0079956-0.3399963
		C12.0039673,2.2189941,12.4490051,1.7580261,12.8009949,1.230011L12.8009949,1.230011z M12.8009949,1.230011"/>
</g>
</svg>
