<?xml version="1.0" encoding="utf-8"?>
<!-- Generator: Adobe Illustrator 21.0.0, SVG Export Plug-In . SVG Version: 6.00 Build 0)  -->
<svg version="1.1" id="Режим_изоляции"
	 xmlns="http://www.w3.org/2000/svg" xmlns:xlink="http://www.w3.org/1999/xlink" x="0px" y="0px"
	 viewBox="0 0 32.0510292 44.2380066" style="enable-background:new 0 0 32.0510292 44.2380066;" xml:space="preserve">
<path d="M16.0270081,18.7999878c5.1960144,0,9.4030151-4.2070007,9.4030151-9.4019775
	C25.4300232,4.2070007,21.2230225,0,16.0270081,0c-5.1910095,0-9.4019775,4.2070007-9.4019775,9.4020081
	C6.6250305,14.5929871,10.8359985,18.7999878,16.0270081,18.7999878L16.0270081,18.7999878z"/>
<path d="M20.0160217,19.4410095H12.039032C5.4020386,19.4410095,0,24.8429871,0,31.480011v9.7579956l0.0270081,0.1519775
	l0.6720276,0.2109985c6.3319702,1.9770203,11.8359985,2.6370239,16.3669739,2.6370239
	c8.8480225,0,13.9730225-2.519989,14.2930298-2.684021l0.6249695-0.315979h0.0670166V31.480011
	C32.0549927,24.8429871,26.6520081,19.4410095,20.0160217,19.4410095L20.0160217,19.4410095z"/>
</svg>
