<?xml version="1.0" encoding="iso-8859-1"?>
<!-- Generator: Adobe Illustrator 21.0.0, SVG Export Plug-In . SVG Version: 6.00 Build 0)  -->
<svg version="1.1" id="&#x421;&#x43B;&#x43E;&#x439;_1"
	 xmlns="http://www.w3.org/2000/svg" xmlns:xlink="http://www.w3.org/1999/xlink" x="0px" y="0px" viewBox="0 0 47.609 53.945"
	 style="enable-background:new 0 0 47.609 53.945;" xml:space="preserve">
<g>
	<g>
		<path d="M22.188,9.257c2.964,1.86,5.043,5.004,5.421,8.657c1.207,0.562,2.551,0.886,3.973,0.886c5.192,0,9.402-4.207,9.402-9.398
			c0-5.195-4.21-9.402-9.402-9.402C26.438,0,22.266,4.132,22.188,9.257L22.188,9.257z M16.027,28.507
			c5.196,0,9.403-4.207,9.403-9.402c0-5.191-4.207-9.398-9.403-9.398c-5.191,0-9.402,4.207-9.402,9.402
			C6.625,24.3,10.836,28.507,16.027,28.507L16.027,28.507z M20.016,29.148h-7.977C5.402,29.148,0,34.55,0,41.187v9.758l0.027,0.152
			l0.672,0.211c6.332,1.977,11.836,2.637,16.367,2.637c8.848,0,13.973-2.52,14.293-2.684l0.625-0.316h0.067v-9.758
			C32.055,34.55,26.652,29.148,20.016,29.148L20.016,29.148z M35.57,19.445h-7.914c-0.086,3.164-1.437,6.019-3.578,8.07
			c5.903,1.754,10.219,7.223,10.219,13.688v3.004c7.816-0.286,12.32-2.5,12.617-2.649l0.625-0.32h0.07V31.48
			C47.609,24.843,42.207,19.445,35.57,19.445L35.57,19.445z M7.977,27.515"/>
	</g>
</g>
</svg>
