<?xml version="1.0" encoding="iso-8859-1"?>
<!-- Generator: Adobe Illustrator 21.0.0, SVG Export Plug-In . SVG Version: 6.00 Build 0)  -->
<svg version="1.1" id="&#x421;&#x43B;&#x43E;&#x439;_1"
	 xmlns="http://www.w3.org/2000/svg" xmlns:xlink="http://www.w3.org/1999/xlink" x="0px" y="0px" viewBox="0 0 64.105 53.945"
	 style="enable-background:new 0 0 64.105 53.945;" xml:space="preserve">
<g>
	<g>
		<path d="M38.684,9.257c2.964,1.86,5.043,5.004,5.421,8.657c1.207,0.562,2.551,0.886,3.973,0.886c5.192,0,9.402-4.207,9.402-9.398
			C57.48,4.207,53.27,0,48.078,0C42.934,0,38.762,4.132,38.684,9.257L38.684,9.257z M32.523,28.507c5.196,0,9.403-4.207,9.403-9.402
			c0-5.191-4.207-9.398-9.403-9.398c-5.191,0-9.402,4.207-9.402,9.402C23.121,24.3,27.332,28.507,32.523,28.507L32.523,28.507z
			 M36.512,29.148h-7.977c-6.637,0-12.039,5.402-12.039,12.039v9.758l0.027,0.152l0.672,0.211
			c6.332,1.977,11.836,2.637,16.367,2.637c8.848,0,13.973-2.52,14.293-2.684l0.625-0.316h0.067v-9.758
			C48.551,34.55,43.148,29.148,36.512,29.148L36.512,29.148z M52.066,19.445h-7.914c-0.086,3.164-1.437,6.019-3.578,8.07
			c5.903,1.754,10.219,7.223,10.219,13.688v3.004c7.816-0.286,12.32-2.5,12.617-2.649l0.625-0.32h0.07V31.48
			C64.105,24.843,58.703,19.445,52.066,19.445L52.066,19.445z M16.027,18.804c1.84,0,3.551-0.539,5-1.453
			c0.461-3.004,2.075-5.633,4.375-7.422c0.008-0.175,0.028-0.347,0.028-0.527C25.43,4.211,21.219,0,16.027,0
			c-5.191,0-9.402,4.211-9.402,9.402C6.625,14.593,10.836,18.804,16.027,18.804L16.027,18.804z M24.473,27.515
			c-2.129-2.043-3.477-4.879-3.575-8.027c-0.293-0.02-0.586-0.043-0.882-0.043h-7.977C5.398,19.445,0,24.843,0,31.48v9.758
			l0.023,0.152l0.672,0.211c5.082,1.586,9.617,2.317,13.559,2.547v-2.945C14.254,34.738,18.57,29.269,24.473,27.515L24.473,27.515z
			 M24.473,27.515"/>
	</g>
</g>
</svg>
