<?xml version="1.0" encoding="utf-8"?>
<!-- Generator: Adobe Illustrator 21.0.2, SVG Export Plug-In . SVG Version: 6.00 Build 0)  -->
<svg version="1.1" xmlns="http://www.w3.org/2000/svg" xmlns:xlink="http://www.w3.org/1999/xlink" x="0px" y="0px"
	 viewBox="0 0 20 20" style="enable-background:new 0 0 20 20;" xml:space="preserve">
<style type="text/css">
	.st0{fill:none;}
</style>
<g id="Слой_1">
	<g id="XMLID_717_">
		<path id="XMLID_727_" d="M11.3,12.9c-0.8,1.2-2.3,1-2.8,0c-1.3,1.4-2.3,0-2.3,0c0.2,1.8,1.8,3.3,3.7,3.3c1.9,0,3.5-1.5,3.7-3.4
			C13.7,12.9,12,13.8,11.3,12.9L11.3,12.9z M11.3,12.9"/>
		<path id="XMLID_723_" d="M10,17.1c-2.4,0-4.4-2-4.4-4.4c0-2.4,2-4.4,4.4-4.4c2.4,0,4.4,2,4.4,4.4C14.4,15.1,12.4,17.1,10,17.1
			L10,17.1z M2.2,5.7v13.8c0,0.3,0.2,0.5,0.5,0.5h14.6c0.3,0,0.5-0.2,0.5-0.5V5.7H2.2z M2.2,5.7"/>
		<path id="XMLID_718_" d="M7.6,3.1c-0.4,0-0.8-0.4-0.8-0.8c0-0.4,0.4-0.8,0.8-0.8c0.4,0,0.8,0.4,0.8,0.8C8.4,2.8,8.1,3.1,7.6,3.1
			L7.6,3.1z M5,3.1c-0.4,0-0.8-0.4-0.8-0.8c0-0.4,0.4-0.8,0.8-0.8c0.4,0,0.8,0.4,0.8,0.8C5.8,2.8,5.5,3.1,5,3.1L5,3.1z M17.3,0H2.7
			C2.4,0,2.2,0.3,2.2,0.6v4.1h15.7V0.6C17.8,0.3,17.6,0,17.3,0L17.3,0z M17.3,0"/>
	</g>
</g>
<g id="Слой_2">
</g>
<g id="Слой_3">
</g>
</svg>
