<?xml version="1.0" encoding="utf-8"?>
<!-- Generator: Adobe Illustrator 21.0.2, SVG Export Plug-In . SVG Version: 6.00 Build 0)  -->
<svg version="1.1" id="Слой_1" xmlns="http://www.w3.org/2000/svg" xmlns:xlink="http://www.w3.org/1999/xlink" x="0px" y="0px"
	 viewBox="0 0 17 17" style="enable-background:new 0 0 17 17;" xml:space="preserve">
<style type="text/css">
	.st0{fill:#FFFFFF;}
	.st1{fill:#12100B;}
	.st2{clip-path:url(#XMLID_217_);}
	.st3{clip-path:url(#XMLID_218_);}
	.st4{clip-path:url(#XMLID_219_);fill:#12100B;}
	.st5{clip-path:url(#XMLID_220_);fill:#020400;}
	.st6{fill:#020400;}
	.st7{clip-path:url(#XMLID_240_);}
	.st8{clip-path:url(#XMLID_241_);}
	.st9{clip-path:url(#XMLID_244_);fill:#12100B;}
	.st10{clip-path:url(#XMLID_247_);fill:#020400;}
</style>
<g id="Layer_1_1_">
	<g id="XMLID_96_">
		<ellipse id="XMLID_102_" transform="matrix(0.816 -0.5781 0.5781 0.816 -1.1702 9.3698)" cx="14.1" cy="6.5" rx="2.5" ry="2.5"/>
		<path id="XMLID_100_" d="M0.6,8.7C0.8,8.9,1.1,9,1.4,9c0.4,0,0.7-0.2,1-0.5l1.8-2.2L6,7.2l-4.9,3.4C1,10.7,1,10.9,1,11
			c0,0.1,0.1,0.2,0.2,0.2h11.5c0.1,0,0.2-0.1,0.2-0.2c0-0.6-0.2-1.1-0.5-1.6c0,0-1.2-1.7-1.6-2.3c-0.3-0.5-0.7-0.7-1-0.9
			C8.7,5.6,5,3.9,5,3.9C4.2,3.5,3.1,3.7,2.5,4.5l-2,2.4C0,7.4,0,8.3,0.6,8.7z"/>
		<path id="XMLID_99_" d="M16.3,12.1H0.7c-0.4,0-0.7,0.3-0.7,0.7c0,0.4,0.3,0.7,0.7,0.7h15.5c0.4,0,0.7-0.3,0.7-0.7
			C17,12.5,16.7,12.1,16.3,12.1z"/>
	</g>
</g>
</svg>
