<?xml version="1.0" encoding="utf-8"?>
<!-- Generator: Adobe Illustrator 21.0.2, SVG Export Plug-In . SVG Version: 6.00 Build 0)  -->
<svg version="1.1" id="Слой_1" xmlns="http://www.w3.org/2000/svg" xmlns:xlink="http://www.w3.org/1999/xlink" x="0px" y="0px"
	 viewBox="0 0 17 17" style="enable-background:new 0 0 17 17;" xml:space="preserve">
<style type="text/css">
	.st0{fill:#FFFFFF;}
	.st1{fill:#12100B;}
	.st2{clip-path:url(#XMLID_217_);}
	.st3{clip-path:url(#XMLID_218_);}
	.st4{clip-path:url(#XMLID_219_);fill:#12100B;}
	.st5{clip-path:url(#XMLID_220_);fill:#020400;}
	.st6{fill:#020400;}
	.st7{clip-path:url(#XMLID_240_);}
	.st8{clip-path:url(#XMLID_241_);}
	.st9{clip-path:url(#XMLID_244_);fill:#12100B;}
	.st10{clip-path:url(#XMLID_247_);fill:#020400;}
</style>
<g id="XMLID_493_">
	<g id="XMLID_498_">
		<defs>
			<rect id="XMLID_490_" x="0" y="0" width="17" height="17"/>
		</defs>
		<clipPath id="XMLID_217_">
			<use xlink:href="#XMLID_490_"  style="overflow:visible;"/>
		</clipPath>
		<path id="XMLID_491_" style="clip-path:url(#XMLID_217_);fill:#12100B;" d="M15.1,12.3c-0.2,0.5-0.5,0.8-1,1.1L8,16.5c0,0,0,0,0,0
			c-0.3,0.2-0.6,0.2-1,0.2c-0.8,0-1.6-0.4-1.9-1.2c-0.2-0.3-0.2-0.7-0.2-1c0-0.1,0-0.2,0-0.3l-1.9-1c-0.4-0.2-0.8-0.6-1-1.1
			l-1.9,3.8c-0.1,0.2-0.1,0.4,0,0.6C0.2,16.9,0.4,17,0.6,17h15.8c0.2,0,0.4-0.1,0.5-0.3c0.1-0.2,0.1-0.4,0-0.6L15.1,12.3L15.1,12.3z
			"/>
	</g>
	<path id="XMLID_489_" class="st1" d="M9,3.1c0.6-0.1,1-0.6,1-1.2V1.2C10.1,0.5,9.5,0,8.8,0H8.2C7.5,0,6.9,0.5,6.9,1.2v0.7
		c0,0.6,0.5,1.1,1,1.2c0.1,0,0.3,0,0.5,0C8.7,3.1,8.9,3.1,9,3.1L9,3.1z"/>
	<path id="XMLID_488_" class="st1" d="M3.9,10.1c-0.4,0-0.9,0.3-1.1,0.7c-0.3,0.6-0.1,1.4,0.5,1.7l1.8,0.9c0.2-0.3,0.5-0.6,0.8-0.8
		l1.5-0.8l-3.5-1.8L3.9,10.1L3.9,10.1L3.9,10.1z"/>
	<path id="XMLID_487_" class="st1" d="M5.7,14.6c0,0.2,0,0.4,0.1,0.6c0.2,0.4,0.7,0.7,1.1,0.7c0.2,0,0.4,0,0.6-0.1l6.1-3.2
		c0.4-0.2,0.7-0.6,0.7-1.1c0-0.2,0-0.4-0.1-0.5c-0.2-0.4-0.7-0.7-1.1-0.7c-0.2,0-0.4,0-0.6,0.1l-6.1,3.2C6,13.7,5.8,14.1,5.7,14.6
		L5.7,14.6z"/>
	<path id="XMLID_486_" class="st1" d="M2,8.9l3-0.9c0.1,0,0.2-0.1,0.3-0.2c0,0,0.7-0.6,0.7-0.6v3l2.6,1.3l2.6-1.3v-3
		c0,0,0.6,0.6,0.7,0.6c0.1,0.1,0.2,0.1,0.3,0.2l3,0.9c0.5,0.2,1-0.1,1.1-0.6c0.2-0.5-0.1-1-0.6-1.1l-2.8-0.9l-2.2-2
		C10.4,4.1,10.2,4,9.9,4.1c0,0-2.8,0-2.8,0C6.9,4,6.6,4.1,6.4,4.3l-2.2,2L1.4,7.1C0.9,7.3,0.7,7.8,0.8,8.3C1,8.7,1.5,9,2,8.9L2,8.9z
		"/>
</g>
</svg>
