<?xml version="1.0" encoding="utf-8"?>
<!-- Generator: Adobe Illustrator 21.0.0, SVG Export Plug-In . SVG Version: 6.00 Build 0)  -->
<svg version="1.1" id="Слой_1" xmlns="http://www.w3.org/2000/svg" xmlns:xlink="http://www.w3.org/1999/xlink" x="0px" y="0px"
	 viewBox="0 0 20 14.166667" style="enable-background:new 0 0 20 14.166667;" xml:space="preserve">
<path id="XMLID_944_" d="M17.291666,4.5833335c-0.8333321,0-0.8333321,1.25,0,1.25
	C18.125,5.8333335,18.125,4.5833335,17.291666,4.5833335z M16.666666,8.958333c0,0.833334,1.25,0.833334,1.25,0V6.875
	c0-0.8333335-1.25-0.8333335-1.25,0V8.958333z M15.208333,4.5833335c0.833333,0,0.833333,1.25,0,1.25h-2.291666v0.833333H14.375
	c0.833333,0,0.833333,1.25,0,1.25h-1.458333V8.958333c0,0.833334-1.25,0.833334-1.25,0V5.2083335
	c0-0.3472223,0.2777777-0.625,0.625-0.625H15.208333z M20,5.8333335V8.333333c0,1.8055563-1.458334,3.333334-3.333334,3.333334
	h-1.249999c-1.3194447,1.5277777-3.2638893,2.5-5.416667,2.5s-4.0972223-0.9722223-5.4166665-2.5H3.3333333
	C1.5277778,11.666667,0,10.208333,0,8.333333V5.8333335C0,3.9583333,1.5277778,2.5,3.3333333,2.5h1.2500002
	C5.9027777,0.9722222,7.8472223,0,10,0s4.0972223,0.9722222,5.416667,2.5h1.249999C18.541666,2.5,20,4.0277777,20,5.8333335z
	 M8.541667,4.5833335c-0.8333335,0-0.8333335,1.25,0,1.25S9.375,4.5833335,8.541667,4.5833335z M7.9166665,8.958333
	c0,0.833334,1.2500005,0.833334,1.2500005,0V6.875c0-0.8333335-1.2500005-0.8333335-1.2500005,0V8.958333z M6.0416665,9.0277777
	l0.9722223-3.5416665c0.2777777-1.0416665-0.9722223-1.1805558-1.1805553-0.4166665l-0.416667,1.5277777L5,5.0694447
	c-0.1388888-0.625-1.1111112-0.625-1.25,0L3.3333333,6.5972223L2.9166667,5.0694447
	C2.7083333,4.375,1.4583334,4.4444447,1.7361112,5.4861112l0.9722221,3.5416665c0.2083335,0.6944447,1.0416667,0.7638893,1.25,0
	L4.375,7.5694447l0.4166665,1.458333C5,9.791667,5.8333335,9.791667,6.0416665,9.0277777z M16.666666,3.3333333h-4.374999
	c-1.041667,0-1.875,0.8333333-1.875,1.8750002V8.958333c0,0.833334-0.5555563,1.7361116-1.7361116,1.875h7.9861107
	c1.3888893,0,2.5-1.1111107,2.5-2.5V5.8333335C19.166666,4.4444447,18.0555553,3.3333333,16.666666,3.3333333z"/>
</svg>
