<?xml version="1.0" encoding="utf-8"?>
<!-- Generator: Adobe Illustrator 21.0.2, SVG Export Plug-In . SVG Version: 6.00 Build 0)  -->
<svg version="1.1" id="Слой_1" xmlns="http://www.w3.org/2000/svg" xmlns:xlink="http://www.w3.org/1999/xlink" x="0px" y="0px"
	 viewBox="0 0 17 17" style="enable-background:new 0 0 17 17;" xml:space="preserve">
<style type="text/css">
	.st0{fill:#FFFFFF;}
	.st1{fill:#12100B;}
	.st2{clip-path:url(#XMLID_217_);}
	.st3{clip-path:url(#XMLID_218_);}
	.st4{clip-path:url(#XMLID_219_);fill:#12100B;}
	.st5{clip-path:url(#XMLID_220_);fill:#020400;}
	.st6{fill:#020400;}
	.st7{clip-path:url(#XMLID_240_);}
	.st8{clip-path:url(#XMLID_241_);}
	.st9{clip-path:url(#XMLID_244_);fill:#12100B;}
	.st10{clip-path:url(#XMLID_247_);fill:#020400;}
</style>
<g id="Layer_1_2_">
	<g id="XMLID_54_">
		<path id="XMLID_104_" d="M14.3,1.1c-1.3,0-2.4,0.9-2.6,2.1H5.4C5.1,2,4,1.1,2.7,1.1C1.2,1.1,0,2.3,0,3.8c0,1.1,0.6,2,1.5,2.4v2.9
			c0,3.8,3.3,6.8,7,6.8c3.8,0,7-3.1,7-6.8V6.2C16.4,5.7,17,4.8,17,3.8C17,2.3,15.8,1.1,14.3,1.1z M5,6.7c0-0.4,0.3-0.8,0.8-0.8
			c0.4,0,0.8,0.3,0.8,0.8c0,0.4-0.3,0.8-0.8,0.8C5.3,7.5,5,7.1,5,6.7z M8.5,14.6c-1.4,0-2.6-1.5-2.6-3.4c0-1.9,1.2-3.4,2.6-3.4
			c1.4,0,2.6,1.5,2.6,3.4C11.1,13.1,9.9,14.6,8.5,14.6z M11.3,7.5c-0.4,0-0.8-0.3-0.8-0.8c0-0.4,0.3-0.8,0.8-0.8
			c0.4,0,0.8,0.3,0.8,0.8C12,7.1,11.7,7.5,11.3,7.5z"/>
		<path id="XMLID_103_" d="M7.1,9.8c-0.2,0-0.4,0.1-0.5,0.3c-0.1,0.2,0,0.4,0.1,0.6l1.4,1.3c0.2,0.2,0.6,0.2,0.8,0l1.4-1.4
			c0.2-0.2,0.2-0.4,0.1-0.6c-0.1-0.2-0.3-0.3-0.5-0.3H7.1z"/>
	</g>
</g>
</svg>
