<?xml version="1.0" encoding="utf-8"?>
<!-- Generator: Adobe Illustrator 21.0.2, SVG Export Plug-In . SVG Version: 6.00 Build 0)  -->
<svg version="1.1" id="Слой_1" xmlns="http://www.w3.org/2000/svg" xmlns:xlink="http://www.w3.org/1999/xlink" x="0px" y="0px"
	 viewBox="0 0 17 17" style="enable-background:new 0 0 17 17;" xml:space="preserve">
<style type="text/css">
	.st0{fill:#FFFFFF;}
	.st1{fill:#12100B;}
	.st2{clip-path:url(#XMLID_217_);}
	.st3{clip-path:url(#XMLID_218_);}
	.st4{clip-path:url(#XMLID_219_);fill:#12100B;}
	.st5{clip-path:url(#XMLID_220_);fill:#020400;}
	.st6{fill:#020400;}
	.st7{clip-path:url(#XMLID_240_);}
	.st8{clip-path:url(#XMLID_241_);}
	.st9{clip-path:url(#XMLID_244_);fill:#12100B;}
	.st10{clip-path:url(#XMLID_247_);fill:#020400;}
</style>
<g id="XMLID_311_">
	<path id="XMLID_315_" class="st1" d="M6.4,3.5V2.4H3.8l0,1.1C2.7,3.9,1.9,5,1.9,6.2v0.7h4.7l0,6.8H1.9V17h6.4V6.2
		C8.3,5,7.6,3.9,6.4,3.5L6.4,3.5z"/>
	<polygon id="XMLID_314_" class="st1" points="5.6,12.7 5.6,7.9 1.9,7.9 1.9,8.9 5,8.9 5,10 1.9,10 1.9,10.6 5,10.6 5,11.6 
		1.9,11.6 1.9,12.7 5.6,12.7 	"/>
	<polygon id="XMLID_312_" class="st1" points="3.8,0 6.4,0 6.4,1.4 3.8,1.4 3.8,0 	"/>
	<path id="XMLID_215_" class="st1" d="M15.1,9.9V7.3H9.2v2.6c0,1.4,1,2.6,2.4,2.9V16H9.7v1h4.8v-1h-1.9v-3.3
		C14,12.5,15.1,11.3,15.1,9.9L15.1,9.9z"/>
</g>
</svg>
