<?xml version="1.0" encoding="utf-8"?>
<!-- Generator: Adobe Illustrator 21.0.2, SVG Export Plug-In . SVG Version: 6.00 Build 0)  -->
<svg version="1.1" xmlns="http://www.w3.org/2000/svg" xmlns:xlink="http://www.w3.org/1999/xlink" x="0px" y="0px"
	 viewBox="0 0 20 20" style="enable-background:new 0 0 20 20;" xml:space="preserve">
<style type="text/css">
	.st0{fill:#FFFFFF;}
	.st1{clip-path:url(#SVGID_2_);}
	.st2{clip-path:url(#SVGID_4_);}
	.st3{clip-path:url(#SVGID_6_);}
	.st4{clip-path:url(#SVGID_8_);fill-rule:evenodd;clip-rule:evenodd;fill:#121111;}
	.st5{clip-path:url(#SVGID_10_);fill-rule:evenodd;clip-rule:evenodd;}
</style>
<g id="Слой_1">
	<g>
		<path d="M18.3,4.4L18,4.5l-1.6,0.1L16,5.4l-0.3-0.1l-1.3-1.1l-0.2-0.6l-0.2-0.6l-0.8-0.7L12.2,2l0,0.4l0.9,0.9l0.5,0.5L13,4.1
			L12.6,4L12,3.8l0-0.5l-0.8-0.3L11,4.1l-0.8,0.2l0.1,0.7l1.1,0.2l0.2-1l0.9,0.1l0.4,0.2h0.7l0.5,0.9L15,6.6L15,7l-1-0.1l-1.7,0.8
			l-1.2,1.4L11,9.8h-0.4L9.8,9.5L9,9.8l0.2,0.8l0.3-0.4l0.6,0l0,0.7l0.5,0.1l0.5,0.5l0.8-0.2l0.9,0.1l1.1,0.3l0.5,0.1l0.9,1l1.7,1
			l-1.1,2.1l-1.2,0.6l-0.5,1.2L12.5,19l-0.2,0.7c4.4-1.1,7.7-5,7.7-9.7C20,7.9,19.4,6,18.3,4.4L18.3,4.4z M18.3,4.4"/>
		<path d="M11.1,15.2l-0.7-1.3l0.7-1.4l-0.7-0.2l-0.7-0.8L8,11.2L7.5,10v0.7H7.2L5.8,8.7V7.1L4.7,5.4L3.1,5.7H1.9L1.4,5.4l0.7-0.6
			L1.4,5C0.5,6.4,0,8.2,0,10c0,5.5,4.5,10,10,10c0.4,0,0.8,0,1.3-0.1l-0.1-1.2c0,0,0.5-1.8,0.5-1.9C11.6,16.8,11.1,15.2,11.1,15.2
			L11.1,15.2z M11.1,15.2"/>
		<path d="M3.7,3.2L5.5,3l0.8-0.5l0.9,0.3l1.5-0.1l0.5-0.8L9.9,2l1.8-0.2l0.5-0.5l0.7-0.5l1,0.1L14.3,1C13,0.4,11.5,0,10,0
			C6.9,0,4.1,1.4,2.3,3.6h0L3.7,3.2z M10.4,1l1-0.6l0.7,0.4l-1,0.7l-0.9,0.1L9.8,1.4L10.4,1z M7.4,1.1l0.5,0.2l0.6-0.2l0.3,0.6
			L7.4,2L6.7,1.6C6.7,1.6,7.4,1.2,7.4,1.1L7.4,1.1z M7.4,1.1"/>
	</g>
</g>
<g id="Слой_2">
</g>
<g id="Слой_3">
</g>
</svg>
