<?xml version="1.0" encoding="iso-8859-1"?>
<!-- Generator: Adobe Illustrator 21.0.0, SVG Export Plug-In . SVG Version: 6.00 Build 0)  -->
<svg version="1.1" id="Layer_1" xmlns="http://www.w3.org/2000/svg" xmlns:xlink="http://www.w3.org/1999/xlink" x="0px" y="0px"
	 viewBox="-49 145.197 507.661 503.607" style="enable-background:new -49 145.197 507.661 503.607;" xml:space="preserve">
<g>
	<path d="M311.968,648.803H77.976l6.371-49.429l41.212-2.308c21.898-2.275,25.189-7.059,25.323-7.26
		c0.227-0.957,2.191-10.299,2.191-60.676v-24.207l-1.125-47.28c-1.419-5.523-9.686-28.739-56.983-120.026
		C50.832,252.868,31.367,222.123,23.15,210.993L-49,195.356v-50.159h249.596l-4.172,45.123l-67.785,10.5
		c22.41,51.158,54.154,117.752,92.479,193.964c48.086-58.527,75.549-98.119,81.878-118.012l-59.526-14.445l-4.146-49.983h219.337
		l-20.203,49.949l-59.182,19.876c-2.938,1.343-16.468,13.597-65.763,77.253c-48.321,60.844-61.834,87.048-64.512,98.338
		l-3.483,73.216l4.23,62.607l76.196,1.914L311.968,648.803z"/>
</g>
</svg>
